<mxfile host="app.diagrams.net" modified="2024-06-05T09:45:47.453Z" agent="Mozilla/5.0 (Windows NT 10.0; Win64; x64) AppleWebKit/537.36 (KHTML, like Gecko) Chrome/125.0.0.0 Safari/537.36" etag="Ua2TwfFUm0u79XtQ7x5M" version="24.4.13" type="device">
  <diagram name="Page-1" id="fJW-JRIaxKM6javm6g3i">
    <mxGraphModel dx="1049" dy="605" grid="0" gridSize="10" guides="1" tooltips="1" connect="1" arrows="1" fold="1" page="1" pageScale="1" pageWidth="850" pageHeight="1100" math="0" shadow="0">
      <root>
        <mxCell id="0" />
        <mxCell id="1" parent="0" />
        <mxCell id="N31ouIDfywrDT4UYR5mc-2" value="Sequence Diagram for costumers Kitab.com" style="text;html=1;align=center;verticalAlign=middle;whiteSpace=wrap;rounded=0;" parent="1" vertex="1">
          <mxGeometry x="283" y="537" width="347" height="30" as="geometry" />
        </mxCell>
        <mxCell id="1vvXg_mtmP3wP4naVzJM-1" value="" style="shape=image;verticalLabelPosition=bottom;labelBackgroundColor=default;verticalAlign=top;aspect=fixed;imageAspect=0;image=data:image/png,iVBORw0KGgoAAAANSUhEUgAAAtsAAAMPCAIAAACLyo5yAAAgAElEQVR4Aey9C1gTV974P9r212o771vZra/ss6/Zt13+/Hz646VWXbq6rlZdYYtWaL0riiuKVyyKF0ArBQW0aqlWRGW9AWKtqHirKCooAiIKiiKKQETul5hASCaZzMy/4djTcRJigMgl880zj04mZ87M+ZxvMh/OOXOGYOAFBIAAEAACQAAIAIHOJkCw8AICQAAIAAEgAASAQGcTIDh4AQEgAASAABAAAkCgswmAkXR2DcDxgQAQAAJAAAgAAY4DI4EoAAJAAAgAASAABDqfABhJ59cBnAEQAAJAAAgAASAARgIxAASAABAAAkAACHQ+ATCSzq8DOAMgAASAABAAAkAAjARiAAgAASAABIAAEOh8AmAknV8HcAZAAAgAASAABIAAGAnEABAAAkAACAABIND5BMBIOr8O4AyAABAAAkAACAABMBKIASAABIAAEAACQKDzCYCRdH4dwBkAASAABIAAEAAChFKpPH36dGxs7H54AQEDAkeOHLl+/Tp8T1pFoLi4OD4+/sCBAwY4YYPYCRw8eDAhIaGgoKBVEdVdEhcUFCQmJoq9jqH8LRNITU0tKyszEc9EXV1dUFDQokWL5sMLCBgQWLZs2Z49e0wEEHxkSCAzM9PHx8fb29sAJ2wQOwFvb28/P7+LFy8aho0VbPn555/XrFkj9jqG8rdMICwsLC0tzUSo643E399/2bJlq+EFBAwI+Pj4bNmyxUQAwUeGBNLT0xcsWLBy5UoDnLBB7ARWrVq1cOHC06dPG4aNFWz58ccf58+fj6xL7DUN5X+RwIoVK9AfaT/++KOJUH9uJEePHi2BFxAwIHDo0CEwEhPfH6Mfpaenr1y5Mjc31wAnbBA7gYKCgrVr11q3kSxdujQzM1PsNQ3lf5FAamrq0qVL58+fb5aRnDlzRgEvIGBA4KeffgIjMaodJjamp6evXr26pKTEACdsEDuBqqqqoKAg6zYSHx+f/Px8sdc0lP9FArdv3/bx8QEjeZEKvGslATASE+bR0kdgJK2MMhElByMRUWVDUXkEwEh4MGC1rQTASFrSDhPbwUjaGm7Wvx8YifXXMZTQGAEwEmNUYFsrCYCRmDCPlj4CI2lllIkoORiJiCobisojAEbCgwGrbSUARtKSdpjYDkbS1nCz/v3ASKy/jqGExgiAkRijAttaSQCMxIR5tPQRGEkro0xEycFIRFTZUFQeATASHgxYbSsBMJKWtMPEdjCStoab9e8HRmL9dQwlNEYAjMQYFdjWSgJgJCbMo6WPwEhaGWUiSg5GIqLKhqLyCICR8GDAalsJgJG0pB0mtoORtDXcrH8/MBLrr2MooTEC1mYkUql09uzZo0aN+vLLL/Py8owVWbF3795Ro0a5u7vn5uYaTWCRjbm5ue7u7ps3b7ZIbl08EzASE+bR0kfWZCRHjx4dNWrU3LlzpVKpmbG6efPm2bNnm59ekG11dfXKlSvbk4Mgwy71Foykc6tjdVThoPk5aFkc8Tgzv6GJYtAXmWU5RZPuYvaz2WEPcZouu/JIWt+5JFt7dGszkpKSktGjRxPNr5iYGEMcFRUVM2bMIAjCwcEhOzvbMIGltmRnZzs4OAQGBloqw66cDxhJS9phYrvVGElVVdWcOXPee++9/v37X7582cxADQwMHD16dJunrEUHbU8OZp5npyQDI+kU7PigfjsffeR1+yOv24eTa9QaluM4SstKq6iHT1VVMq2uWU7qFfTGmFKUrMv++7CkDheqW6xYp5H069fPzs5uwYIFNTU1gmrIzMz88MMP33vvPTASAZn2vAUjMWEeLX1kNUaSmZlpb2//9ddfDx8+fNWqVTKZzJxYaqeRyOXy0tJSqVT67Nkzcw7XvdKAkXRufSEjiT5bSWlZHcNduv1s7Mo8rB0LvyssKlezLNfQpNvQtaUEjKRzA0mB2khGjhy5dOnSwYMH37lzR3BCERER48ePnzt3LhiJgEx73oKRtKQdJrZbh5HI5fKNGzd+8MEHKSkpixcvNvqlMxpa7TQSo3lazUYwks6tSr+dj+ZteVQt07Isl3G/YejiXKwjaOWLdfkPn6o4jrtX0mT4qSBxJ74FI+ncQHpuJKNHj05ISOjXr5+g46asrGzq1KkbN24MCAgQGElFRcW2bdsGDx5MEISdnV1QUNDDhw9xYVJSUkaNGpWcnLxv3z6UZvDgwfv27auvr79//76np2ef5te//vWvR48eob1wr01ycvLIkSNxtoKO85qamkOHDqEE/fv3X7x4cW5urlwuR5mgzvKVK1deu3Zt5MiRjo6OoaGh1dXV+MS6yAoYiQnzaOkj6zASqVQ6fvz4GTNmVFRUJCYmkiS5Y8cOw7CUSqVBQUF2dnZ9+vSZOXNmeno630jQoKvY2NhTp07hL8umTZuqqqqkUqmfn1///v1JknRzc7t58yb/q4HHkaBv6JUrV86ePevm5tanTx/0LS4qKjI8ma6/BYykc+vIb+ejg0nVtI6rU9CLIx4bVYrQ2NImimmimNDY0rjkmkYVk5nfgFP67iyqrNfWKWh+I8q1u4qGJt2B81U7jpc/a9Sl5MoPnK+ukeu7gXQMV16riThWjnP4yOu2R2jBtbsKNIQFJfjhRAUWIJRJ6h359XsKWsc1qpifb8j4u3/kdRuMpHMD6Tcjyc3NdXNzE3TcXL9+3cHB4fLly4GBgXwjKSwsdHNzI0ly9uzZQUFBK1assLOzc3BwuHLlCipPUlISQRBTpkz505/+NHfu3MDAwKFDh5IkuWXLlvHjx0+cODEoKGjixIkkSc6ZM6eqqkqhUCAjcXBw+OCDD1C2s2fPJknS1dW1sLAQZVtRUbFw4UKCINzc3IKCggIDAz/++OP+/fvHxcWhBKiz3NnZeeTIkXbNr7Vr12Jf6WTWvMODkbSkHSa2W4eR8C2kuLh4zJgx48ePF2h3YWGhq6trnz59lixZEhQUtGTJkg8//NDR0RGPAkFfFnd3dzs7u6lTp3799dcuLi4EQQQGBs6dO9fFxeXrr7+eM2dOnz59Pvvss8ePHysUCsE4EvQNXblyJcoBfx/d3NwEJ8ML2667CkbSuXXjt/NR+r0GjuNyHysF13j89vPA+0+qKZbljqXWIjuplmnnbXk+AAUJDcNyRy7XoF1mbCgor9U0qpiv90l3n67U0mxZrUatYRVNusIyNWqPUWvY7xOeS8niiMcVdRqO4+RK3cOnqqJyNepCSsmVowxRJrVyWsdwGpplWO7EtTp8emgFjKRzA+k3IykpKQkNDRW0IYeGhqKfS76RyOXy8PBwkiSjo6Pxxf7u3bujR4+eNm3a06dPFQoF+r1zcHDIyspCJUS/oQRB7NmzB+1VU1OzYMGCDz/8EP0ZhxLws5XL5dHR0SRJhoeHo10OHz5MkmRQUFB9/fMR0VKpdMaMGX//+98fPHiAf3Z/GaeL0jx79sxwZEwnE28+PBiJCfNo6SMrMBKZTLZ8+XL8LUM9OCRJJiYm4rDEG/H3Sy6Xx8TEkCQpMJJ+/fqdOnUK7YjkhiCItWvXom8HyocgiHPnzuGvBs4Bf0PxXxH19fUrVqwgSTI5ORmfTHdZASPp3Jry2/moqFzNcdyVnOeXf8GVHr3NetDIcVxmfgOyE7WG/e6n5z6Rmd/AsBzL/uY0YXFPVRTzuFw9dHEukgmG1Y9QQW0eQxfn5hQqOY5Lv/e8oSUlV86y3MOnqi/W5aPDBUSX1CloFcVsin/6kddtlImO4U6l13/kdXtSUD5Oic8WjKRzA+kFI0lJSeF33JSWlrq5uYWGhioUCr6RFBQUDB8+HDU7889+7969/fr1S0lJwUayfPlyPGoPDVgZPnx4QUEB3is0NJQgiKSkJNxGMnny5NLSUpwANXE7OztLpVLUhTRy5Eh+9xA6FkmS8fHx+Gf3gw8+uH79Os6kC66AkbSkHSa2W4GR3LlzZ/DgwfyWyOvXr3/wwQf8Lcgt3NzcDL8I2CeQvk+dOrWsrAyFN2oCEUR+fHw8QRB79+7FXw2cAzKSxYsX19bW4i8ISr9//368pbusgJF0bk1hIzlu0OqAL/Yfed3OzNe3o6DOmvNZMo7jzmfp+01Qc0iVTN9rUyXTztn08COv2+ezZOyvzRhIJuRK3cpdxTjDI5drGJZ79FT9kddtn+1F9QoadQnhBB953T5xrY5ln3sSyqReQftsL+Kn4a+DkXRuIL1gJEhB8I9jSkqKnZ0dMgy+kSQnJ5Mk6enpeebF17Zt2/DPH/q9i4qKwsVDRjJ79uzKykq8ce/evQIjWb9+Pf5UoVCgvylRh1FOTs5HH300bty4EydO8I+8d+/eDz74AN02jH6XBd7Dz7CLrIORmDCPlj6yAiPZsWOHoEUE3V1vb2+fmZmJghPZxpo1a3ADpEKhkMvla9aswT5hmAZF/siRI/kDQdDX0ISRoL838JeCnx5v7BYrYCSdW01mGgluI/nI6/Z3P5WrNSxqAkHNIZn5DflSlYpiwuKeDl2c+7hcjQ0DyUR5rWbGhgIsEGhjUbneSCJPVmhofYdOUtaz0+n1eMnMb6B1HEqD0j+ppj4PvI8zEayAkXRuIL1gJAqFAnfcoCZf/Ica30jQzxaawsTwX/TzZ/jThowEjxpBxTY0ErQ7Hwo+NPoVNjwi2sI3EvzDzc+nS62DkbSkHSa2d3cjwVP7GI3hjRs3IgVBcW44MU9oaCgObMM0gmEiKNr5X0NBAv5H+KthdCP+tCuvgJF0bu347XyEbCPrQaPgGo/fDl2cW1yp79k5dV3faeIRWlBRp0HNHieu1dE69mBS9YlrdWh4h/+eEkWTDtsDXz5whvyNaL2lXw++kaB1nIlgBYykcwNJaCS44wZ1l0RERKDzw1qAe2T47R+GZTD8aTPTSPARcZ740OhXWPC3I06GVgQ/u4JPu85bMJKWfjtMbO/uRnL58uV+/frNnTv3zIuvQ4cOOTg44O5IQ9tAcbt+/Xowkpa+wmAkLZHpmO34XpuKOo1H6G/NGPzrPZIMwdgRWscdTKrOl6oaVTr/PSWosSRfqkI9MqhPBw8BEciEoZEUV+oHnfAPyl/np+dv56+DkXRMwLR4FCQK+JcOd9ycO3fOwcEBj8bAWoAHfPDHiKDc8/Lyrly5UlFRga2F3+BhppEIOrbR2BHUC4P61/l95+i4xcXFSUlJ6AYBMBITV/Tu/lG3NhK5XL527dp+/foZTtIqk8lWrVpFEAS69x6N0xK0JqLuS/w9NbQWo5HP/8NAkID/Ef51MLoRf9qVV8BIOrd2fum1QW0eDMudzRDeUvuR1+2hi3NvPNAPIimp/K3TBClC7mNltUyLmkPQpCbVMu2DJyq+uxiVCf7Gr/dJG1WM4RiRr/dJj1+r899T0pLW8HUE7v7t3CjSH11gJLjjZubMmfxrP99I0E+bvb19amoqLkBFRYWnp2f//v2vXbvWHiPh356jUChOnTrVr18/NK+lTCZbv349SZLHjh3DXez19fVr164lSfLo0aOGw/fw6XW1FWgjaYMedWsjefjw4ciRIw1v9EWRiZpP0GhxJCj29vb47wGFQnH37t1PPvkEjKSlLzIYSUtkOmY7f85WLc2euFbHb6v4Yl1+xv0GHaOfWj7qVCWWADQcVa1haR2Lb9LJfazUMZyWZvmjRvjygXfnb/w88P6jp/ppYS9mP78Z5yOv21+sy3/cPFfspdvPwEjq/P39z5w50zEB0eajGBoJ6rghCII/cRPfSBQKRVZW1uDBg+3s7Hbs2JGfn5+RkbF48eJfesfxfbmGf2yZ2Uby3nvvDR069OTJkwUFBTt37rSzsxs8eDC+hRjP0xAUFHSn+bVu3TqSJL28vFDbjOAPwTZjedU7gpGIzUhiYmIIghCMJMVhhjpJ8fjWvLy84cOH29nZ7dy5Mz8/Pzo6evDgwe+99x4YCSYmWAEjEQDp4LfISIYuzj2bIdMx+pt4ZY10xv2Gc5my+9ImtUb/YBu1hj2c/HyuEWwVuY/1d/BqaXbvmeemgvprOI67ekeBk/Hlo6WNG2JKG5p0bPPdN9sTyrcnlCMdqZJp0aRtRjPBuaEV6LXp4MgRHs7QSFDHDf5xRDsIjEShUFy7dm38+PF4jF7//v3Dw8PRXGftaSNZuXLltm3b+vTpQxAESZJfffUV/94BhUJx//79mTNn/jIrCTp0nz59VqxYged0AiNpw5W+u+zSfdtI0NQ7gu+U4Ku4Y8cOgiDw+Nb79+9PmzYNB/m2bdt+mYkYjEQADb8FI8EoOmUFP2nvI6/bEcfKa57pp5PHL1rHPXii4t+4iz0A+Qf/tt71+580UQylZbf/OvVZS80bhoax5ceyWjmND82y3JMqKiBa32XTUib4TMBIOiVyLHzQ8vLykpISqVSKpyyzyAFqa2tLSkqw3xjmWVVVVdL84s+mYJisy26BNhL8a2X+Svc1krbFIXo2XklJSTcN8raVum17gZG0jZul9uIbCbq0f7Eu339PSWC0dPXuEv5T9wQG8CreztvyKDBaGhgt5d8qbOaBoI3EUiEB+XQnAmAk5osITik2I+lOAd3Z5wpG0rk1YGgkZhpAV0sGRtK5gQRH7xwCYCTYM8xfASPpnGDtDkcFI+ncWgIj6Sz+t2/f9vHxmT9//o8//mjit5Soq+seI1s7i6PIjwtGYuLL09JHYCQi/9aYKD4YiQk4HfARGEkHQDZ6CDASo1hgY+sIgJG0pB0mtoORtC7IxJQajKRza/vY5bKw2BIrWJ5WyDqXZGuPDkbSWmKQ3ggBMBIT5tHSR2AkRiIJNjUTACOBQBAnATAScda7hUsNRtKSdpjYDkZi4Si0ouzASKyoMqEorSAARtIKWJC0JQJgJCbMo6WPwEhaCifYDkYCMSBOAq0zkri4uHyxvnJycjIyMtLS0rKysu7cuSNWDMbLvW/fvi1btrR06YXtRgmkp6f7+fllZmYaZwpbRUwgJycnMDDw9OnTRiOnu2/88ccf58+fv3Tp0tTUVBFXMhTdCIELFy4sXbrU3HttFi1a5CPWl6ur6/vvv//uu+86Ojp++eWXYsVgvNyLFi0CI2ntdSI9Pd3b23vp0qXGmcJWcRPw9va2biNBUiLuSobSCwksWbJkfvPrJXf/ymSyTZs2oRuF0Q5i+/eTTz5588030WTwTk5OYiu+6fIuW7Zsz549rb0kizz9rVu3Vq1atWDBAtNs4VMREvD29vbz87t48aJVfkfS0tLCwsJEWK1QZDMJhIWFpaWlmQh+oqmp6cKFC/Hx8fvF+powYQJ+6s0//vEPsWIwXu4jR45cv37dRADBR4YESktLjx8/fujQIeNMYauICRw8eDAhIaGgoMAwbKxgS1lZWWpqqoirF4r+EgKpqallZWUmQp0w8ZlIPgoKCsJG8tVXX4mk1FBMIAAEgAAQAAJdigAYCQdG0qUiEk4GCAABIAAExEkAjASMRJyRD6UGAkAACACBrkUAjASMpGtFJJxNdyRA0/SVK1dOnz5969at7nj+cM5AoJ0ECgsLz549e/LkyTNnzuTn57czN9HuDkYCRiLa4IeCW4yAXC7/6KOPevfuPXPmTItlChkBge5D4Ntvv+3Tp0/Pnj3/4z/+IzAwsPuceNc6UzASMJKuFZFwNt2RADKSnj17fvnll93x/OGcgUA7CQQHB7/++us9evR47bXXli9f3s7cRLs7GAkYiWiDHwpuMQLISAiCcHNzs1imkBEQ6D4E4A4Ji9QVGAm3Y8eO//7v/37ttdf++Mc/hoWFWQQrZAIEREUAjERU1Q2FNSQARmLIpA1bwEi4S5cueXh4vPXWW9OmTUtKSmoDRNgFCIicABiJyAMAig9GYpEYACPhnj179uDBg6tXr+bn58tkMotghUyAgKgIgJGIqrqhsIYEwEgMmbRhCxhJG6DBLkAACLxAAIzkBRzwRnwEwEgsUudgJBbBCJkAAVETACMRdfVD4Tm4Q8IyQQBGYhmOkAsQEDMBMBIx1z6UnQMjsVAQgJFwJ06cmDFjhru7+/z580+cOGEhsJANEBARAblc/sknn/Tu3XvKlCkiKjYUFQj8SiAiIqJfv349e/bs1avX6tWrf90M/7eOABgJFxoa2qtXrx49etjY2Kxfv751/CA1EAACHKdWq7///vs1a9YcOnQIeAABERK4fv16SEjI8uXLV69effbsWRESsEiRwUig/88igQSZAAEgAASAABBoFwEwEjCSdgUQ7AwEgAAQAAJAwCIEwEjASCwSSJAJEAACQAAIAIF2EQAjASNpVwDBzkCA4zitVpuUlHT8+PGsrCwAAgRESODx48enT58+ePDgsWPH8vLyREjAIkUGIwEjsUggQSaiJqBQKD799NM//elPS5YsETUIKLxYCezbt8/BweH111+H56O1JwTASMBI2hM/sC8Q0BOQy+WDBg164403Jk6cCESAgAgJbNiw4c033+zRo8frr7++YsUKERKwSJHBSMBILBJIkImoCcAMaaKufig8zJBmoRgAI9HPR9K7d+8ePXr07t17zZo1FgIL2QABEREAIxFRZUNRjRGA59oYo9LqbWAk3N69ex0cHH73u9/97//+7/fff99qhLADEBA9ATAS0YeA2AGAkVgkAsBIuNra2vv37+fm5ubn51dXV1sEK2QCBERFAIxEVNUNhTUkAEZiyKQNW8BI2gANdgECQOAFAmAkL+CAN+IjAEZikToHI7EIRsgECIiaABiJqKsfCg8jWy0UA2AkFgIJ2QABERMAIxFx5UPR9QSgjcQicQBGwp0/f37evHmjR48OCQmBGSctElWQidgIgJGIrcahvAICYCQCIG17C0bCRURE2Nravvbaaw4ODj/88EPbOMJeQEDMBBQKxejRo//rv/7L09NTzByg7KIlcODAgYEDB77xxhvvvvvuunXrRMuhnQUHI4HWtnaGEOwOBDiVShUUFDR37lxweogGcRLIzc3dtGnT2LFjp06dGh8fL04I7S81GAkYSfujCHIAAlxTU1NDQ4NarQYWQECEBHQ6nUqlksvlDQ0NFEWJkIBFigxGAkZikUCCTIAAEAACQAAItIsAGAkYSbsCCHYGAkAACAABIGARAmAkYCQWCSTIRNQEGIZ5+PDhnTt3pFKpqEFA4cVKoKamJi8vLzc39+7du5WVlWLF0N5yg5GAkbQ3hmB/IKBQKIYPH96vXz8vLy+gAQRESGDHjh3/8z//Y2Nj88c//jEkJESEBCxSZDASMBKLBBJkImoCaD6S1157beLEiaIGAYUXK4ENGza8+eabPXr0eOONN/z8/MSKob3lBiPhwsLCevfu3aNHj3feeScgIKC9RGF/ICA+AjBDmvjqHEr8AgGYIe0FHG19A0bC7d+/38nJ6f333//b3/62e/futpKE/YCAeAmAkYi37qHkzQTASCwSCGAkXENDw9OnT6VSaVlZmUKhsAhWyAQIiIoAGImoqhsKa0gAjMSQSRu2gJG0ARrsAgSAwAsEwEhewAFvxEcAjMQidQ5GYhGMkAkQEDUBMBJRVz8UHp79a6EYACOxEEjIBgiImAAYiYgrH4quJwBtJBaJAzASi2CETICAqAmAkYi6+qHwYCQWigEwEu7SpUtr1qzx9fUNDg6+dOmShcBCNkBARATkcvlf//rXt99+e8qUKSIqNhQVCPxKYOvWrb///e979uzZq1ev1atX/7oZ/m8dATASLjQ0FM1H0rdv3+Dg4Nbxg9RAAAhw+gf/BgYGenh4fPfdd8ADCIiQwPnz5xcsWPDFF19Mnz49Li5OhAQsUmQwEuj/s0ggQSZAAAgAASAABNpFAIwEjKRdAQQ7AwEgAASAABCwCAEwEjASiwQSZAIEgAAQAAJAoF0EwEjASNoVQLAzEOA4TqfT5ebmZmZmFhYWAhAgIEICVVVV2dnZqampGRkZpaWlIiRgkSKDkYCRWCSQIBNRE1AoFKNGjXr//feXLl0qahBQeLESOHTo0KBBg9544w2JRLJp0yaxYmhvucFIwEjaG0OwPxCQy+V/+ctf3n777WnTpgENICBCAt9+++27777bs2fP3r17r1mzRoQELFJkMBIwEosEEmQiagIwQ5qoqx8KDzOkWSgGwEi4LVu22NjY9OzZs0+fPl9//bWFwEI2QEBEBMBIRFTZUFRjBGAWeWNUWr0NjIS7cOHClClT3nrrrYkTJ545c6bVCGEHICB6AmAkog8BsQMAI7FIBICRcJWVlVevXo2JiUlNTS0vL7cIVsgECIiKABiJqKobCmtIAIzEkEkbtoCRtAEa7AIEgMALBMBIXsABb8RHAIzEInUORmIRjJAJEBA1ATASUVc/FB5GtlooBsBILAQSsgECIiYARiLiyoei6wlAG4lF4gCMhDt37tyiRYvmzJnj5+d37tw5i2CFTICAqAjI5XInJ6devXpNnjxZVAWHwgIBRGDbtm2/PD2+Z8+eb7311qpVqwBL2wiAkXBhYWFvv/12jx49fomn4ODgtnGEvYCAmAk0NTX5+/tPnz5927ZtYuYAZRctgfPnzy9YsOCLL76YNm1abGysaDm0s+BgJNDa1s4Qgt2BABAAAkAACFiAABgJGIkFwgiyAAJAAAgAASDQTgJgJGAk7Qwh2B0IAAEgAASAgAUIgJGAkVggjCALkROgafr69esXL17My8sTOQoovjgJlJaWpqSkJCYmXrhwobCwUJwQ2l9qMBIwkvZHEeQgdgIKhWLMmDF2dnZfffWV2FlA+UVJ4NChQ4MGDXrjjTf+9Kc/bd68WZQMLFBoMBIwEguEEWQhcgJyuXzIkCG9e/eeOnWqyFFA8cVJIDw8nCRJdPfv6tWrxQmh/aUGIwEjaX8UQQ5iJwAzpIk9AkRffpghzSIhAEbCbdy48a233urRo8dbb70FbmuRqIJMxEYAjERsNQ7lFRAAIxEAadtbMBLuhx9+6N+//2uvvQb9f22LIdgLCICRQAyInJJkQmsAACAASURBVAAYiUUCAIyEKy4uTkpKgjHSFoknyEScBMBIxFnvUGpMAIwEo2jPiiiMRKt8Vn5+e+nxkHYuZWe2NBbfag9u2BcIWCUBMBKrrFYolPkEwEjMZ2UipSiMRF0rvbXCPvur93MDP277EjDwpo+k8vJeEzThIyAgTgJgJOKsdyg1JgBGglG0Z0VERlJxZrO2sqDNi7rkZm7AwIqkH9qDG/YFAlZJAIzEKqsVCmU+ATAS81mZSCkiI6m+sINVVLR50VYW5AZ+XJG0wwRN+AgIiJMAGIk46x1KjQmAkWAU7VkBIzHXUcBI2hNnsK91E1AoFH//+99tbGxmzpxp3SWF0gEBowSioqLs7Oxef/31d955JyAgwGga2PhSAmAkYCQvDRJIAAReQkCpVC5evPif//xncHDwS5LCx0DAGglkZmauXLnS3t7+b3/72+7du62xiB1RJjASMJKOiDM4hnUTYFm2pqamvLxcJpNZd0mhdEDAKAGKourq6p48eVJWVqZQKIymgY0vJQBGAkby0iCBBEAACAABIAAEXjkBMBIwklceZHAAIAAEgAAQAAIvJQBGAkby0iCBBEDg5QQaGxvlcnlTU9PLk0IKIGB1BCiKUigU8uaXWq22uvJ1UIHASMBIOijU4DBWTKCxsXHKlCl//etfAwMDrbiYUDQg0BKBQ4cOjRgx4uOPP/7b3/62c+fOlpLBdtMEwEjASExHCHwKBF5OAM1H8sYbb0yePPnlqSEFELA6AvgZ8m+++ebKlSutrnwdVCAwEjCSDgo1OIwVE4AZ0qy4cqFo5hCAGdLMofTSNGAkYCQvDRJIAAReQgCM5CWA4GNrJwBGYpEaBiMBI7FIIEEmoiYARiLq6ofCcxwYiUWiAIwEjMQigQSZiJoAGImoqx8KD0ZioRgAIwEjsVAoQTYiJgBGIuLKh6LrCUAbiUXiAIwEjMQigQSZiJoAGImoqx8KD0ZioRgAIwEjsVAoQTYiJgBGIuLKh6LrCUAbiUXiAIwEjMQigQSZiJqAXC53cnJ66623YD4SUceBiAu/efPmd999t2fPnjAfSXuiAIwEjKQ98QP7AgE9gcbGxrlz544YMQLmbIWAECeBn376ady4cYMGDYI5W9sTAGAkYCTtiR/YFwg8J9DY2KhQKOC5NhAQ4iSg0WgaGhrkzS94rk2bYwCMBIykzcEDOwIBIAAEgAAQsBgBMBIwEosFE2QEBIAAEAACQKDNBMBIwEjaHDywIxB4ToBl2aqqqrKysvr6eoACBERIQKlUVlRUSKXSp0+fKhQKERKwSJHBSMBILBJIkImoCTQ2Nk6fPn348OHr168XNQgovFgJHD9+fPz48X/+85+HDRsWFRUlVgztLTcYCRhJe2MI9gcC6O5fkiRnzJgBNICACAls3br197//fc+ePd955x1/f38RErBIkcFIwEgsEkiQiagJwAxpoq5+KDzMkGahGAAjASOxUChBNiImAEYi4sqHousJwJytFokDMBLxGglN0+fOnRs9ejTx62vEiBGRkZFKpdIisdXOTLZv3z558uSioiLz89m+fftYg9fUqVOPHz9OUZT5+ZiTsqioaPLkydu3bzcnsdWnASOx+iqGApomAEZimo+Zn4KRiNRIaJoODw8nCMLGxmbcuHHBwcGLFi0aOHAgQRATJkyoqqoyM4BeXbLg4GBHR8eCggLzDxEcHPyrXAn/X7RokWVNq6CgwNHRMTg42PzTs+KUYCRWXLlQNHMIgJGYQ+mlacBIRGokycnJJEkGBATwr9M0TW/fvp0giHXr1ul0updGzytN0GYjSUtL45+YTCZbv349QRDR0dH87e1cByPhAwQj4dOAdRESACOxSKWDkYjUSEJDQ+3s7O7cuSMIo4qKijHNr5qaGsFHHfzWUkbCcVxhYeGgQYO8vb1VKpWlSgFGwicJRsKnAesiJABGYpFKByMRr5HY2treuHFDEEY6nS4nJ+fatWsNDQ34I6VSGRkZ6eTkRBCEvb19WFhYRUUF/pTjOJRgxIgRqLNEIpHMnTv37t27KI1arV7b/Pol59GjRw8cOHDbtm3o0Q8lJSXLly+3t7cnSdLFxeXYsWN4wAcykpycnF27dqFDjxgxYteuXSasAvXaCNpIOI6TSqVDhw719fXVaDT4tAsKCnx9fSUSCUEQo0eP5h8apVGpVIcPH0bjbCQSia+vb0lJCX93Qa/NrVu3Jk6cOH/+/LKyMpxMJCtgJCKpaChmSwTASFoi06rtYCQiNRLUazNy5Mhz586ZuMZzHFdVVTVp0iSSJL28vMLDwwMCAuzt7R0dHbOyslCo0TQdEBCAE4SHh3t7e9vY2Li4uNTW1nIcp1KpvL29XV1dR48ebd/8CgkJYRgmPj7exsZm+PDhwcHBGzdudHZ2JggiPDycpmmO44KDg21tbQcOHCiRSPz8/IKDg4cPH04QREREBMuyRqPcqJGwLHvu3DmSJGNjY9FeLMsmJCRIml9+fn7h4eGTJk0iCGLSpEl4AE1NTY2HhwdBEOPGjdu4cSMqtY2NTXx8PDq6oI0kOzvbyclp7Nixjx49Mnpu1r1RLpf/5S9/efPNNydNmmTdJYXSAQGjBL799lsbG5uePXu++eabK1euNJoGNr6UABiJSI2EoqgNGzaQJEkQBGqf+O677/Lz8xmG4QcNy7IREREkScbFxWEPKCkpcXZ2njVrFpos+ebNmxKJJCQkBJkEx3Esy27dutXW1jY7OxsbCbYNhmEoiiouLnZycpo4cSKed1ypVM6bN2/AgAH37t1DRiIYZltWVvbpp59OnDhRLpfzTxKvIyNZsmRJ+K+vlStXDh8+vG/fvmvXrsUjZh49euTk5DRhwgTcmMEwTExMDEmSaACNTqfbvHkzSZIxMTEYSFlZ2YQJE/Dp8Y0kLy/PycnJ1dVVKpXikxHVilKpXLp0qaura0hIiKgKDoUFAohAYmLi9OnTR40a9dlnn1l2yJqoCIORiNRIUJQ/efJk06ZNqE8Edbg4ODjwbwAuLy8fOXKkp6cnvpyjHWNjY7FwSKXSxMREwcX4woULBEEkJiZiIxEMWzly5AhBEILplh88eLBz5050xy/Si4SEBPyF1Ol0/v7+gwYNKiwsxBv5K2gX4W02BCGRSDZu3IjVJzY2liTJ5ORk/r4NDQ0eHh4jR44sLy+vra11cXExLDUqFDpnbCRIR/h+w88W1oEAEAACQMBMAmAkojYSFCUsy9bV1Z05c8bDw8PGxoYgiBkzZvxyiwrHcRkZGSRJzps378qLr8jISIIgcD8Iyoem6dra2qysrLi4ONQPghKgXht0scdxGRwcTJJkRkYG3iJYCQ4OFkgMajgxcUswMpKff/65jvfKyckJCwuzsbGZNGkSKlRLY2ZRP1F2dja2DcEpoe1oPApad3FxQT73448/ChLDWyAABIAAEGgVATASMJIXAqampmbevHkEQVy4cIHjuLS0NMMmB7wFCQfDMCkpKdhm0OjXyZMnY2VBRuLs7FxXV4cP1pIWmE5gei9kJIYjW1EvEmoXQSczZswYw5uJYmNjCYJIa34RBHHw4EF8Mmilrq7O2dkZ3bODjIQgiJEjRw4ZMmTYsGH8ca+CHeEtEAACQAAIvJQAGIkYjQTNN7p582aj8ZGamoplAhmJ4bWZv2N8fDxJkr8M14iMjMzJyWlsbMQqw28jMTQSBweHBw8e8LPirxuVD6Mb8V4tGQnHccg2YmNjfxkNs379eqMNLbiN5MGDBw4ODoaznxm2kUydOrWmpubSpUu2trYrVqzANwrhU4IVIAAEgAAQMJMAGIkYjQSNk/j888+rq6sNAwWNlkAyga7B/v7+ggnTpFJpVlaWUqlETQ6GF/ioqCisNUbbSNA4EtQSg88hLy/vs88+i4yMbKmDps1GcvDgQXw+27Ztw4Ng8KHROJKhQ4dKm1+GdwtzHIfIbNu2jeM4RAZZC77b6OTJkzhDWAECQAAIAIFWEQAjEaOR6HS60NBQgiDWr18vGLJaU1Pj6emJ7yhBMjFgwIBbt27hwEI3xUgkkpycHJTAycmpuLgYJ6isrHR1dcUGYNRI0L028+bNwyfAsiwanoI0xah8GN2Ij9tSG8mTJ0/4t8ncuHHD1tbW39+f36SBNqJ2DoqifHx8BKVGGyUSyc2bNwVGwnEcug8I+m5wXcAKEBAVgZMnT3p4eLi7u0+bNg39OSeq4luqsGAkYjQSjuPwfBsSiWT27NnobtmFCxdKJBLBvb75+flOTk729vbR0dFPnz7Ny8vz9fXFt/Ki24MJgvD19S0sLKypqUlOTh43btzAgQNtbW1Rd49RI+HvmJeXV1VVtW/fPnt7e9PjT80xkk8++YT/uD17e3t0h/PWrVtRSw9+ps+0adOuXbtWVVV1/PhxNBYEP0YHl3r79u2o1H5+fn379t28eTO6yZnfRoK+jSdPniRJEvpuLPXbBPkAgW5EICws7J133unRo8dbb721atWqbnTmXepUwUhEaiRootWIiAh0wcaDVYcPH37x4kU8CQcK1pycHHd3d5xGIpFERETgedWUSuXatWvR1CZE8622ERERRUVFY8aM8fHxoSjKqJFwHEdRVGRkJJo1Fe24ceNGPODUqHwY3Yi/UaiNBJ8nWvnkk0/8/f3T09P5haIoKi4uDpedJMnVq1fjQ6MMS0pKZs2ahXP7RVn4ZAyNhKKoFStWkCRpZX03jJai6p5StVJ1uxeqvoxuMj6XDK5EWAEC3ZEAzNlqkVoDIxGvkaAAYllWLpeju2XRoNSWAquxsbGurk4mk+GZ0PgpVSqViU/5KQXrNE3Lml9GsxUktuxbdOi6ujpsV4b541LzhcYwmRVvaSy5fSdo2O1V/+/WCvt2LnkbRlVe3mvFrKBooiUARmKRqgcjEbuRWCSMIBMrJqAouJYxr0/6nLfvh/2j+sKOti2lP/pnzuuT6f37Jz+ts2JWUDTREgAjsUjVg5GAkVgkkCATqyUgf5Ca7tkr3bNX8f6FrMLc74sgZeP95BsL++ozifOzWlJQMBETACOxSOWDkZj7C6utLMgN/LgiaYdFuEMmQKC7EAAj6S41BefZiQTASCwCH4wEjMQigQSZWC0BMBKrrVoomOUIgJFYhCUYCRiJRQIJMrFaAmAkVlu1UDDLEQAjsQhLMBIwEosEEmTSRQmwLMvqaJZSsuoG/TrLtvZEwUhaSwzSi5DADz/8IJFIXnvttd69e69Zs0aEBCxSZDASMBKLBBJk0kUJ6B2EamRqH+sq77OMDoyki9YTnFY3J5CSkjJnzpxevXpJJJJNmzZ189J02umDkYCRdFrwwYE7gACrUWmv7qB+WkwdW0KdW08/uMDISlmGMV9NoI2kA6oJDtHdCcjl8oKCgqtXr2ZkZJSWlnb34nTW+YORgJF0VuzBcTuCAEs1ak76qSPHqne5qPd8Tp3006Rup/NOMTWPWKrRHC8BI+mIeoJjAAEgwHFgJGAk8D2wZgK/GUnkWL2XRI5VR7mqYz211/fQj68ytUWsSm66NweMxJrjA8oGBLoSATASMJKuFI9wLpYmYMRIsJpEu1Nn1uqK0hhKybJMS0cGI2mJDGwHAkDAsgTASMBILBtRkFvXImDKSHb9U71/CpWwTHMhlL5/jpE9MTq+BIyka9UonE2XJHDy5EkPDw93d/fp06fHxcV1yXPsBicFRgJG0g3CFE6xzQRMGcnzxhJn9Z7x1IkV2rQo+v5Zpvohq1bwx5eAkbQZPuwoHgJhYWFvv/12jx49evXqtXr1avEU3LIlBSMBI7FsREFuXYuAGUaCx5d8pt4/RXstki66zjx7qh/3qqP1j4aG59p0rSqFs+mKBGCGNIvUChgJGIlFAgky6aIEWmEk+iYTZ/XucfqunLPr9ONLlPUsy4CRdNGqhdPqSgTASCxSG2AkrTOS8rNbWXUD0ySDBQh0DwLPnlIJXz2/ywaPaTW9sstFvW8i9dNSzc/f0LkJz67th2f/WuTXFjKxYgJgJBapXDASs42kquDuuiHlBxfQd45rbx+FBQh0DwI3Y9Wxs1tnJNhXdo+nEpYpjq3IX/7fN+f9Z8mBRazC3O+LIGXj/eQbC/ume/YqjvOzyC8XZAIEuhQBMBKLVAcYibm/sHRVwYOQYeXBH7Xxxx3/ysMKEOhWBJp+GNPw/ch7y/4gPbhE4BnmvwUjscjvNWTSZQmAkVikasBIzDaS6odFm0ZVhQ4CIwECoiKg2vkP1c5/5Pv+95NDS81XEEFKMBKL/F5DJl2WABiJRaoGjMRcI9FWFdwP+qT8+8+okyupYz6wAIHuQeCnxeq9bm1XqL1uil3jSwL/7+0FNiUHFgs8w/y3YCQW+b2GTLosATASi1QNGInZRlJZkBv4cVmsD11wgc47DQsQ6BYEtLnHqLg5rTaSqH/qB7ce/0pzeeuzk4HZ3n0y5rxdvH+h+QoiSAlGYpHfa8ikyxLYtGkTSZI9e/b8P//n//j5wWCpNlYUGEnrjKQiaUcbScNuQKAzCLTy7l90A7Cr+sA0KnEV/TCZbayBu387o97gmN2MwL59+wYOHPi73/2uf//+GzZs6GZn32VOF4wEjKTLBCOcyCsg0EojcVYfnKFN2a4rTtdPkqZWsDotGMkrqBbI0toI1NXV5efn5+bm3r17t7Ky0tqK11HlASMBI+moWIPjdAYBc40k2p1KWKafSP7eGabqAatuwCcLRoJRwAoQAAKvlAAYCRjJKw0wyLyTCbzESNB4kWM+movhdN4pRvaUpTWCMwYjEQCBt0AACLwiAmAkYCSvKLQg2y5B4CVGEv0FdWKFrjidbZK1dLpgJC2Rge1AAAhYlgAYCRiJZSMKcutaBIwbSdRn6kMztdcidY+uMLWPWZWc1WlbOm8wkpbIwHYggAkkJSXNnz9/9OjRU6ZMOXz4MN4OK60iAEYCRtKqgIHE3YyA0Eiiv6CO+Wiv/kDfPclUFbBqxUvLA0byUkSQAAh8//33f/jDH1577bV333137dq1AKRtBMBIwEjaFjmwV/cgwGqaNMmb1Qem6ucXObpQcz5E7yLPylhGZ2YBwEjMBAXJxEwAZkizSO2DkYCRWCSQIJMuSoDVaXVPsrUpEZqfv2Eq7rGUsrUnCkbSWmKQXoQEwEgsUulgJGAkFgkkyKSLEmBZhm16xtQ+br6nV8EydGtPFIyktcQgvQgJRERE9OvXr2fPnr17916zZo0ICVikyGAkYCQWCSTIxGoJgJFYbdVCwSxH4Pr16yEhIcuXL1+zZs3Zs2ctl7G4cgIjASPpThFPUdTx48fd3NxIkiSaXxKJxNfXt6SkpDsVo1udKxhJt6ouOFkg0I0JgJGAkXSb8JVKpe7u7gRB2NvbL1q0KLz55eHhYdP8io+PZ1nW/MIolUq5XG5+etGmBCMRbdVDwYFABxMAIwEj6eCQa+PhqqqqJkyYQJJkRESESqXi55KXl+fk5DRgwIA7d+7wt5tYv3nz5pAhQ9LS0kykgY8QATASiAQgAAQ6hgAYCRhJx0Rau47CsmxERARBEHv27DHaEHLy5EmSJENCQox+anjs2NhYgiDASAzJGG4BIzFkAltESIBWN9bdPF7+8/elx0PauVRfj2uU5oqQ4UuLDEYCRvLSIOn8BBUVFWOaXxUVFUbPRiaTbd68+dq1azqdWdNsgJEYxWh0IxiJUSywUWwENM8qC36YdvOr/0n37NXOJS9sbEXyLrEBNKe8YCRgJObESSenSU1NJQhi/fr1ZjaBcBxHUdSxY8dGjx5NEAQa/VpUVMSyrFqtXrt27cCBAwmC+OSTTyZPnlxUVNTJxevahwcj6dr1A2fXQQSo2ie31/xv+r/eaaeOpHv2ypjXJ/+7LzrovLvVYcBIwEi6QcCiJo3Y2Fgzz1WpVC5btowgiEmTJoWHhwcHBw8ZMkQikZw4cUKj0Rw+fHjmzJkEQSxZsuS7776rrKw0M1txJgMjEWe9Q6kFBNS10lsr7NM9e+WuHVx9YUfbloozm7O/ej/ds9e9sLGC/OEtx3FgJGAk3eCLEBwcTBCEwEgqKyu/++47dMcN+hfrBRpWEh4eTtPPJwSrr6/39PT89NNPy8rKOI6DXhvzax2MxHxWkNKKCWAjebD1c1Zh7oVDkFJbWZAb+DEYSUtxAkZibmChSKpI2tESStj+6ghERUUZGklBQYGjoyOalQT96+joWFBQ0NDQ4OHhMWbMGMGgk7S0NJIkExMTwUhaVVNgJK3CBYmtlQAYSQfULBgJGEkHhFl7D5GYmEgQRFRUFD8jmqZlMlld86usrGzOnDnISAoLCwcNGuTm5paUlHSF94qNjbWzswsODgYj4WN86ToYyUsRQQIxEAAj6YBaBiMBI+mAMGvvIVBzyKxZsxQKhdG8VCqVt7c3MhLDthN+OwoYiVGAJjaKwUhYls3Pz/f19ZVIJChanJycduzYUVdXh8mgMdFeXl4ymQxvtPjK9u3bWzXaOjs7e6zBy83NbdOmTXl5eQzDtOEM6+rqKIoyc0cBFnQ+J0+eNHP3bpQMjKQDKguMBIykA8KsvYegKGrFihUkScbFxRm93cbQSEzfmAPjSMyvEqs3EpVKFRISQpKkRCJZuHBheHj4xo0bx40bRxCEk5NTdnY2YoVizNnZma8p5mM0M2VwcDASazPTp6Wl8YWbv45m6BFMJ2g6W51OFxUV5erqan4ZBVjQ+QiGfJk+aHf5FIykA2oKjASMpAPCzAKHePTokZOTE0mS3377rVKp5OeoVCq3bdtmY2ODfspra2tdXFw8PDwaGhr4yWpra9PS0tAfuGAkfDKm163bSGiaDg8PR/eW8+OKZdm4uDiSJN3d3WtqajiOE1x6TUNr86dtMxLU8ocPyjDMzZs3x44da2JSQZyYv9KGMrIsK5fLZTIZao8BIxEMZRW8hZGt/HgzXAcjASMxjIouuuXBgwfoRxb/LRseHu7n54da2ocMGXLx4kWGYXQ6XWhoKEmS586dww0qNE2jv4PPnDmDx5GkpqZ20aJ2pdOybiNJTU21tbWdNGmSYV8MTdMBAQF4SHUbrtZtqEaLGAk67pMnTz799FMnJ6fi4mIzz6T9ZQQjESiI4C0YielQBCMBIzEdIV3rU6VSGRkZ6eTkxG+ddnBwiIyM5P+Bix6CY2NjExYWVtz82rBhA0mSixYtQsnQ76abmxu+YbhrlbMrnY0VG4lOp/P398fOYUhdKpXu378fzaGHr9YPHz4MCwuzt7cnSdLFxSUhIQHfZM5xHMuyubm5c+bMsbGxIUnSzc0tOTmZn4DjOBTGI0aMIAhi4MCBYWFhqBmG4ziBkahUqk2bNrm4uMTHxxsdFIIiWdBGggsSHR1NEER0dDTe0tLMgRzHFRUVTZo0SSKR2NjYfPrpp2vXrlWr1YKzRfMNzp079+7duyhPwTgSgZHQNJ2QkIAmKiQIYsSIEbt27WpVRxI+805fgV6bDqgCMBIwkg4IM8sforGxEd1lI5fLcUMI/zClpaVz5swhSRK5i42NTUBAQH19PUpTU1MzZcoU9BE83YbPzXDdio1EJpO5uro6ODg8ePDAsOCCLchIfplnz9HR0cHBIbD55eDgQJIkHsjJsmx8fLyNjc2QIUOCg4PDw8MnTZpEEERAQAC+DBcUFAwbNkwikfj5+YWHh3t5eZEkOWHChKqqKoGRqFSqoKAgkiR37NghcBp8bqaNJDs729bWdtGiRdgtWpo5kOO4ysrKb7/9dtiwYQMGDFi/fv3hw4c1Gg1qKCJJ0svLC8364+3tbWNj4+LiUltba9iZxTcSlmX37NlDkuS0adP4o3NaejoVLlTXXAEj6YB6ASMBI+mAMOu0Q6hUKiQuGo3G8CQaGxtbEhrDxKLdYsVGIpVKhw4dauZgVWQkBEHgljaO4+7cuTNgwABfX18UYCUlJcOGDcN6wXEcTdPoqpyUlIQebuDj4yORSDIzM1FEsSwbExODWzJwGwlFUajzMTo6uiUd4TjOtJGg+87wmKqXzhyI24HwyNabN29KJJKQkBB8DizLbt261dbWFo35FezCNxIkfKtWrcL7KpXKefPmGc4V1C2+XGAkHVBNYCRgJB0QZnCIbkzAio0EXbBbZSS2trY3btzA1Ymm43N1dUXDUKKiokiSTE5Oxgk4jkNDrZG1oMlysCKgZAqFYvfu3eg5kchI7t69i3QkJibGaGcNzt8cI0GnZ87MgQK94DhOKpUmJiZKpVJ8RI7jLly48Et/E5psULAL30jq6uqcnZ09PDyePXuGd29sbMTNRXhjt1gBI+mAagIjASPpgDCDQ3RjAlZsJDU1NWPGjGmVkYwcObK8vBxXJ/96rFarFy1aZGdnFxsby5uZ70pSUpKbmxs6Crpgh4aG4hwEK8HBwXZ2dl988QVBEJ9//jluqxAkw2/NMRJvb2+VSmXOzIH84uBDoBWapmtra7OysuLi4lBXFLrFV7AL30jQTfsEQdjY2Hh4eCQmJlZWVhrtYxUcq2u+BSPpgHoBIwEj6YAwg0N0YwJWbCSo2WDo0KGCNgBcWwzD4LnCBJdelIa/Ea3zx1zz1/lGYmK6DvQIJxsbG3d3d4IgIiIiTF/CTRsJGkfi7++v0+nMmTmQXxxUQIZhUlJSPDw8bGxsUHHs7e0nT56MhwMLduEbCRoVe+DAAQcHB4xi3LhxKSkppguF+XepFTCSDqgOMBIwkg4IMzhENyZgxUbCsiy6J7yl0c3FxcVDhw5dsGBBQ0OD4NKLapS/Ea2PGTMG3zhjWOvogn3w4EHDj9CW4OBgW1vbo0ePNjQ0zJs3TyKR3Lx5s6XELx1Hgu61QQKEjMT0zIH84qCDxsfHkyQ5fPjwyMjInJycxsZGfNCXtpHg02YYRiqV4saVlxYK79ilVsBIOqA6wEjASDogzOAQ3ZiAFRsJx3E3btxAd6Pw7x5HtcWybEREBEEQW7dukCHXewAAIABJREFUZVnW8GotuNME+Y2dnd2dO3f49U1RVEZGhlQqZRgGdZ2gRgucpqGhYfHixd7e3nK5HI9sxcNmjc6Vgvc10UZSWVnp6uqK5yMxZ+ZAQRnRW8M5ZPlPvhTswm8j0Wg0OTk5/PYnhmH4++JSdIsVMJIOqCYwEjCSDggzOEQ3JmDdRoLHOqxfv54vJSzLXrp0Cd3rW1BQIJAPXJ2C6zGab83f3x/39XAcd+nSJVtb21WrVmk0GoqifHx8HB0d8/PzcSa3b9+2s7NDmsI3EnT3rOm+G6NGwrJsUVHRtGnTCILYvHmzTqfjOM6cmQNRcXAzD3qLnQadMBIdc3ptiouLnZycAgIC8L02HMedO3eOIIgjR47g4neXFTCSDqgpMBIwkg4IMzhENyZg3UbCcVxVVRUaqung4BAcHHzhwoXjx4+jaUJsbGzi4+PRoAeBfKAaFWzEc9LPmjXrxo0bVVVVCQkJjo6OTk5OWEHQ/bRjx45NTk6uqalJTU0dN24c7sjgGwnHcTKZDM1a1lLfDTISe3t7/uP2Bg4ciMZtLFu2jK9ZL505EE2IQpLksmXLDh8+TFEUaiXy9fUtLCysqalJTk4eN27cwIEDbW1tUd+TgAC/jUSn061bt44kyQ0bNhQXF2Man376aVlZWbf7SoCRdECVgZGI1EhkMtnChQvHjh2LZlVvbah1nSd8CqaMbG1BIP1LCVi9keBpSfkDMCUSia+vb35+Ph6DKbj0Im6GG1UqVUREBH6GMEEQ7u7uOTk5mDPLstevXx8+fDiSBpIkZ82alZubiw4kMBKO45DBtNR3gwwAjxtFKwMHDvTx8UlPTze8c9j0zIFojIi9vT1BEGgorlKpXLt2LZ5pUCKRREREFBUVjRkzxsfHh6IoAQG+kXAcV1NTM2/ePLw7ovHo0SNMoxutgJF0QGWBkYjUSNLS0vo2v9DPSmtDTfC709rdLZhe8INowZwhK0RADEaCSsowjEwmq6urw8+Na3MM0DSNskJDQQ3zQQ+oq6ur65TJOUzPHIg48E8MpZfJZPz+F8NCtbQFH64lGi3t2KW2g5F0QHWAkYjRSFBrqouLy/r16wcMGHDv3r3Whpo1GQlqZcFP8Wgtio5JT1EUmrS7Yw7HP4p4jIRfalgHAgICYCQCIK/iLRhJBxkJy3u9iopsVZ5oxJm/v39mZqatre3W5lsJWpWDNRkJamVBs0i1CkKHJS4qKho3bpyJSSxe6ZmAkbxSvJB5dyEARtIBNQVG0lFGolWzmiaW0eFu6Q6o3ZYOkZCQgOa6ViqVnp6eLT1mwsQTSgVGwrLs+fPnXV1dAwIC5HI5x3Hbt2/38vIqLy/ftWsXesbp6NGjjx07xr8HQaVSHT58GD0XFHXbl5SUcBwnl8u9vb1XrFjBH5S3d+/esWPHpqam4kIVFhZOnDhx9+7d3t7eZk67ifflr3R9IxHQ5p98B6yDkXQAZDhE1ycARtIBdQRG8mqNhNWqmWdlusdXtVmHtFd/0GbuY+TlnSslAguJjY0lCCIhIUEQbaafUMq/RrIse+7cOYlE4uHhgeeGCg4OHj58uI+Pj729/cqVK9Fb/n2MNTU1Hh4eBEGMGzdu48aNAQEB9vb26NYGmqbXrVvHnwUBza1JEMS2bdvweSYmJv4yd9OlS5fASDCTV7ECRvIqqEKe3Y4AGEkHVBkYySsxEpZlWKqRqX2sd5GbsdSZQPWBqepd/1RHu+ue3mZ1dAdUbUuHuHPnjp2dHe6pQT04np6e/AYJNGuCiSeUYiPB0zbMmzevvr4eHxRNhu3p6Yk3lpWVffrpp+ihXzqdbvPmzSRJ8h8kVlZWNmHCBDSuhf8oL47jCgoKBg0a1LdvX/yIMp1O90uvk4uLS2lpqcBIWJbNzc2dM2eOjY0NSZJubm7Jycn8EXmlpaW+vr6S5pevr29BQYF38wsP5SspKZk/f75EIrGxsZk2bVpOTg5q8pHJZEVFRZMnTz5+/PilS5dQ6469vf3333+vUqnq6+sDAwMlEglJkpMmTRI84B41ODk5OREEYW9vHxYWVlFRgXChG5eysrJSUlImTZr0i5ahBEjvtm/f/sknn/zyYLOBAweOHTsWPXAVc+6AFTCSDoAMh+g4AizDaVWcTtvaI4KRtJZYG9KDkVjMSJ4PFGEYltawKrmuLFeTvFl9cLo6cuzzZdc/1XvG60oyWK26DVVlkV3wk8Tx80vRpV3wRNOXPqEUGUlMTAyaRWrhwoUNDQ38M0RGgp4OirZrNBpfX99BgwYVFhai6SMFGoSfKRoVFVVeXj5y5Eg8tWViYuLIkSO/+eYbtDvHcShBSEhIU1MT30hYlo2Pj7exsRkyZEhwcHB4eDiaaiIgIAAJR35+vpOTk729fUBAQHh4uJeXl4ODg6OjIx5HghLY2NgsX74c7e7o6DhixAjUMYSm4p48ebK9vb2Hh8fGjRvHjRtHEERwcPDChQtRe4+3t7eNjc3nn39eXV2Nyo5mvCBJ0svLKzw8HDUIOTo6ZmVl4Tm5165di/IMDw+fNm0a0hqZTHbmzJklS5YQBDFz5szw8PCOv3MSjIQf2LDevQnotJzqGVv9kG2oZGk1x+rnjjPzBUZiJqj2JAMjsaiRMDqmoUb36IrmYhh1bKm+XWS363Md2T2OOrpIm7mfeVbGMkx76qw9+1ZUVIwZM0agAsnJySRJrlu3Ds3tiK+RJp5Qioxk8uTJEomkb9++GRkZgrNCj+cQ/EGP51pA1/Xg4GDBXmi7r69vY2Ojr6+vi4tLbW0tciZvb++rV6/a2tpeuHABnWHfvn2Tk5PRKBA8jqSkpGTYsGETJkyoqqpCmdM0vWfPHpIkk5KScNtPSkoK+pRhmG3bthEEgYwEzeApkUj4CWJiYkiS5BuJra3tpUuXUA7IrgiCCAkJQS0xSPsIgkCjXtBk5CRJxsXF4Q67kpISZ2fnWbNmKRQKBBMLCsdxNE0HBAT8clAEFrdICXB1zFswko7hDEfpAAJMxT1Ncrjm+Feac1/Ttw6zsiccrTHzuGAkZoJqTzIwEgsYib6PRvVMV3FPm3NMm7ZLc2qN+t8T1btc9C6yy0Ud7a45tVqbtot+kMTUFbNaVXsqrJ37IvkQzKeE3vLnin7pJRAlIAjCxcVlwIABhtM3YfngnzDeiHY3fN5YXV2ds7MzkoOEhARbW9vs7Gx0yY+KikIrISEhDMNs3boVPRdeYCRRUVFo0C7/uGhHX1/fvLw8R0dHX19fjea3nyHUb4UOipSIL2do3kx3d3e+keDOIzy5uOBpJomJiXiabdScI7BAjuNiY2NRARENwVmhHNBk2y+tDn5hLb4ORmJxpJBhZxHQFV6h9k/S/yzvnaA5ukCbEkHnHmPK77KqZy89JTCSlyJqfwIwkrYbib6bRqfVu0hNIV2QrE2JUO+frI767Lc+moPTqZ+WaJI26B5dZhRVndg0ggIFtRAMGDAgPj7+yosvPz8/giCio6NRypaMAQccSrBy5cqGhoaYmBj+kFWUBssH3gVNUI3Gqz548ADN2M3/FI0XwcaA5CAqKio7O1sikWRkZKDGkokTJ0ql0okTJ6I+Hb6RqNXqRYsW2dnZxcbG8suXlJTk5ubm7Ox89uxZgiAEJtTU1OTl5YWMBI1fETx0A/U38Y2E/wBVdAL4USCoRHyHyMjIIEly3rx5/FO6cuVKZGQkshaUmD9oFzdToTt++bkJiHXAWzCSDoAMh+gYArpHl9XRbs//XGz+i5E6NF17eauu4AJb85BtqjcxvgSMpAPqCIykPUbCMMo6XWEKlbhKvXfCcxFBo0Z2uaj/PVF7LVJXlttF7vjF13ujk7Teu3dvwIAB7u7uMpmM47iXPqGUf41UKBSzZs3CD+ZAUWvaSKRS6dChQwWtAngcCbo2oyu9t7f37t27UXMIaldwdHQ8cuSInZ0dGqTCNxK0brQFCM2KjYxEMLEHEg5kJOjOI/49xrg4fCPh9zfxTwB/Y/l80HpLZxUbG8tPbCIHwWnjlK96BYzkVROG/DuMgK40W3PCV71n3As/15Fj1Xs+p47Mpx+cZxtrWjoZMJKWyFhwOxhJq41E30dDa3RPb2sz92tO+1M/LVHva24GRC7y7y+pU2vonJ90xdf1fTQqORrxasE6a3NW0dHRRm/05TgONZ/g/g701sQTSgUX0Tt37gj6bkwbCW6tuXXrFi4O2sg3m6ioqAEDBgwbNgy7C7pRaGjzCz3lnC8EaF3QXIHzFzQ84O2oZQUZCb+3RZCgnUYiaJjBmbd0VnzC/HX+jh2zDkbSMZzhKB1AgCnP1Z4JpPZ8LjSSXf9U73XT/LRIk7SBzjrEVuVzVAPHsvxTAiPh03hF62AkrTCSO4GDyhPW6Z7c1N7+UXMhlIr1/C2sd49TH/LQ/PyNNn0v/fASIytl1QqWUhpZtGqW6YS7f2Uymbu7+9ChQ9GF3DCeEhISCILAQyhMP6FUcI1Egzf5fTemjYTjOHzPy/bt258+fZqXl+fn59e3b9/NmzfjO3WRf/D7WeRy+cSJEwmCwC09fCNhWTYkJEQwpAP5VkZGhlQqzcnJsbOzCwkJwSNMOY5Dk50gI0FtRYIEaDhwm40EdT/h+4YwealUmpWVpVQqBTBRAv5G/jrevcNWwEg6DDUc6FUTYMrvas6tpwRN2vh2yMix6r0TqMNztZe30LeOMNJMtqES9+OAkbzq2uE4DozELCNh5OV0Zf7DDX+r2jtDc+7r30Tk11Cm4jy1qTuYynx9o0hjre7pbVp6gy7JNFx0pbf0k6T9OnkrS1Osso6pK2JqHxtd2MZa9tfR4PrmGa2aaahmGqqMLqyyntUocdyw+luRKb0VqRsyr162te23zn81rXzGqhueL1o1bsIpLy8fM2aM01+GFD24y1JKRqtOu5o6fPjfUHeD/gmlHh45OTnoaaLoGhkTc4jV0frBNDptfW31pIlfSiSSrMwMVqf95psg/hRn6JQEmlJSUjJr1izcnTFkyJCLFy/yn1aK/AMN/0Q5/GIS69ev57f08I2E47jU1FRbW1t/f3/+5LCXLl2ytbVdtWqVTCbz9PQUPAwduRcyEtw4dPfuXXREhmEOHDiAH4WK9KJVvTboDAcMGMBvEFIqlfPmzZNIJDk5OUaFg78RrZtoZcE1/ipWwEheBVXIs1MIvNxIfv1JV++doD3tT99N1P+qN9ZwNAVG0gFVBkZinpHInujKcppiZjVFOv82dhXHbuRYbep2VqtiGZrVKOl7Z9R73Uws2hsHWKoR/ZnO1BVrsw6pD0xRR7sbXbTp0YzsKQoFVqvWVT3QpO7QXN5qdNFmH9Y9ycZxw2qamHqpriRTV5hqfKl68JsbsSxDU7on2fqU0iymXsrIK3TySlnpo5qSfGVVCaNS4MQcx+l1R61gGmsZRZWRRSXHIoXPx+hKY2OjRZ62ijKnaTo8PJwgiFmzZt24caOqqiohIcHR0dHJySk/P5/juOzsbHt7+yFDhpw5c0YqlW7fvv3DDz/s27cvMhLceCORSH6Z7mz//v2TJk2ybX61uY0E52lvbx8dHY0ahHx9fQmCCA8Pp2maLx8YEX8j0qCRI0du3LgR5iPBiGAFCLSWQCuMJHKsOuozKtqdiplFZ+xjqgrU1UW3Vtine/Z6sPVzVmHWhcMwmbayIDfw43TPXvfCxrb25MWQHozErMBiZE90T29TcXMMW0fQFu21SBQujFqhzTnWUrLnidN2MU0yltXPSqIry9EkbTBqOSgxlbiafpj8PHN5OX3nhDpujn7iNWMLFfcvfCYcxzEV96iTK6ljS6mji40u2pTvdZX5SB0YRSV996TmlL8+5TEf/Y6nVlOn1uBFk7qdfnyNbZ7rkNWqmJpHmovh1Gl/nIC/ojm3XpsVq58srnnyFVZZT2cf1iRv1pxbb2S5sJHO+UnflsPoJyzStwPVP6EfJmtzfjK60I+uMLKnfOPRVebritL0S9mdxsIb275ZJfnjH3Dri7ur8+3sm4ghy7K3szLGOY9Gn9rb/flQdJTXnFnz53oq68qZJhmjVhQXF6FJXdGcrWlXkufP9XQeM6qm9HF+zg1Hh//3zTp/fQ0238gtaKRBR+H7BNqSk5Pj7u6OT0kikURERKBJ2wwTCwaXqFSqr776Cu3b8eNboY0E1SD8awUEWmck+ptxnNW7XanY2ZpTq9VJoQVrHW/O+88HW8YbqoaZW8BITEcRGIl5RvLsKV1+tzrSTR414YXhI782k2gvbWEba/RNCJom+vFVKnEVdWIFFT9PHTNLsFCH/6W9/SOjbkBGwlTla65FquP+9UKyg9PV//7iuZGcDqAfXUG1yDwro28dURsOy/r1NNTR7tpLW3CV60oy1LvHqSOdWzIk6qSfTnoDzSHL1D7WXNqs/veXLSY+Ml97M5alKb00NNXThSnq/VNaSqz/8yJxtb5ZpdlgGNkT/ZRxLXXf7nalzgQytY/RNZ5V1tH3z2mSNujFyNiiORdE34xllXXNTTU6VqPS3ozRJG3QJG3QXolAiyp5a/Wp0MqTG2U/b9FmxTD62tEP32F1Wl3RNSpjX/WZ8OpzW1SZh7S3j+KFyj6izTvN1BWxmqbnmSvrq26eHvtXxxmuf6+/dhCn1N4+Sued0j26rHtyk23S36Ck7/9idExlvq4wRfcgycjy8JL8/uXap0W/zDf/fC41qpGRlerK7xhfKu7pRyMhS2PZpqam+oontKyMkVcYWRSV7K+0UQDoG7F0WlajMrJoVfruPPNm6us0I0F312tV+tbHLrnoZ/9UVHbdRfaErXnElN/tosvT20zxdV3BhY5c6Mx91NGF6qhfJ67Ev5wvXYn6jNo3uWrT0KI1f5Z+58rKnrDycjMthJ8MjARfnoyugJGYZSSsokJbVXBn7aCyA/O113erD83UGwOeeiRyLHViBZ1/nnn2lFXJGUWlrvS2rjhdmx2vubpTsGgz9+me5uivFs0Dudkmme5Jtub67heSXd6iOR1AxXhQMR76q+mz8ufXGJWcLkyh4uehjwz/1SSupnOP4ZrWleWqjy7Su46xBhX1wemaC6G6yvvP20hqizRXvtP71r6JRhcq4SvtrXhkJExDNX3/nD7nPZ8bX6LdqFNrmIaa5+nritUxHnoj0acfr/ckNIPc8x8CZ+qYj+7xNValf24w8+yp5sp36kMeLerOLhf1/ilMbZHeA7RqRlFFHfNpMXHkWPXB6bqKPFajn5uO1SipRL9mUft1dn/ej9HDkOGf2P1+1Rw3VY3+KcT6bjJp1s2I2X/u23ul8/8of/iH8Ch73aiEr5hy/aATlmEYTZP+zPdPFiZDh9jzOfXTIv2ZNEuGvqSV+dqbcdTZr40u+plsnuawav30/Hrd0ap0ZXfo3OPGl7uJOukNBlla8+Agpkmmqy3Sld81slTcY6of6sc8/XomekFRyY1eXBU5p7Lnv3tjLllyYDH/t7VV6433km4u6Xdz3n8+iVnKNlSZtSgq9GpYea/LLrrHqbq7J7rsQmcd0qZEGGmSNNpO2fEbT62iDrfY6mz8G8T7qnZWAtWO0XXbXZiqfOZZaau+AigxGAm+PBldASMx20ia+//Kz25lm2RMvVR74wD144LfvhW7x+nnjP9xoTYrRlf1gNE06f+qUzewqmfCRa3Q//o3v5ovYzpWq9ZfDPgpm2Sssu755UGtwE/ma26DUbEN1UavHPqNjbUs1YhrmtWo9H+CV+YbuSY1X6iYeqm+YwW5kaaJqSum8382fsHLPa4rSmMUlc97YXRaRlGpTYvSnA82fjVNiaAfJOFxJ2xTvfbWEU3yJn3iM2upE8tfuGzvGa85/w3TUIXciFUrdNIsKmHZb3gFv0T7JmkS1zDPyvQAaQ3TJKMSvmoxsd5IZugvwKh1x6SR1H03ymP4+5I/9D16KLqmpqa2THrrSPiUYR/0t3nr8oohxg7hrN49Tlein0Sf1WmZhhrNmcAXZYvvPc7qf39JF6ay1PPRx9prO9WHZhhXuj2fq6O/0CtjWU5z5rSuPE9zaYtRWdRv3D9FHT9XV3xdn5hlWVqjzY5XH/ZqSUbVB2fQ+T8jg9H3Hlbkaa/tMnRcKsZDtW+S/Lu/FwX8f1VHV7bhJxjt0phzsnjdh7XhTsooV6NHMb7x0Azq4PSuuxyYSu2b1IWXiepod2rvhK656P8y4f1RZ+zLxf/udJ31f8h/cNY9uszWFbfh6wBGgi9PRlfASFpnJBVJO/Q/94yOqZfShSna9L3Ucd9fe1iaexwPe+mHUKRH60pvmTMzsdFasdRGdKp64zHadK9R8Ydi6JtttGq2odpIj0BzNwHbJNP3AiB9ab7m6R9uXJFntMeBqX7INDx/ssxzb3j2tNmN7ujKcnWl2S90bTxM1pXfaXYj/dga/VH0TUdZ/I4P+v5Z+s4J/bCS20fp++d0pdnoriL9adMa3eNUOjeB36WivXVEm7lfe/UHbVoUfeeE/uRR94dOSz+6os3Yh/t38Ip+mMvPQY/jAz2nTSRJEo/5GPx/+59f767+aamRLqRTa7Rpu5i6Yv1pMzqGUmrSdqljZxv/ed31T/XB6XRJJqvV93xxHKfNjqPivYwnjhyr3u2qufKdrvJ+M5NmI0na2GLi5oF4uoKL+sQsy1JK7dUf1FH/NJFem3kAtTPpn6Tz8BJ1arWJxBUbBtafXNuGn+DnRpL1Y/2WYcodo0wcAj4CAhYnoDn8L03Cst+W+LlUtJuJjmyTJ+Dc9MOY2vC/VER8xlTksdBGYqkLFS8fMJJWGwmm1zwAU0rn/6xJ+V7/R/+Bac8DPeqf6gNTNRfD6buJuuYnJnTKBCT4PK1jRX+bMaVkVHL9olHibi9UOr1LqRuef4rSKOuZZ2VM9SOmtohR1v3WPcGyjLqBqX/CVN4XLHpVKk7XSTNZWtPU1JSfn3/t2tXq8ifakht03mnjy8NLTG0RavNo9j9GJ83S3ozVXvrWyHJlmzZ9r75d6te+En0vDBrwe2Gj5nyI5nzwC8uFMP0Y3gb9A4T1utM8rvl5grPrNImrqRPLf1tO+ml+DtKV5T43Eq2KzjulORP4W4JjS38bqxQ7mzo8V39nY3M7k76NpPj6/8/eu8BFceb53vU5t505O332bL/nzS7n7E7vO3tc1vccj8fx9ZBPWE9k9CiJjJeMmDgJBiMOiUl0iCYZjcYMJEhMNI7ZRUSSaADxhmJijCDeEpSIKOIFUMJFuQrItaWrum5vigcey+oLJdXdoctff/qj1dX/5/b7/6vq2/96noI79v49A9X8p7ufRndvmnxr3X9vP7B65ERSurd9w6PdG//JnhbFZj0/St5cdqxyrTq4YnS+2byV3FdrnUf/6DyaNBrf+UnOgmRn4ftuQt1t/P8YO/kLOcK1w/TNF6Vxu5ew9A+gapKvnj6mPcl+/qwjd3nz+kerVtq+3xQldTeO7FhAjsT79QhEMnIiocqKd7v46lPc14nKtFBlztTQTNIdz3D5SUqyxH6HrjqhpbABBYgCyr0tR7fY16ZdRN17m8wLpkJJbN+gTVu1cOvCfSu6a88q05hUf8dRtN9RklJDC7/5q4fvrRg/udl5Nl3oqKWTWxXcqTp2z0C1vLzvwOsN74y79vv/0pidMLKzsNTT3Ff+ZfXq0Jtr/987Gc84T340Wt6n/6Tk4b7/ZpS+a8+IbTeUGZS9t0fju69NdnTTB4jRKB3NGw+61oZNe4JN/zW787fOguT+y1+WrfzHs8//BKt//ediEIkPiER5DImjV5mxcbOEK1h/b4ZE2hOOT55id73AHV7DXz0s9jT7z5GoOXgVGLy5NvCgOfK4uXv/3v8ca4VdiJlyJ+7uvSfdOXqVJ9woU4KU217kpWSVyGQm8kC8/m71U/WUpWED85mGjDnl6TLunrzXU/bFeWVm68+MzWwtKH0l5MFmtuqcAGvI7Lbk6JHZvlH65uxK8k/g7sWD2yD5kXbKIi+LguZR60PRN0r/fzAi2TZTSSUWfyLWn5O6mxzNlRdW/AOeR+JX14JIfEAkg+d0UZS4uwOrIXKdJzYpkwmUlbcDE7Iy5rK5y53f/AtfVaD8eUm8oEDwKPCjrf4NHonQ02BRQBeRbI1kt8/ivniTL84QqgqVuVacXZYkPLM1AF4GkfiMSKi3lNR6a6Xyd/iOrGN3xytLXrcO3Mf5NJo99IbY/j21xAYUGP0KgEhGv4/QQ50KDEsk7GfR3L6XncfWC1XHxO5GWZV0BJHoFNmIGYjE90RC/aHcm792hN3/ijK/ZNtMBU0ynxNblWeZ4wUFgkUBEEmweAr9HFYBT0TCbo1k06McGXOcR94WKvNl3uF6NwpEMqy8xg1AJH4kEolnxb42oekyP/C3grlj6/mrh8mTRo17DjVAgcAoACIJjM5oJQAKeCSSHc84T3woVB2T2m4oN9ZVqRHaKxAJlcJ/GyASPxLJ4DpMgRe7GoSGC0LDBWXC/NAf8vWfU1EzFPChAiASH4qJqn5cBTREwqY9we1/xXn8Q6Fsn9hULjt63LII6TOIJAC+A5H4l0gC4EI0AQX8qgCIxK/yovJAKiC1VjgLUxzbZ7OfzuNy4pTpq5dypY5aPWuYQSQB8BSIBEQSgDBDE0GsAIgkiJ2Hrt+vgNR1iz+fpeDI4beE6ydkp8NLUuT+ojKIRCOIPz6CSEAk/ogr1GkeBUAk5vHlQz8SiXfIva1i82Wpo0b5Kx/u5ot4EglE4kkZH+4HkYBIfBhOqMqECoBITOjUh3xI9z94UKcYIBKdQhkxA5GASIzED8qaXwEQifl9jBHqUABEokMkoyYgEhCJ0RhCeXMrACIxt38xOp0KgEh0CmXEDEQCIjESPyhrfgVAJOb3MUaoQwEQiQ6RjJqASEAkRmMI5c2tAIjE3P7F6HQqACLRKZQRMxAJiMRI/KCs+RUAkZjfxxihDgVAJDpEMmoCIgHLHcUbAAAgAElEQVSRGI0hlDe3AiASc/sXo9OpAIhEp1BGzEAkIBIj8YOy5lcARGJ+H2OEOhQAkegQyagJiAREYjSGUN7cCoBIzO1fjE6nAiASnUIZMQORgEiMxA/Kml8BEIn5fYwR6lAARKJDJKMmIBIQidEYQnlzKwAiMbd/MTqdCoBIdAplxAxEAiIxEj8oa34FQCTm9zFGqEMBEIkOkYyagEhAJEZjCOXNrQCIxNz+xeh0KgAi0SmUETMQCYjESPygrPkVAJGY38cYoQ4FQCQ6RDJqAiIBkRiNIZQ3twIgEnP7F6PTqQCIRKdQRsxAJCASI/GDsuZXAERifh9jhDoUAJHoEMmoCYgERGI0hlDe3AqASMztX4xOpwIgEp1CGTEDkYBIjMQPyppfARCJ+X2MEepQAESiQySjJiASEInRGEJ5cysAIjG3fzE6nQqASHQKZcQMRAIiMRI/KGt+BUAk5vcxRqhDARCJDpGMmoBIQCRGYwjlza0AiMTc/sXodCoAItEplBEzEAmIxEj8oKz5FQCRmN/HGKEOBUAkOkQyagIiAZEYjSGUN7cCIBJz+xej06kAiESnUEbMQCQgEiPxg7LmVwBEYn4fY4Q6FACR6BDJqAmIBERiNIZQ3twKgEjM7V+MTqcCIBKdQhkxA5GASIzED8qaXwEQifl9jBHqUABEokMkoyYgEhCJ0RhCeXMrACIxt38xOp0KgEh0CmXEDEQCIjESPyhrfgVAJOb3MUaoQwEQiQ6RjJqASEAkRmMI5c2tAIjE3P7F6HQqACLRKZQRMxAJiMRI/KCs+RUAkZjfxxihDgVAJDpEMmoCIgGRGI0hlDe3AiASc/sXo9OpAIhEp1BGzEAkIBIj8YOy5lcARGJ+H2OEOhQAkegQyagJiAREYjSGUN7cCoBIzO1fjE6nAiASnUIZMQORgEiMxA/Kml8BEIn5fYwR6lAARKJDJKMmIBIQidEYQnlzKwAiMbd/MTqdCoBIdAplxAxEAiIxEj8oa34FQCTm9zFGqEMBEIkOkYyagEhAJEZjCOXNrQCIxNz+xeh0KgAi0SmUETMQCYjESPygrPkVAJGY38cYoQ4FQCQ6RDJqAiIBkRiNIZQ3twIgEnP7F6PTqQCIRKdQRsxAJCASI/GDsuZXAERifh9jhDoUAJHoEMmoCYgERGI0hlDe3AqASMztX4xOpwIgEp1CGTEDkYBIjMQPyppfARCJ+X2MEepQAESiQySjJiASEInRGEJ5cysAIjG3fzE6nQqASHQKZcQMRAIiMRI/KGt+BUAk5vcxRqhDARCJDpGMmoBIQCRGYwjlza0AiMTc/sXodCoAItEplBEzEAmIxEj8oKz5FQCRmN/HGKEOBUAkOkQyagIiAZEYjSGUN7cCIBJz+xej06kAiESnUEbMQCQgEiPxg7LmVwBEYn4fY4Q6FACR6BDJqAmIBERiNIZQ3twKgEjM7V+MTqcCIBKdQhkxA5GASIzED8qaXwEQifl9jBHqUABEokMkoyYgEhCJ0RhCeXMrACIxt38xOp0KgEh0CmXEDEQCIjESPyhrfgVAJOb3MUaoQwEQiQ6RjJqASEAkRmMI5c2tAIjE3P7F6HQqACLRKZQRMxAJiMRI/KCs+RUAkZjfxxihDgVAJDpEMmoCIgGRGI0hlDe3AiASc/sXo9OpAIhEp1BGzEAkIBIj8YOy5lcARGJ+H2OEOhQAkegQyagJiAREYjSGUN7cCoBIzO1fjE6nAiASnUIZMQORgEiMxA/Kml8BEIn5fYwR6lAARKJDJKMmIBIQidEYQnlzKwAiMbd/MTqdCoBIdAplxAxEAiIxEj8oa34FQCTm9zFGqEMBEIkOkYyagEhAJEZjCOXNrQCIxNz+xeh0KgAi0SmUETMQCYjESPygrPkVAJGY38cYoQ4FQCQ6RDJqAiIBkRiNIZQ3twIgEnP7F6PTqQCIRKdQRsxAJCASI/GDsuZXAERifh9jhDoUAJHoEMmoCYgERGI0hlDe3AqASMztX4xOpwIgEp1CGTEDkYBIjMQPyppfARCJ+X2MEepQAESiQySjJiASEInRGEJ5cysAIjG3fzE6nQqASHQKZcQMRAIiMRI/KGt+BUAk5vcxRqhDARCJDpGMmoBIQCRGYwjlza0AiMTc/sXodCoAItEplBEzEAmIxEj8oKz5FQCRmN/HGKEOBUAkOkQyagIiAZEYjSGUN7cCIBJz+xej06kAiESnUEbMQCQgEiPxg7LmVwBEYn4fY4Q6FACR6BDJqAmIBERiNIZQ3twKgEjM7V+MTqcCIBKdQhkxA5GASIzED8qaXwEQifl9jBHqUABEokMkoyYgEhCJ0RhCeXMrACIxt38xOp0KgEh0CmXEDEQCIjESPyhrfgVAJOb3MUaoQwEQiQ6RjJqASEAkRmMI5c2tAIjE3P7F6HQqACLRKZQRMxAJiMRI/KCs+RUAkZjfxxihDgVAJDpEMmoCIgGRGI0hlDe3AiASc/sXo9OpAIhEp1BGzEAkIBIj8YOy5lcARGJ+H2OEOhQAkegQyagJiAREYjSGUN7cCoBIzO1fjE6nAiASnUIZMQORgEiMxA/Kml8BEIkeHzscjjVr1kx395ozZ05GRobdbtdTz4PadHR0sCyrKXX06NH4+Pju7u68vDx3PZoeGxtbUFDgWlBTj8GPNTU18+fP37Jli8F6fF7crSzDumnERPKnDe/Onzvr+0vFUk+zs6Xq0lu/PBv706vrp/t8XCaoEEQCIjFBGGMIflQARKJH3P7+/vj4eIvFMnnyZDUEREREWK1WhmFmz57d2tqqpyqdNoIgpKWlzZw5s6OjQ11EEIRVAy9BELKyshjPr6VLl/qJk0h/qqqqxo8fn5iYqO7eaNj2IosXN42YSP741uvjx/23ytJvQCTDeh9EAiIZNkhg8FArACLR435CJOPHj6+qqtLY2+321atXMwyTnJwsCILm2xF/JC3OmDFDQyTt7e2RkZGHDh2SZZlcerOystStSJJUU1OzYMECi8WSl5en/sq326OcSDSy2O329PR0i8Wydu1at24Ckfg2PNzWBiIBkbgNjJHs3LJli/rXoet2XFxcZ2ennqq3bNkyf/78mpoaPcZ6bEgC2bVLa9asqaur01PDA9n4vP8P1LpvjUEkevT0QiSyLJNr88yZM3XGv/4WXYmkqKho4sSJBIzcEgmp/OLFi2PGjFm6dKnD4dDT3AhsgotIZFnu7OycOXOmq6Rk7CCSEcTAgxYBkYBIHjRmPNonJiZ6zhAr33g61F1rTExMdPtz09VS5x5ycnTbPZvNdurUKZ316DTzef91tusPMxCJHlW9E0lbW9u0adM08V9XV5eQkGCz2RiGmTp16t69e/v7+2lbW7ZsiYuLa2pq2rp16+OPP05s9u/fTyZ/1NTUREdH22w2q9UaERGxZs0aChabNm2KiYnp7e31lCMhTZAj4umnn+7p6SGTYDQ/GDQ7S0tLp0+fXlxcvHHjxr/927+Njo4uLy+XZVmSpEuXLi1evJh0Jjo6+sSJE6IoUg5LTEy8fPnyokWLrFarzWZbvHjx5cuX6TBlWbbb7ampqWSMDMO42vT392/dujUsLIxhGIvFEhkZmZuby/M8rYRl2f3790+dOpUUT0hIqKmpkSSJGmg2PIFad3f3vIFXd3c3LdLd3f3xxx+T1v/uL//dSxP/zZk/zpB67rtwVJZ+k/Dy72w//xvFTVMm7/t8u6Otjtpo7tp898b/XDrx3/zTP/xfOTk5RCjaFjZAJPcFFo0h1w0yI6k5/2MEjR4FvJ+gh63B51d0cv6Nj49Xn/R5nj979mxYWNi0adOam5uH7ZV+A5/3X3/TPrcEkeiR1HvA5+fnWywWdfidPn06dOC1evXqlJSUuLg4i8Xy/PPP01swiYmJkydPXrZsWWho6Ouvv04+MgyzefNmSZJaWlo++OCD8PDwsWPHrlu3bteuXRzHybLc29sbExOzadMm0mdPl15ZlsvLy2mOhHReA0yanUVFRQzDxMfHP/LIIxMHXlVVVTzPb9iwwWKxREVFvffee4mJiZMmTbJYLNnZ2ZIkkYNu/PjxNpuNGMTHx1ut1vDwcJqY5Hl+9erVFoslLi4uZeBFbCIjI9vb22VZJgZWqzU+Pj4lJYXoYLFY8vPzyRjtdvvy5csZhomOjiYGkyZNstlsBw8e9OQ4T7JcuHBh7NixSUlJlGZu3Lgxffp0i8WyYMGCd9e++dzEv/wPf8b8P4/87NSRA+QaIXY37c/MsP38b2w//5uVy15a/85b0XN+rXRmzq9bqsuJjZpIemovvTg55N//W2b1rH9UQ5Wnrj5s+0EkIBK/xLz3E/SwTfr8iu6WSEg3kpOTGYYpKioatlf6DXzef/1N+9wSRKJHUhLwY8aMycrKOjn0qhh4bdq0yTbwoqm4zs7O6OjosLCwiooKUrkkSYcPHw4JCUlPTyeXQ5JxjI2NvXPnDrFpbGyMiIigt340xEBsqqqqJk6cSIPZ06W3ubl5yZIlDMPk5ubKsuy2Ks1OQiS0zyzLiqJ47ty5kJCQhIQECvotLS0zZ84kiE8OOgooJKGSnp7OMAyZ5iLL8vnz5202W1JSEr08S5K0cePGkJCQ0tJSWZarq6snTpyYmppKKYE0ERsbS6bl5uXlWSyWlJQUWsOdO3diY2MjIiIaGxvd+o7I8txzzxEG+qHsW2+9NWPGDKvV+sILL7S1tZFS/f39r7zyis1mO378uCRJ5K5N5uw/G//zv5w2ZXLT9TKpp/n6xaKw/++Xs2fOaKi8QPhD6Gr8PP1ji+Vna99I4DsbpJ5mSiSOtrqkVQl//u/+1arH/u2ld6e57dtDvhNEAiLxyyFATmee7ryQLGtkZKTFYmEYxmq1RkdHnzp1ip50NFf0/v7+999/PzIyUp3n9J701ozKC5Fs2rSJnv5Iqf7+/l27dqmTwPQnHa22qqpKnXKn6XRioKf/tKpRvgEi0eMgEvBubwsyDDN37tyysjJaT0FBAcMwGRkZdA/Fgnnz5pFbBoRI6JVblmWO4xISEiZOnFhdXU3tNYmNQ4cOTZkypampidRMLr0TJkxQz6CaMGEC6Sdda6OBD1JWs5MQyapVq9SzPgnNFxQUqAdSVFSUkZHR3t5ODrq5c+eqZ8+Q3ExycjIpUl9ff+jQofr6enUNRB8ydlLJqlWr6FplSZK6u7vVOSHXHGdRUZHFYlGrp66fyOLqLKvVunz58lu3bhFj0jSd6Ernkbwz738wDJOft1vqac7c/s8Wy8+OHdqjTqv3NN6IeWbelMmPNVZdpERSfvb4e+tWWX725+/N+rui53+C1b9qj9BtEAmIhAaDLze8EIkkSeR3EsmypqSkrFy58ocsqxpf1Ff0/v7+d955x2KxfPzxx/Rn0LBJb81gPBFJV1dXTEwMTRHLstzW1hYTE8MwDMkzr169OjQ01Gq15uTkEGCSJCk3N5f86l25cmVKSkp0dDRJGtPlncP2X9O90fwRRKLHOyTgaY6ksLDw/fffHzdunM1m+/LLLylqk6rIhfyHyRNDyZTB/5csWUKPgsTERA0oy7Ksiav4+Hg1kZB1vwkJCeRqTeeRaC69EyZMWLp0qfp5JBr4IJ3U7CREkpaWRtUgBpSQ6H66QWFCDTFkp+uSYJ7n29vbS0pKsrOzyQFF1sKQfBKZIPLqq6/m5+er+YZkUObMmZOfn68WMysra8yYMa6tkL4RIklPT+9QvSoqKtLS0kJDQ+lNJTJkuiSHEkn2K//0w4yWjcnvUNogK3vVUPLHt14P+eu/On/qKLEZ8/e/eGrWkwzD/HrGr04l/A88j4QGiWYDRAIi0YSEbz6SsxU9vaorraurCw8PX7JkifpZCLm5uepcLj3zsiybnJxssVgyMjIojuhJeqtbpJPswsPDk5KSSKr2vffee+aZZ0JDQydNmlRcXEzsBUEg98UzMzPppLPGxsbZs2ePHTv26tWrsizfuHEjLCxs9uzZNCcsimJmZqZ63aD3/mv6Nso/gkj0OMhtwLe2ts6ePVt924JU5WUOOD1kaAipW1fv1BCDLMtk3S+9glIiUe9R10a3XatyzcFoLs+uBrQ2uuEWPjQ7RVE8depUTEwMeWoLwzChoaHz589nGIZ2u6Oj48MPPyRTgMnk1oULF5LpsaQ2DXLRj96JhNZPOyzLMjkRkfQVAZfTp08TA0okR9781fhx/+2Pb71+t7UmflHMtCmTb9dcUeMIyZ38MMv12/w8QiRKJvgv/3Lur59gGOb1//M3Z5AjUYuu2gaRgEhU4eC7TbcnaFJ9e3v74cOHr1y5om6N5HLpjDxy5r18+TLBETUfyLKsJ+mtrpwSCT1VqTeioqLoDSNyTqe3qGklpEXyAzErK8tisRQWFtJv6YxCmjD33n91wdG/DSLR4yNPAV9RUREWFqZZz5WYmDhu3LjKykovNavhg5qpd7piRGlp6fjx48kSGFKEXFPdXnppnZ7Ygiw8oTkYT0Qybdo0OvFCXSc96DRYoCGSnJwc8li51NTUsrKyvr4+WZZd2yJTXKuqqtLS0mbMmMEwDMlkkNrWrVunyUJpeqL56EUW0jTp8+nTp9VgRImE5kjE7qZ1f1hBn36mhhJNjiTkr/9qz45tPY03Fj83/z//xb/7JOrPcNdG4xTyEUQCInEbGEZ3ejpBq+sVRbGzs7OsrOzAgQNkrQE9eSUmJo4ZM+app55iGGbWrFl0AQIprifprW6InhwXLVrU2NhIM7UNDQ2HDx+Oioqij4rSnC5pJWQ/yYerrwrUgGTUaZrde//VpUb/NohEj4+8BDy56M6cObOlpYVURa6ImukXgiCUlZWRBSyaGzS0A+rYcyWStLQ0Og1F3dCwROJwOJYuXUrhg5RtamqaMmUK3emWEpKTk8eMGaNmIFmWCwsLIyIiDh8+7PZoUu/0JFpaWhpFAbvdXlJSQtbdkI6xLLtq1SoyG538hKCrnalQ7e3tRUVF6vs79CvvqSNCIeREVFpaGhISQn8mUSIh80jycj6Tepo3Jr9D785QIiHzSB4Lm1R3pURzZ+fC8UO/+E8/+dXf/eszb0eou4RtogCIBETil2PB07mGPsDg1VdfpWlYm8321FNPhYSEqImEzHidO3cuXfFIO6on6U2NyQY5D6qXX1KD2trasLAwkhchp92dO3fSb8lGR0fHjBkz4uPj79y5Ex8f7/Z3IbnMkGUOpIdWq9Vt/zWVj/KPIBI9DvIS8GTJBsMwGzZsIDMqSDTGxMR0dXXRyisqKsaPH08eEKKfSGgokg6oV656v/TSdslGcnJySEjIuXPn6H6yYtk7kZC1NuqVMjzPv/HGGwRT1PBBq1XvJH0OCwurra2lBmQpDSUS0gRdgkROIKmpqRaLpbi4WBAEkkY9cuQITZPwPJ+UlGSxWA4fPkyrVW94ypF0dna+9NJLNAPa2dk5d+7ciIiImzdvyrJMiOTogp9MG/fX4Y9Oqr18Tupp/u7EVyF//VerXntV/QASsnPFqy+SnXStjdTTzDVXrn3y5wzD/CEqlHZY3beHfBtEAiLxyyHg5QRdVFRks9nGjRv3/vvvFxcXd3Z20kcXqIkkJCRk7969vb29S5Yssdls58+fpx3Vk/SmxmTDC5EQ2iBn3srKynHjxtFu0EpI8YSEhB8m/K9bt47e7KcGrjkSL/1Xlxr92yASPT7yEvCyLBPasNlsBFglScrOziaP8SgsLGxtbS0sLJw+fbr65o46HUI7oNmZmJhosViWL1++a9euGzduPPbYY5q8i6dLL62QbhQWFloslkmTJu3evfvkyZPr168PDw+PjIz0TiQsy65YscJisbz77ru1tbUNDQ0bNmywWq0rVqxgWVYNH7Qh9U5JkjZv3swwTEJCQnV1dVtbW2FhYVRU1IQJE0JCQsgPA7vdHhsba7PZ0tPTGwZe6enpNptt4cKFPT09siyTyTpWq3X9+vW1A693333XYrHQlUS0abpBZPG0BOn3v/89Xcx86tQpm802adKk7Ozs+mvnd/7250/8/b/+i3//b3d9mip2Nyl/p+bOrfXvvMUwzIJ5c745mtdSXZ6b9cmkX/7P8Ecn0emuaiJxtlR989r/+NXf/ev//B9/oj6n0b495BsgEhCJXw4BLydochqlj0wgzZOJGhQF1Gfe8vLysWPHRkdH0xwsOaFoTr6apLdmVF6IRP08zfr6+scee0y9WkHdPZK/dV0tTOeRPPbYY2Qdo/f+a/o2yj+CSPQ4yEvAk5/1mZmZZEEWCWOe53NycsaNG0enNE2ePJk894I0pw4h2gHNzqKiotDQUPI05P3799NpTNReP5HwPJ+WlkbTlmS6d2JionciIZG/du1aOi913LhxqampZNK6Gj5olzQ77Xb7mjVryFMAyIKazZs319TUTJs2bdmyZWTF740bN0iukWhlsViWLFminrxy69atRYsW0UqsVuvq1avpc1xo03SDyEKVJxuuS5CI4y5cuBAVFUWNw//mX+Um/G+CI+Q2jaOtLivjX0LH/P1Q93725u9fVs911RDJpbd++UnUn/3n//gT9TmN9u0h3wCRgEj8cgh4OUGTZY3q/LDdbifPa3JLJHS1MHlaJZ0U4j3prRmVJyLheX7nzp10mQzLssuWLRs7duyFCxdoDWQnzdOQNLL6AQmyLJOd5KehJuXu2n9ac1BsgEj85yYylaqjo6O7u3tkOXxSQ39///Xr18vKytTrbEfQbZ7nOzs7R9AZjuM6Ojo6OzvpCrUHav2HG1ukOF1P51q8r6+PzACjCQyNDamko6ODLn7WGIz4I3kCSuP1slOv/Nczz/+kcuMsOmWEbjjv3LpTX9Fed/Vuaw3d6bpBnv2N1b+efAEiAZF4ig1D+70QCXnG4oIFC8rLyzs6Os6dO7dw4ULyqGk6Z17zW5As96VMoCfprek9IZIf0ubTpk2jT4uaPHky+V0VHh5OnjpFEuxhYWE/PINky5YtDQ0NV65cWbly5SOPPLJhwwZyuuR5PiUlRcnTLljw7bfftra2HjhwYNKkSeHh4fTvvnrvv6Zvo/wjiGSUOwjdC4wCdGarWyJxhQ+3e0Ak3p0FIgGReI+QEX7rhUh4nk9NTaVpXpJivXnzZmxsLH28o+aKTp82TfOcwya9Nf0mREJTr2TDZrPNnz8/IyNDs5anrq5u4cKF1PgH2jh27Jj6xx/LstnZ2SRhTh6Q8Oabb6rTyMP2X9O90fwRRDKavYO+BUwBEEkApAaRgEgCEGZumiBpXoMpVuNJbzc9G9pFssReEtEkxd3R0eEpjTxUU3D/DyIJbv+h9z5SAETiIyG9VQMiAZF4iw98BwVAJIgBKEBX/56N/Snu2vgvHkAkIBL/RRdqNoMCIBIzeBFjMKwAciSGJRy+AhAJiGT4KIHFw6wAiORh9j7GThUAkVAp/LcBIgGR+C+6ULMZFPiRiUQSJadD6qgRGy6It0olR7csCmaQFWMINgVAJAHwGIgERBKAMEMTQazAj0UkkijITofU1ya2XHMWpXEHX+MOviY2XpJY5Y+x4QUFAqwAiCQAgoNIQCQBCDM0EcQK/GhE4ugRb5Y4T29h97zI7njGsX02u2MBfz5L6rwVxGqi60GrAIgkAK4DkfifSCRJ5u6Kt6vEpnLJ3iELzgD4FU1AAV8pEGgicfZLd+rF68f4M2ncl6vZzBjH1khH6nR225Nc1kKh4ojUe9tXQ0M9UEC/AiAS/VqN2BJE4k8iEZzS3U6xtVK4Xuj8NtV5YqNQflA5n0rSiB2GglAgwAoEiEhEXurvkm5XCTdO8uc+4w6+xn4y15E63bF1BrttJpu9iPvyD/y3/yK1fy87HQFWAM1BAaz+DUwMgEj8QiTKLXCelXpbhe9PO4+8zWYMnFsHTq/izfOywAfGu2gFChhXwO9EIomywCkHS20Rd+Rt9rP5CoiQd9qT7Cdz2ayF/PlMsa0ac1qNexM1jFgB5EhGLJ3+giASPxAJz0pdDcKFHO7LVWzWQjZjLpv2hHKGTXvS8clvpOYryJHoD1BY/ugK+JdIJFHqbhAu7Rs4WJ53ZMx1kIMldbpj+2wlL3L5kNR2Q7ndybM/uhTowMOsAIgkAN4HkfiOSEResreL9d/xF3fzp//E7X+F/eSpwZ966VHsvpedJzcJF/dIfW0B8CuagAK+UsBPRCI5esXWa/zlPOc3/8zlLnOQezQDqRH2k6e4Q6/zxRli9SmpuwmpEV+5EvUYUQBEYkQ9nWVBJD4gEol3SL2tYvNl4eqX96Wd055gP3mK3f077vBqvmyf2F6Dc6vOuITZ6FHAx0SS9Zrk6JE6aoTqk8o6mswYx7aZBNzZrZHsjmfYPS9y+e8KVcfku3eQTRw9YYCegEgCEAMgEl8QSdct5/ksNnsRWRQwmBdJnc5mzOEOvS58/43U341zawCiGU34QwHfEkl95nKxvpjNW+mgGcShWSNsepTzxIdiw0WZ5/wxENQJBYwoACIxop7OsiCSkROJ1N9FnpfAHXqdzVzIpv+asohj+xzl3Hq9UGyrVlYQYCqrzniE2ehTwDdEcuXoxWX/5ftV/7Vr+zxuz+/umy+SOp3bv8xZ+D53NMl5/AP+zDb+fBZfmq15i/XfydxdWR5Yp8b2ibcrhct5Ghv6Ubj6pdh0SRIHppBLksT2CZUF/MU91OC+jbJ9Qs23NH8pcXbx5jnh8sH7bFT9ESq+ljpvDmKTJMqcXajM92h8+ZDYUCpx9kHH8qxQfZIv2+fevmyvUFmgPAKOLMcTeamnSbhxwr1xabZwOU9sr5addwcqH3jKQM23Ho3Lc4XaIuWht0Mv6XalUHHEo33ZXrG7iT6tQOppEb7/xqPxpf3i7UrJ0TNYtyRKrZV8+QH39hdy+PKD0p16+jtNulMrVB1zbzygvNReLQuDnDpwc/ycF2PxxnGpa+ihNZIotlUrPbmwy12RXZ63mgwAACAASURBVHz5AWXStCQOqeLxfxCJR2l89wWI5MGJRFnTe0dQ5ovscR5bz2Y+R9POylMTsmOdX63lz24Xb52XkHb2XaSiph9LAd8QyaUvr/8htC3lf/VvHZjlTfIi22ayO55xHksRrn7JX87jDq7g9r/K7XvZ7ZsvzpDu1JELpNR1i7+4h/viD24tlZ2HXnee2SbzyjphSeCkrgbuaBKXu8ytPZu7jP/mY4ntU5bIybLU2+I8vkF5RKyHnjiP/lGo+FomV19nv3j7hvNYsidjLm8lf3qL1Nsy0BNe6mt3Hv+Q9dATLnc59/U7YvMVeYBgJO6u+P1ppTMeesJ98Qe+PFfqUSqXBad0p06ZlOPJ+ECC82iieKeOBtIwGh5MEGrOSPY7xF6oPeM8uclj5Xkr+Yt7xI4axVgSpZ4W/uJe9sDv3dvvf4U7+JpQ8600tJBbrMrnDr/l3nhgOHzF11JfO+mJ2FimPKvG0zD3vez8ao1QfYoYS06HUHWMO5DA7XvFtQi772XuQIJQdUxy9hN7L/+CSLyI46uvQCQPQCTla37Z+tUH4u0qoaqA++JN9tN595IiqdPZtCeV0+vpj5W0s+BU8F/klUOO7fP4Jr/hqDMFp0dLtk85var+oockOJXTlqfKObtiQF/KamSvPVEby7Is8h5rZvuUB0Koey4KEmdXfti5fXN36c8spTtEFtZzz3nHfb9XBn6Duq+Z7VPOI+qeSKLMc8rvUbc9UTRUrdeQJKUh511PxgOV3/cnVBRveqqcs9PT6+AwBc5L5bLrGdBzqCgjUiJK9TOOd0ieNOTsEnf3PmPBqTTnSRONsSwrKqmMey4fPbf4Z+cW/6z+09+Jbd9LnfVSd6PUo/fAIZZ9Fw/eemd818Z/uu+QyZjL7nlRqCmS+tqFmm8c22fdW2gzdCuH2nNfrRVvniciS7ernCc+ZD+Lpt9qN9JncV+8STITkrNfaq1ksxY6ts7QmpFWtkayBxKkvjZp4Fe4eKeO3fWC+meGphSX/byCR3blAin1dws1Rezu32ls7n1Me4LNWSJ11CpRwXNS5y12/yvs0NSZe2aD453h2PGMUHmUXH0lRw9/PtNb5Z/+xnl8g/KMlgGviQ0XuS9Xae4d32si7QnH9tkK7gy9nMeS2W1R9ww0mqfP4ssPSF0NxJwv28fuXerRePtsZ0Gy2HhRMRYFsemys/B9j97cGulInyVcOaSE2cCLL85weOlJ6nS++JNBDWVZuH7c+eUfPPYkdbrjk9/wZftIzQMaZjnUHKwZ5tYnlAcB93cRey//gki8iOOrr0Akek+szuZrlesmdeW8rDzTevtsZSnv/Sc4dsczQmmWcnYYukZK9g7l8Wjff+PpLfe13btyDPyw8GSpTEa5fV192Eh9t8WbJULNt26K1Hwr3iyR+u492nLg2VPX3VgO9U35mUUveJIo97V5MRabryqrMemrv0u8VSrUFrkvUn9OpBlU8kvO3i7Ufefe+PtvxNvXB5LzA7VLkuzoFWrPejRuvnLfEzx5h3SnXrh53qN9axWlOklwSo4eoeGCR+PmK5Kj954soiC2Voh1xW7txbpisbWCVq7EQHej6KXyxkuKMX1WniiIzVfd1qzsvHleeXT6wC9+orp4+7pY715Dse6s2FimQAl5SaIy7bqp3GPl9ecUwdU9aatWG/eeTqtI+NuKhL9t3h4jXDsi1peI7TUPTCSXv778+583/XH83bQn711Lts5wbJupQEnZXr7ya/ZAgnI3R3PBGProPLZeuVcycHApScobJ9jsWE/G3P5X+PKDgzdWBF7uauD2LmXTPVx902dxX70tc/3EfZK9gy/5nN21yGPlBxPE5suDv6qdDqn9e3bfy56M2R1PcwXvid2NijckSWZ7FZbKfM6tPZv+a3bPi+LtG4Po7Lwr3jjB5a1wa6xkZHcuEC7ulnqalcpFQbrbxZ/c5Ng+2719xlwub6VI8GUgNpzffeZFQ8f2OcqdsiFoEGu+5Q6vdl8zgYCSnYNsJElSfzd/bue9xYZDThwsvn0Wt/9Vsa6YHi9KhswL1aVOFy7lykPnHLHzpkIwmjpVH53H1is/C8mL5/jyPPaT37gHta0z2E9+w5fn3fdbZbCk9j8QiVYRP3wGkegjkq6bXM3Z2x/+77vb5zjSZ7k/GLZFcbt/J1wvHLqtKytJ0YMrXFOFdI9w5QtlcePAS2gsd55Jp1+52chbIVQVEGOJtQsVX3O5y5Sso8tb2Zm7TLnbzQ7evVaSOnneeuI8ky7eujBYeXeTcOUL12rv7Tn4Gn9xDzGWnXeFumLuwHJuv5ukKLfvZXb/q/x3nw5cS5R8g9hR6zy3g/UiS+H7wo0Tgz2xtws3TnjJn3MHEvhzOwZ7Isti+/fKnB5PKfF9L/Ont4jNV8lDP6XuRv7ibm+54qOJwtUviYaSo0dsvuLMT2I93FZg97+qXDJ7WmRRSU1JdzuVO3q5y++Jdr+bnAXviU3lg5l/tldJLB9N8mTM5i5zHnl78Foy8GxT58mPPN2DUG58fPGm2Fo5dFVzOIu2cp7y5wM3OPhLudLgJVMU224of9ZO1dv+zIV3Njx6Z8OjvVujuL0vcbnLhepTD0wkVwtKlv7VpaX/qfmzxfx3nyq/+7cPHkfs9llszmIlr5673HkmTaj4Wqw94/qW2m4MJJYG5pGITgX3Gy64mg3uabqs3CghkC1JEtcvNpWL9d+5tRcUmqykV0fl9kdXo9hw0a2xsrP5isT2ytJA/kxSEoRK5e76rOy8dV5su3EvfyYKYvv34i0PPa//Tmy8NACIA/kwUVDmTLRc9VS5gqrdTfdQVeSVP5LsYZhi/Tmx5do93JdlqfOW2OhxmEL9d9LdTjoHTrp7R2qt8NQT5SdQ1617lYu81HVLadGtLPXfKUh3t/PekdvTIjZecm88UINCXTSP63RInTe9GbdXK4sJBk8iyi0k8WaJQuounRFqzyg9V/8eo31y2QCRuEji+x0gEn1Ecqeeu36666NfafIi96HJ1hmO9CgFMoZmsTlPbnakDa5svM9yCOeV3C+58yrLQu0Z7sg6t2ZkJ/vZfP5S7mAIOHr585lejB2p0/nzmbKjl9jzl3LvexTmUAdoDdyRdUL1SWIsddR4/wni2DbTeXLzoDFnF64XOtKjvCjjzE9SJqYNXB7Elmtc/rtKksmlD2QPt28pX7Z3sPLuRr5sn0cEHHjonDP/PWKs4E7TZTbda+b/0OvKL7MBB4lt1c6Tm5Q/4eahJ2z2IufZ7YOT9ZRZzOe8/aBMnc7mLBGHJjxKvbfZXYu95IrZnCVCzTfKAlcFX+7wF3cr9h564tgWxe5eouRgSJKpr53NXe7RWFnkNVdsuDAIXpzdWfDuvacGuzaRMddZlEpxR2y46PxqrefKB4L82pEHJpJrhedeeuRs7E/rMn8v3alTHkNyegt78DXl1ifJqG+byWY+xxUk8xf3DFwL79y7AlEHYwMK/HgKgEgCoD2IRB+RdN3iaorbPny8f/scJRU58Ke/tGdt5a9vxCrX9SGW50syud2/Y3f+1tNbuLRv8LepLIstV51FqZ4s2Z2/dX71lnINIy9nP1+e59j5rMNd5Y6dv3XsfFZJRQ5NVhBqvnF+9Za3yotSpaZyUrfU3Shc2ufFmMtZwpdkDvZEcIo3z3N7X2QzY9wX+fxZ57epcm8rIRKpvYY/m87mLHZvvPO33JG3hcqhVFBfm1CVz+16wZMxuyuOP7NtsCeyLN6+we19mc163pO9syBZarlC8u3K7MiSTHbfK56MuUNv8OUHCL7InF28fV1JwHz+rHv7z5/lvviD1Ns6eFvBfsf51dts9iL3xjt/qxg3XRpc+MD2itUnlYeWuvOmsnPPi86TG5U8E0nOO3qdR//orSe7l4gt1ySyhpZ38OezuAMJHivf/TtlukCPkquTREFqu+48uVFt7PjkN70fPd770eN3tz7BZj7L7V4i3DgxYiKpzV45GGa9LcK1r5T5WFkLHdvn3DumPp3HHVZCXblRxfbSe6DUy9iAAj+KAiCSAMgOItFHJD3NzqZrV9dObD+whj+zjf00mlXfDh/43cnu/C1ftnfwsjHgOsl+R+qolVquenzbO+6dcAVO6rvt0bLlqpKepZMDZEn5G363rytTOlzqF5uvirevDyRFh/6kH3dX6m5ytby3p+/2vTupysNnO+595VK/1FFDZ+ArlzHurtR5S2qtdFtEvF2lTPUYmpMr8RyZXuPWWNnZeUuZJEsEFAWZ7RVbKzwat9fcN6Nl4Pn9SouufSZ7um4NrCEckEVwyv1dSkbdk3FHrZJkGsz8D8yZ7bwpehpma6WSIBmaQqSMt6dFefy5h8qVx+Xx7L3Knf2il1Bpr1aGOUS6siSKXQ1iq/thKpNd2muUBAmZGjJwU1+6U++xJ61VyiPLaM8FpzJxVdXt3u+yLr/yyOVXHmn8JFas+VZquCC21xonEkUizi71tYm3SpSpFTsXDCL+wLRHdscz3MEEvjSL3u8LwNkQTUABLwqASLyI46uvQCS6iaSl6tLqCS1HNkrtNcKNE87iDO5Awn03FLbP4g4kOE99JFQVKPewlXmLonJP2tnv6T14QaLOFAVPlq7rPpT6eU52OlyLKFcjnlMM1K8HqlwSXau9t0fg7uu5snxGWctzz0A9ZJ7V9kRZEcO6N3b2K9ddOsty4Ge75G6MpPiAsWoFymBPvFau1kSSvPREyTGoe0LumHjsjOMeMZAmREHyPExJvepnwF5hNbVuqm2FojQ9EXlPPVdmFWg1lLzEoWKvrfy+oO26UlD8wp8Xv/DntZ/GS3fqpK4GhW4fdK3N0F0bmiMZ9MPAZE9lAnhVgfOsMo9KyZeQW0vbZ7M5cdzRROd3n4qNZbLqQRpqH2IbCgRGARBJAHQGkTwIkbz1y+b8jxWvSKLUWS9cO+I8/iGX97ry847+ebBPfqM8gaA0S/j+tHinjs4pCYAv0QQU8IcCvnkeiScioT1WpivWK/NLCt9n976krAUl90bTnmR3LnAe3yBcyRNvlSr3uTSoTWvABhTwpwIgEn+qO1g3iGRERELUkyTpbpdQf855LEWZMUAWmJElwWlPsNnPk992Sr79/keJBMCvaAIK+EqBABHJUHelrlvC5Txu3yvs588qC1mH5myxn/6GPfia2HiJ3tQbKoH/oUAgFACRBEBlEIkBIhmYZqjcC+9qFGrP8EVp7I4Fg08cUh60EMXuXKD8yd/j74u3SpFzDkA0owl/KBBgIlEeI3b3jvKn+K595TyaxGY8NbiMa+sT7I4FysOsOoceEO6P0aJOKOBBARCJB2F8uRtEYoxIiC8kSfnT6m03hIqvnWe2cQdXKKtbSbJk20zHjqe5w285z2xTViio5yf60o+oCwr4S4FAEwkZhyQpk14bLgqX9ivzXrMXKaz/2Xzh6lf3PRPPX4NGvVBAqwCIRKuIHz6DSHxBJNQxkih1NQiVR50FycoTIz57+t4TKT75DffFG0L5QamvjZpjAwqMfgV+HCIhukgDfz2u5RpfstNZkKz89cq2avKcldGvG3poMgVAJAFwKIjEp0RCPDZwGlXmlxQkszufdaT/mqXzXrdGig1l9y1UCYCT0QQUMKDAj0kktNuSqExoxZxWKgg2Aq4AiCQAkoNI/EAkA4tx5IFHgIi3LvAln3O74tj0KOVp2VmxUss1EEkAIhtN+EqBUUEkvhoM6oECI1UARDJS5R6gHIjEP0RCXCBJEmsX26uVP7Z+Np0vSlMejqn8db2hB5c9gKdgCgV+HAVAJD+O7mh1lCkAIgmAQ0Ak/iQS6kBJVB5U2tOsPLiM/old+i02oMAoVgBEMoqdg64FTgEQSQC0BpEEhEgC4Ek0AQX8owCIxD+6otYgUwBEEgCHgUhAJAEIMzQRxAqASILYeei67xQAkfhOS481gUhAJB6DA19AAVmWQSQIAyggyzKIJABhACIBkQQgzNBEECsAIgli56HrvlMAROI7LT3WBCIBkXgMDnwBBZAjQQxAAaIAiCQAkQAiAZEEIMzQRBArgBxJEDsPXfedAiAS32npsSYQCYjEY3DgCyiAHAliAAoQBUAkAYgEEAmIJABhhiaCWAHkSILYeei67xQAkfhOS481gUhAJB6DA19AAeRIEANQgCgAIglAJIBIQCQBCDM0EcQKIEcSxM5D132nAIjEd1p6rAlEAiLxGBz4AgogR4IYgAJEARBJACIBRAIiCUCYoYkgVgA5kiB2HrruOwVAJL7T0mNNIBIQicfgwBdQADkSxAAUIAqASAIQCSASEEkAwgxNBLECyJEEsfPQdd8pACLxnZYeawKRgEg8Bge+gALIkSAGoABRAEQSgEgAkYBIAhBmaCKIFUCOJIidh677TgEQie+09FgTiARE4jE48AUUQI4EMQAFiAIgkgBEAogERBKAMEMTQawAciRB7Dx03XcKgEh8p6XHmkAkIBKPwYEvoAByJIgBKEAUAJEEIBJAJCCSAIQZmghiBZAjCWLnoeu+UwBE4jstPdYEIgGReAwOfAEFkCNBDEABogCIJACRACIBkQQgzNBEECuAHEkQOw9d950CIBLfaemxJhAJiMRjcOALKIAcCWIAChAFQCQBiAQQCYgkAGGGJoJYAeRIgth56LrvFACR+E5LjzWBSEAkHoMDX0AB5EgQA1CAKAAiCUAkgEhAJAEIMzQRxAogRxLEzkPXfacAiMR3WnqsCUQCIvEYHPgCCiBHghiAAkQBEEkAIgFEAiIJQJihiSBWADmSIHYeuu47BUAkvtPSY00gEhCJx+DAF1AAORLEABQgCoBIAhAJIBIQSQDCDE0EsQLIkQSx89B13ykAIvGdlh5rApGASDwGB76AAsiRIAagAFEARBKASACRgEgCEGZoIogVQI4kiJ2HrvtOARCJ77T0WBOIBETiMTjwBRRAjgQxAAWIAiCSAEQCiAREEoAwQxNBrAByJEHsPHTddwqASHynpceaQCQgEo/BgS+gAHIkiAEoQBQAkQQgEkAkIJIAhBmaCGIFkCMJYueh675TAETiOy091gQiAZF4DA58AQWQI0EMQAGiAIgkAJEAIgGRBCDM0EQQK4AcSRA7D133nQIgEt9p6bEmEAmIxGNw4AsogBwJYgAKEAVAJAGIBBAJiCQAYYYmglgB5EiC2Hnouu8UAJH4TkuPNYFIQCQegwNfQAHkSBADUIAoACIJQCSASEAkAQgzNBHECiBHEsTOQ9d9pwCIxHdaeqwJRAIi8Rgc+AIKIEeCGIACRAEQSQAiAUQCIglAmKGJIFYAOZIgdh667jsFQCS+09JjTSASEInH4MAXUAA5EsQAFCAKgEgCEAkgEhBJAMIMTQSxAsiRBLHz0HXfKQAi8Z2WHmsCkYBIPAYHvoACyJEgBqAAUQBEEoBIAJGASAIQZmgiiBVAjiSInYeu+04BEInvtPRYE4gEROIxOPAFFECOBDEABYgCIJIARAKIBEQSgDBDE0GsAHIkQew8dN13CoBIfKelx5pAJA8pkeTl5U338FqzZk1dXZ3HkPHwhSRJt2/fFgTBw/f+2t3Z2RkXF+c6lGXLll26dEmSJN82XFNTM3/+/C1btvi22tFcG4hkNHsHfQuYAiCSAEgNInlIiSQrK4thmAkTJmiu5aGhoQzD2Gy2U6dO6Y+//v7+tWvXvvjii/39/fpL+cSyo6NjxowZjLuXxWLJzs72LZRUVVWNHz8+MTHRJ50PikpAJEHhJnTS3wqASPytsCzLIJKHmkiysrI0QSaK4qFDh0JCQmbNmnX79m3Nt54+EiyIj4//sYhkxowZHR0dtHuiKFZVVc2cOXPs2LFXr16l+41vgEikHr2HjNqy71rhuZceORv709rslca9gBqgQOAVAJEEQHMQid7Tq7Ol6tJbv2zO/zgAXglAEyRH4koksiz39/fHx8dbLJbi4mKdPRltREK6vXv3boZh3I5R57hczUAkas7Qvw0icY0l7AkuBUAkAfAXiAREog2zH25zrFu3jmGYoqIi+p3dbk9NTQ0LC2MYJjQ0dP369c3NzeTb0tLSiIgIq9Vqs9mmTZtG5lhs2bJl/vz5NTU1tAZZltU7yYSMAwcO7Nmz5xe/+EVkZGRBQQHZmZeXd/ny5cWLF9sGXgkJCV7mtRAY0uRISKOHDh364c7UoUOHaB8kSfruu+8WLVpktVotFsucOXNOnDghiiI1IEC2a9euqVOnkrtXmtZdieTChQvz5s373e9+19jYqK7HNNu4a2MaV2IgRhQAkRhRT2dZEAmIRBsqjY2NERER48ePr6qqIt+1trZGR0dbLJa4uLiUlJTVq1eHhoaOHz++pKREluUbN26sW7du7Nix4eHhSUlJhw8flmU5MTFRXQOpR72TXNpfeOEFm802ceLEkJCQoqIisvO111579NFH58yZ895778XHx1ut1vDwcE9Q4olIWJZdtWqVug88z3/88ccWi2XcuHFvvfXWe++9RyagLF++3G63kx62tbXFxMQwDBMVFfXee++RkVqt1pycHDIfRUMkpaWlYWFh06dP/0EErY5m+QwicfWk3W7Pzs4m2MowjNVqXbRo0dmzZ9V0W1paOn369Ly8PNfivtrzoPOsPU0Df/311/Pz80d2y9Vut3d3d/tqRKO5HhBJALwDInmoiWTdunUnh14lJSX19fUHDhyYMmUKwzApKSk8z8uyLEnS5s2bNbNE6+rqZsyYsXDhwp6eHlmWXe/aqOGDxrF6J7m00ym0TqeT53myMyQk5PDhw4QAJElKT09nGGb37t20HvUGaXrs2LHr1q1LGXrFxsZOmDAhNDT0wIEDdGZrUVGRzWZ76aWXent7SQ0syyYnJzMMk5GRIcuyIAgbNmywWCyZmZn00tLY2Dh79mw6H0VNJFeuXAkLC5s5c2Z9fb26SybbBpFoHHrhwoXw8HCGYaZOnZqYmJiSkrJy5UqbzfbD7Op33nmHXteLiop8ftNQ0xN1NGq+cvuRHCzuZoEr++bOnfugkXz+/PlJkyapk6lu2zXHThBJAPwIInmoicTtuWncuHE5OTkER2RZbmpqmjJlSmxsLE0kkLjMysoKCQkpLS01QiQxMTGUD2RZJmfYefPmqX91lZaWhoSEJCcnuz0evJxkJ0+enJubS7kqKSmJggWtioyOdKO9vT0yMtJ1pAUFBQzDpKWl0R4mJiYSHJk9e7ZZb9ZQiUAkVApZlisqKsIGXiUlJRR2ZVlubW2dPXu2xWLJyckh9qOWSFxvcTY3N69cuZJhGPobQz1kL9tkOhqIRP+EKjIf8WzsT6+un+5F2If2KxDJQ00kNEfy+eefR0VFMQzz9ttv3717V308FBcXWyyWJUuWDCVTBv9PTU2lPwFHnCNZtWqV+hEmhEgSEhI4jqN98P5DkDQ9derU6urqjqFXa2vryZMnFy5cyDDM5s2bJUki03Vdz8Vk/2OPPVZfX++pIXWvyHZkZCSZUrNnzx7aT7NugEioZ+mkb7f3YsrLy8eOHRsZGdne3i7LchARiSzL5C4nwzC5ubl0vMNugEj0swixBJF4DyoQyUNNJOp1KDzPp6SkMAyzdOlSdTqEnFjdZlOME4nmwR5umcDtThrWhEhcUUOW5c7Ozrlz506bNq25uZmYxcXFaXhLPeWFjHTnzp20crKh5i3SGYZhpkyZMmnSJC8TXDSVBO9HEAn1XXl5+ZgxYyhz0P1kQxCEAwcOFBQUkBs3JJwyMzNPnTo1Z86cH9InoaGhr7322q1bt9QFvcwZJ2aSJF26dIlM9LZardHR0XQ6tuuh4X2etZeDRZblq1evjh07Vp0jJH17/PHHyeFvs9kWL158+fJlWZYdDseaNWsmTJjAMMyjjz6qnsZeV1eXkJBAbmNNnTp179699E6WeuBBt427NgFwGYgERHIvzOx2+9KlS9WTSOhPPdfr9L1i+uaRcByXkJBAp5q6nkzV90TUlbu1pAZeTrLkFy1p8e7du3Fxca7gos6RVFZWjhs3TgNJtFckc0M688wzz7S1tR0/fjwkJGTFihUsy9L+mG8DREJ9StaTr1u3Tn2/hn6r2SBE8uijjz7yyCMLFixISUlZsGCBxWKJjo7u7Owkxt7njMuyzPM8mdtEplonJiZOmjSJTurSHBrDzrP2crAof8Cou3vevHkTJ06srq4mTa9evZrOZ09JSSHTzAmQcRy3a9eu5557jmGYV1555aOPPmppaZFl+fTp06EDr9WrV6ekpMTFxVkslueff179uCCNUMHyEUQSAE+BSEAk94XZjRs3wsLCQkJCjh8/Tr4gZz3N7RVZluvr60tKSkg2RZ1FIKWSk5MpfJA9vb29MTExdKfmZKpuS8MEbi2JPZ3C4ooasiwTCiEtEh4id2doWTpLhsxcqa+vf+yxxzT3jGRZJvNINm3aROmE9JDneXLKdpvDV7cS1NsgEuq+TZs20bwg3elpgxAJnbtNr/F09pWeOePnzp0LCQlJSEigaYaWlpaZM2eSzJ/60NAzz9o7kRA6HzNmTHl5uSzL58+ft9lsSUlJdEqZJEkbN26k/ZdlWXPXprOzMzo6OiwsrKKigsgiSdLhw4dDQkLS09P1YJwnMUfDfhBJALwAIgGRaMMsJyfHYrHMnTu3ra2NPjBt7NixFy5coKZ2u33JkiU2m62srIxigfqeCPk1qb4nTe6yB4xIRFE8duyYzWajWejc3FwyQZWuo5Flmewkc01Yll22bJlmpGSnzWY7f/68hkhkWSYrpc197wZEQsM+MTHxQYlk2bJl6hQaoVuycEzPnHGyFqygoID2gaQtMzIy2tvbKZHonGeth0jooxHr6+sPHTqkWX1D+k+f8aMhEvItWblGO0xARzNdnX4bRBsgkgA4C0QCItGGGaENhmE2bNhApp2S9QWhoaEZGRkNDQ1XrlxJSEhQ39whJx2bRPb7cwAAIABJREFUzbZq1SryPBJyTzo0NDQtLe3kyZNpaWmTJk2aP3++n4jEarVGRETQv9FDnthGHuZGFwKQe1IWi+WVV14pLy9vaGjIyMgIDQ2Njo5ubW0lKtCRbtmyhYx05cqVjzzyyIYNG8gvRXoNoKrl5eVZLBYT37sBkVBf79y580GJhCzRojWQxAmZvzXsnHFyWNHbKLQSukGiUf88az1EQo9Q2grP8+3t7SUlJdnZ2dHR0WoFNERC+Ck1NVUzC37JkiWu1dL6g2UDRBIAT4FIQCRuwqyiomL8+PE0MSDLcllZ2dy5c+n8VpvNtnnzZppJlmV57969VquVYRjy120kSTp48OC4ceNIEfJokMzMTHpicr20u2YgSM/cWtJOk5Ms7RjZsFqtUVFRH3300c2bN6mlLMt2u33Tpk2kn+TBVps2bVJP45Vlua6ujizSIVX9MH312LFjNK3i2hmWZVesWGGxWMx67wZEQkNIff+O7lRvsCxLQ0UNH9RGvZNsa0KXfszKyiJE4vaOJKmQRKP+edbeiYTMI5kyZUpTU5Msy6Ionjp1KiYmhh4voaGh8+fP90IkJIdEh6DeoAc+lSLoNkAkAXAZiOQhJZKRxVZfX19HR0dnZye9tayuh+f5zs5O9cJdURQ7B170NK22/7G2OY4jy4TVXdV0ho50VPVc08nAfASRUJ0JAXj6i5JkmkVoaOixY8folHD1cjbNTkIkXuaMEyKZNm0auX9Ku0E3SH/0z7P2TiQkr0lHR+7eTp48OTU1taysrK+vT9N/13kkiYmJ48aNq6yspD000waIJADeBJGASAIQZmgiiBUAkVDn0UlFp06dojvpRl1dXXh4eFhYWG1trevFm5ipcySEJ7zPGU9OTqZTTWlDhYWFERERhw8fJjXon2fthUh4nk9KSqLPIyEw5JrYSEtL85IjITdxNLNeBEEoKyurqqpy+zOGDmr0b4BIAuAjEAmIJABhhiaCWAEQidp5ZAVKWFiY5pmtvb29L730EsMwycnJZPaVGj5oDeqd5KqvmUmtmTNO1tqoF7zwPP/GG28QTFETiZ551p6IpKen54MPPnCdz07pivSfLPNxJZLTp08TA9KfmJiYrq4uOmRyC/jpp58mf3GC7g+6DRBJAFwGIgGRBCDM0EQQKwAiUTtPkqScnBzyt6MXLFiQnZ1dWFj40UcfTZo0iWEY9SxpNXzQGjQ76UxqT3PG6Syld999t7a2tqGhYcOGDVarlcyk1hCJLMve51kTItFMA588ebLFYmEYJjw8nP5xTbIymWGYhISE6urqtra2wsLCqKioCRMmhISE0DtNZDhz5swhzyORJCk7O9tisURFRRUWFra2thYWFk6fPl29BJpKEXQbIJIAuAxEAiIJQJihiSBWAESicR55iOrChQvJhZzM35w6dWp2drZ6lrQGPkglrjuHnTPe29u7du1aOr103LhxqamppCFXIqEE43aeNSES9YRThmFsNtv8+fNzcnLUnSfTwNesWUPHSCaz19TUTJs2jS5pbmtre/rpp0mFZFEbz/M5OTl0SjvDMJMnTz5+/HiwP4xEeUxte/2FFaFnY39auXHWgz48ntrjKfKao0nzEUQCItGEBD5CgfsUAJHcJ4fqQ39/P5kirV50pvr+ATbpTGpPky3IdOzOzs4AT7UmY/Q0mZ2MsK+vr7u7W80cZEp7R0eHZv8DKDL6TEEkAfAJiAREEoAwQxMBVEASJcEpS6KvmgSR+EpJ1BPUCoBIAuA+EAmIJABhhiYCpYAkSmyf1N0s9XdJTodPuAREEijnoZ1RrQCIJADuAZGASAIQZmgiQApI3Y1C2V5uTzx38DW+NFtsuyGLgsG2QSQGBURxcygAIgmAH0EkIJIAhBmaCJACYtsN/tt/caROd6RHsftedp7cJFzaLzaVS3c7ZUkaWSdAJCPTDaVMpgCIJAAOBZGASAIQZmgiQAqIrRX86T8pRELeaU+wO+Y7T3woVOZLbTek/i5ZcD5oV0AkD6oY7EevAjwn3b0j3amX7G0S73igfoJIHkiukRmDSEAkI4sclBqNCmiJZAhN2O2zuNzlwo0Tkv3Og04uAZGMRk+jTyNSQOpp4a995fz6Hf7SPqnr1gPVASJ5ILlGZgwiAZGMLHJQajQq4IlIHFsj2Yy5XE6c88s/8CWfi62VEs/pHACIRKdQMBv9Cgi1Z9hdLzg+ncdmPc/mrXSe+pPYWKbkDnWsTQORBMC/IBIQSQDCDE0ESAGPRDKULHFsm8nmxDkL3+dLd4kNF6S+9mHnl4BIAuQ8NON/BYTqk+xn0Y6tkcptzbSZjp0LuKOJzuJPhIqvxY5a2dnv5XAAkfjfPzKIBEQSgDBDEwFSYHgiGZpf4siY6zyxUag6Jt2pkx3dXuaXgEgC5Dw0438FhPrv2L0vOrbNvDfXSpkGPovb85JwcbeSL+ltlZ133XIJiMT//gGR9IBIAhBmaCJACuglktTpjq0zlHzJp/O4/a8I145IPS2eEtcgkgA5D834XwGxqZz7aq0jfdZ9RKIcDk+w6bPYz59znvqTcOuCzHOuUAIi8b9/QCQgkgBEGZoIlAIPQCQkWbI1kt0+m90T7zzytvL8kpZrMqf9gQgiCZT30I7fFRCbLnNH1rHbZ2uJZDB3+CT7+XPcgQTnsfeF64Vid6Ma00EkfnePDCLRSSSdN7na72rffbRzT4JQfgBvKDA6FXAWbeUOJLg/29KpJG43ts3kdi9xnviQL9snNZUrc/2GXiCSISXwf9ArMAyRqDCd++JNvjhDuH5cbK+RObssSSCSALgf80j03bVpq+bKD/X86VcjOde7vQBgJxQYhQpsneHImOM8uVFsvETPPiASKgU2gl0BXUQydGCy6VHcrji++BOx/pzU3eRorryw4h/wt3/9GgMgEl1EIrZcY7/b2bNlKogECphcga2RysyS8gP0vAMioVJgI9gVeCAicWydwSpzrX7D7lrsPLHJceVI2cp/PPv8Tyo3zpJ0JtddzJwtVZfe+uXZ2J9eXT892MX0R/9BJLqIRGqvYa8c6d78K5YsGxuCaJNfnDDMh06BGY7P5jtPbUaOxB9nW0N1ioLM9kn93aPofbdTuTC3fy+2Voyqt1DzrVB5VLh22PXNF6Vxu5ewmrU2wx7maU+ynz/ryF3enPJo1Urb95uipO7GkUEJiMT7UQAi0UUkYlcDV1/asD68O2uJ8/gHeEOB0akA99Ua5QFQw55hXQ3SZ7G7XuCOrOXPbhNulkiOHnri8E2O5Ep+6ct/fX7JX9z8fJnU0zL47rwp3q4Sm6+ITZdH0bvhgnD9mFBVMIrelflCxdd8ea5wad8oepft4c/tcBal8qf/NKre3JG3ubyVXO5yN++cxWzGHEfqjJEcI1tn9P/z1PaU/9W0+Umx7brU3TACKAGR0BOL2w0QiS4ikXqaSSQ153/sVkfshAKjQYERrLVR1gDvmM/uf9X53Sdi+/cyz2oG4hsiKf+qYsUvrq/8u9ufxQqXD5I3X/K58/iHzqOJ3JF1o+h9aKUj7YmRXLFcOQ97TKdA/7/8n86PZ4i3SsU79SASzbnC+EcQCYjEeBShhtGiwAMTScZcNncZX3FE6qhR8iKi0/UxDD4hEvv53V0fTe770+P9W59gP40ees9zbJ/j2D5LWYE8et7pvwaOQAFPCvT+aUr7lkix6bLUeRNE4vMTH4gEROLzoEKFP5oCeokk7QnHjqe5o0l8abZQ863Y0+yaGqFj8BGR7Onc+E93P36oV6ux6VHszt+ye+K5fS+PoveB5c6v1zmPrXcWvj+q3nzxdr5kp2/fzsL32ayFI8mBpT3h+HTe7Q3hNavH1H00U2yvGdlUEty1oScWtxsgEhCJ28DAzqBUYHgiSZ/FZj3PfbnK+e0/K/NF7nYMO06fEElfWV7d2/+95d0J3elPcV/+we/vw6u5r9Y4v36HG01v57H1/Jk0/uIe/tL+0fMWrnwh1p4VG8uUCT2j6S31tkr9Xb59C7VF3KE3HPrTYOTRxlnPc1+86chPrloz/nzcX2CtzbAnjREbgEhAJCMOHhQcdQp4JJKtMxxpTw48nvVF/rtPlb9lIwk6e+8bIrlWeO7F/7sk7j/Uf75M6r3t97f9Dnmqlc4xwuwhUeDBVv+mPclmzGUzF/LFn4qtVY7bNRdWhOJ5JH4NFRAJiMSvAYbKA6qAJyJR/n7NF28KVQXi7SrZ3iELnP5u+YxIXnrkbOxPa7JekwSn/9+8LOpFLv1SwDLYFXgAItk+2/nlKv7yIbGlQuprk3kWz2wNgPdBJCCSAIQZmgiQAhoiYbdFsZ//1vn1O85zO4TqU8qJVXA+aFd8SyS12SsftAOwhwK+UmB4Ikl7kt3xjDKxpvgT5ZDpbqKHDIjEV17wUg+IBETiJTzwVZApILZV82fSBm7QzGIzF3KHXnee3iLeLFH/nZoHHRKI5EEVg/2oVcAjkSiPZ32SzVrIHXyNP/mRUH9OutupWXcGIgmAW0EkIJIAhBmaCJACUl+bULaX/Ww+mxPnPJ8ldd0y3jCIxLiGqGGUKOCJSBQc+SyaP5+p/F09D/f7QCQBcCKIBEQSgDBDEwFSQBI4qadFbCgTWyuVpQq8w3jDIBLjGqKGUaKAWyJx5q0ULuwSmy9LPS2y0+MhAyIJgBNBJCCSAIQZmgigApIoC7wm4WykeRCJEfVQdlQpoCYS9rNo5xd/4Iu2CtUnxc6bsiR67yqIxLs+PvkWRAIi8UkgoRLTKgAiMa1rH76BiW03+G//mc2JU/6c79fvCJX5kr1jWBYhOoFIAhAvIBIQSQDCDE0EsQIgkiB2HrquUUBwSr23hRsnxJZrcn+3LDil4VIjtAIQCZXCfxsgEhCJ/6ILNZtBARCJGbyIMRAFJEmhEHuHxNl1pkaociASKoX/NkAkIBL/RRdqNoMCIBIzeBFjMKwAiMSwhMNXACIBkQwfJbB4mBUAkTzM3sfYqQIgEiqF/zZAJCAS/0UXajaDAiASM3gRYzCsAIjEsITDVwAiAZEMHyWweJgVAJE8zN7H2KkCIBIqhf82QCQgEv9FF2o2gwIgEjN4EWMwrACIxLCEw1cAIgGRDB8lsHiYFQCRPMzex9ipAiASKoX/NkAkIBL/RRdqNoMCIBIzeBFjMKwAiMSwhMNXACIBkQwfJbB4mBUAkTzM3sfYqQIgEiqF/zZAJCAS/0UXajaDAiASM3gRYzCsAIjEsITDVwAiAZEMHyWweJgVAJE8zN7H2KkCIBIqhf82QCQgEv9FF2o2gwIgEjN4EWMwrACIxLCEw1cAIgGRDB8lsHiYFQCRPMzex9ipAiASKoX/NkAkIBL/RRdqNoMCIBIzeBFjMKwAiMSwhMNXACIBkQwfJbB4mBUAkTzM3sfYqQIgEiqF/zZAJCAS/0UXajaDAiASM3gRYzCsAIjEsITDVwAiAZEMHyUjs+js7IyLi5vu8po5c+b7779/8+bNkVWrs1ReXp5Ly9OfeeaZLVu21NXVSZKksx6YgUiMxMDNmzeTkpJCQ0OZgVdoaGhSUtKDBn9NTc38+fO3bNlCelJaWjp9+vS8vDwjHdOU7ejoYFlWs5N8dDgca9ascT2ali5dunfv3p6eHrelzLcTRBIAn4JIQCT+CrOOjo4ZM2aQE7Hrvzab7dSpU/5qW5azsrJcGyV7rFbrjh07eJ73X+tmqhlEMjJv8jy/Y8cO68ArJiYmZeC1YMECi8Vis9mOHDmiH4urqqrGjx+fmJhIelJUVMQwTFZW1sg6piklCEJaWtrMmTM7Ojo0X5GP/f398fHxno6m8PDwCxcuuC1osp0gkgA4FEQCIvFXmBEimTFjhuZM19/fn5mZabPZoqOjOzs7/dQ8IRLNWZvn+fz8/PHjx1sslvz8fD81bbJqQSQjcKgkSdnZ2RaLZcmSJW1tbeoaTp06ZbPZwsLCbty4od7vZduvREKAw/U4pf0hBuPHj6+qqqI7ZVnu6en54IMPLBZLREREY2Oj+itTboNIAuBWEAmIxF9h5olIZFnmef6NN96wWCzFxcV+at4tkZC2Lly4MHbs2Llz5/qPh/w0qB+lWhDJCGQnDBEeHl5XV6cpLklSeno6wzBJSUk60ySjk0hkWRZFMS0tjWGYjRs36hyLRo0g+ggiCYCzQCQgEn+FmRcikWU5MTGRYZjDhw+T5u12e2pq6uOPP06SwzabbfHixZcvXyZnvQ8//HDOnDkVFRXqvtrt9hUrVixbtqy3t1e9n2x7IRJBENauXWuxWAoLC2VZJrfJ4+Li1IDiulOSpEuXLi1atMhqtVosljlz5hQWFj4Mt35AJK7RNewecp32xBwdHR07duwoLy+nV/H+/v5du3ZNnTqVYRibzZaQkKBGmWGJhBw+YWFhDMOEhoauX7++ublZ3UkSvYsXL7bZbFarNTo6+sSJE6Io1tTUREdHk50RERFr1qxxOBzqgrIse8qRELPm5uZpAy/SombKC7Fx3cmy7P79+9XjrampoWpoOjBKPoJIAuAIEAmIxF9h5oVIBEFYtWoVzZHwPL969WqLxRIXF0dut8fHx1ut1sjIyPb2dlmWCwsLLRZLWlqauq+lpaUhISGandTAC5HIsnzo0CGGYZKTk+kJV5O11qSyJUnKycmxWq2TJk1KTExMSUmJjo5mGGb16tX9/f20UVNugEge1K0Oh2Pp0qUMw5w+fVpP2ba2tpiYGIZhoqKi3nvvvdWrV4eGhlqt1pycHHKR9k4kra2t0dHR9PAhxcePH19SUkJa53l+w4YNFouF1J+YmDhp0iSLxZKdnd3c3PzBBx+Eh4ePHTt23bp1u3bt4jhO02fvRMJxXEJCAj2WNV0lVWl22u325cuXMwwTHR2dkpJC+mOz2Q4ePKhpelR9BJEEwB0gEhCJv8LME5HwPP/FF1/YbDZ63+T8+fM2my0pKYmmHCRJ2rhxY0hISGlpqSzLnZ2dcwdeNI1BDMaOHXv16lW3A/BOJGRu4KpVqwRB0MAHqU2zs66uLjw8fPbs2a2trcSA5/n09PSHYT4KiMRtgHnZ2d3dPW/ePNeJF26LCIJAcCEzM1MURWLT2Ng4e/ZsGt6aK7p6ZqskSZs3byZ4QXMMdXV1M2bMWLhwIVkIc+7cuZCQkISEBErPLS0tM2fOnDZtWnNzsybUXTvpnUhovrOgoECWZU1XSW2anXl5eRaLJSUlhR7vd+7ciY2NHeXzUUAkrrHh8z0gEhCJz4NqsEJCJFarNSIigi4djIiIsFqtJDVN19rU19cfOnSovr5e3ZWCggKGYQ4dOiTLMgWUc+fOEZv29vbIyMhly5Z5WrKoh0iWLl3qcDjcnpE1O9PS0uhdHtpJ0oeEhATXn5XUxgQbIJIHdSKJfJ1EQqIoNjbWbrerGyLxT1KAmiu6mkiampqmTJniWjwrK4sCfXJyMsMwhBhoE0VFRRkZGe3t7ZpQpwZ0QyeR7N69Ww+R9Pb2xsTEEBiiTciyXFRUZLFYyPGu3j96tkEkAfAFiARE4q8wI+dlzaJBq9UaFRX10UcfuX0kA8/z7e3tJSUl2dnZ5LYIXSxz9erVsWPH0hvz5D5Obm6up97rIRKynNLtGVm9kyThx4wZk5WVdVL1ys/PnzNnjuZ2j6f+BO9+EMmD+u7u3btxcXE6iURDG7Qtsp/wrsZGTSTFxcVkRY8qMJXN1NRUskKYRPLEiROrq6tp5eoNdair99NtYuBlOGROWFFRkR4iqa6unjhx4pw5c/Lz89V9zsrKGjNmDF3hTFsfPRsgkgD4AkQCIvFXmHm6a+PaniiKp06diomJIekTMjtv/vz56ocu2O322NhY8tOKTEOZMmVKU1OTa21kj3ciIfNIyA9Qt2dk9U6yrUEr+hFEIvUMfxD1XSs899IjZ2N/Wpu90pPLTLOfxCdNUbiOS5IkOoGU4MXOnTs1ZuTwiY+P7+/v90IkpDiNRs1GVlaWOpI1TZCPOg08EQmZRzJmzJjy8nI9RELGoukn/Qgiceujh2cniGT4kyk54Tpbqi699cvm/I8fnuAwOFL9RJKTk2OxWCZPnpyamlpWVtbX10eyuGoikWU5NzeX3Dqpr69/7LHH1q5dKwiCp056IRK61ob8qnN7RiZTAQhtEINp06ZpHizhqWmT7UeOZAQO9RJ+6nlRjY2NlZWV48aNc70S68yReAIa2udho9dt/NPidOq3JyIha23oJHQNPJF6yCR0MkZisG7dOjrrRd3WaN5GjiQA3gGRgEj8FWY6iYScEF3Pd2T9JL1rI8syBZHc3NyQkBA6p8TtALxcEioqKsaPH0/n1ZKbMppUB7k9T3ZKkpSUlER/BdLmWJYtLi6ur6+nExLpV2baAJGMwJu1tbVhYWHqqdDqSsjUTjILikS162wkMo9k06ZNrokH9V0bcoEnc7TVTdTX15eUlJC5KcnJya7RW1hYGBERcfjwYSNEIklSZmam+nkk5KaMBrDIWMhOMm8mJiZGs2i/vb29qKiITl1Xj2WUbINIAuAIEAmIxF9h9kBEEhYWVltbS7tC1gJociQktxEREfHss89SnqBFNBtuiUQUxfPnz0+fPt1iseTk5NAiycnJGsTJz8//YUEjxZTTp0+HhISsWrVKPZH2+PHjISEhb7zxBma2Dnvj5qG6a0PmYm/evJlhGNdntl65ciUsLCwkJISsDWbZ/7+9M4GPosj7ftbdZ319d2f1iT6+svoYfVyXxQtwHxbXYz0fQECO3RXFRRYVUFlFOQS5lVs0glFDgIAcAcJ9RSQIhPtIOIKEcCYEEkKSue++qvp9ajpphsnMZJI5yEz/8skHenqqqqu+/6rJd7qrq7nBgwe3atXKey12ZWdKSkpBQUFwI1F8wie7w+EYMGBASkrKsWPHZFlW7rXxvpdNWaJQ0RSlhCCnAAN9Z1AXX/Zef9ZkMnXp0sV7eCr39iclJSlGIknS1KlTdTqd9zr6oihOmjRJp9OpCxSpY7P5bMBIYhALGAmMJFrdLEQjUW5fTEpKGjJkyLlz52pqarZt29a1a9e2bdu2aNHC5/q6MiE/KSkpMzMzeL0VI2nbtq16m0+HDh2UB57pdLoZM2aodx6q6520a9cuOzs7Ly9v2rRpTzzxRKdOnVQjEUVx+vTpSUlJffv2PXToUFVV1Zo1a1q3bt2+fXufdduC1yoe38U5kqZFTV11IyUl5eOPP87x/IwYMUJZYc+7BxYXF7dv3/5/1yBJS0srLy8/ceLE8OHDb7/9djWNz6UQ73Mksiyr2TMzM5XsQ4YMSUpKUm+v5Thu2LBhOp1u8uTJpaWl5eXlM2bMSE5OHjZsmGLYEydO1Ol0H3zwQZD1SJTrqupoUm+aa9mypfeyK8rXBmWkbPX89O3bt2vXrt7P5amqqurevXtycvK0adNKPT+TJ0/W6XSDBg3yueGoaeSjlAtGEiWw3sXCSGAk3v0hktshGoksyw6HY+zYsTqdTpnglpKSMmvWrJKSkhdeeMHn/l5lYRJ1nYYg1VWMRJ0xp2w89thjY8eOLS4u9rmGLYpiRkZGSkqKkqxdu3YHDhyYOHGiaiTK1fRZs2apaZKSknr27Kl8Bw1SjQR4C0bS5CAqK5M+9dRTaj9MTk5+44039u/f73Ol78KFC3379lWTtWvX7scff1TTBDcSWZaPHTvWs2dPNbsygtTVR2RZttls48aNU2eOP/zww+np6eqf/7179yqy7t3h1VYr50jUwpUN5aa5OXPm+Dy1SpblmpqaAQMGqMP5zTffPHXqVMeOHb0v5Vy6dOmNN95Q0yQnJ48ePdpoNKoHbYYbMJIYBAVGAiOJQTcL6RAul8tgMJhMJu+zFz45FSPx0RSfNE1+KYqiyWSyWCw+vuJdoJLGYDAo02+930rUbRhJmJGllFoslgb7tizLdrtdSaa6SKMOrWYPNIJ4ng9UPiHEZDJ5S0yjDl0/sTKcgxeopDEYDHFx3RNGUj/KEd8DI4GRRLxTRbHAbdu23X777crzaKJ4GBTtRQBG4gUDm9olACOJQexhJDCSGHSzcA/hcrl27969atWqZ5555uWXX27OE/LDbWrzyw8jaX4xQY2uAwEYSQygw0hgJDHoZuEeQpnA77P2fLiFIn9oBGAkoXFCqgQnACOJQYBhJDCSGHSzcA9BKb1y5cqBAweUJ4eFWxzyN4YAjKQxtJA2YQnASGIQWhgJjCQG3QyHiGMCMJI4Dh6qHjkCMJLIsQxYEowERhKwc+ANEJBlGUaCbgACsizDSGLQDWAk189IKJElQSYBn8wSg/DjECDQIIFmYSSUspEiCQ3WFglAIEoEYCRRAutdLIwk5kZCJNleQ8qPSie/lwrXkAsHZLdFptQ7KtgGgeZD4HoaCSWUd9Cas9LZHdLxddKJjdRSIYtc84GDmmiHAIwkBrGGkcTKSCiVJZ46TVR/XirK4bdM5Bb2cmd0Fn74hFwpwpmSGPR1HKJpBK6PkVBC3TZqLidlh4Q96fyKge65L7m/6yWd3kodhqY1BLlAIBwCMJJw6IWYF0YSKyORRGK8KB5fx68bwi18xT2vuzvjRXd6B37dUOn0VpyODrG/IlnsCVwHI6FEFjnp3C5h++fcote4+X9zz+nint2Rm/838eACYrgQewg4IgjASGLQB2AkUTYSSmTBTSoKxYIlwuYJ/Mp3uXnd3ekdlF9+2Zvi/nmk5pxMSQyCjUOAQBMIxNRIJJGayqTiH4Rt05m7L3pNHSzcwlf5nDHkwgHqMjehFcgCAmESgJGECTCU7DCSqBkJkaitilQUSic2sq96S/upn63u+X/lVrwt/PCJdHgpqSjEdfFQeirSXC8CsTASSmTORmvOkbN54v55/LqhVwfLnC7cktf5jSPFfXOkM9uo04hLnNerJ2j8uDCSGHQAGEkUjEQS2MeruVwq2sRvHn/1s3X2i9y87tzCV/iNH0uFq6nlsizXTqngAAAgAElEQVTxMYgxDgEC4RCIrpGwuatOaqsmFwuEXV9zi/9xdbzM7cot+BufPVDYlUYuF8q8I5xWIC8IhEkARhImwFCyw0gibSSSQPUl4uGlXPZA7rte3Lxu6icsO+28eYJ0dgc1XZI5O5VE3GITSh9FmutLIIpGQiSZc0hntgs/fMot6s3N78l5JlcpQ4ZfO0Q8nEVqzrD54CKHK5vXtxvg6DCSGPQBGEmEjMRzawCpOCYeyea3TuFXDuLmdK11kYwXueX9hW2fScfXkosF1F5DcWokBl0bh4gQgagYiSRSQwmbL7LzK37DCG7hq1fFfVFvfuPHYv4icn4XNZTKgjtC7UAxIBAWARhJWPhCywwjCdtIiETtNaTyhFT0vbBtBpfVV/1sZXfTLOotfD9WLFhCLv9EOc9pZyJRkaeCu/6vnwXTKKFSgMQiLxPRN8qSUL9YZQ8r/NpVT6hnySm/6f3URJapJPpNTAW3ZyrMNUuqBEss8fW+71KZ+C+clSwJ1GfmL5EC1YRVxmfROUoak9izEpfI1c8iixxlDK+dgxy8JtcmZq2QBOqvcE+1xWsKp5S9DBT9+jVRbi/3169qC/fuK5SytoRWeESN5P9cWPIhMZRKJXvFA5n8msFXB8ucLtzCV7jsAczdT26mtiqZd3hHwbe3UxpoHLFc9Xq7ssCad4FXt9lQunahQgYz8FAi9RZqC5K4fk2UbuAvUnL9Qe2J1NWq+uQSfS/7BhvUfprp6ZA+ZXpesr5Rr+aNG9TBPl48wK/9OJIbN04bPaj9jjv/g9pzq1d95q7KM0eGtdzf76ZTqd2oNdQ/HD4phSunC8c8ur/fTUXTOniPSGwrBGAkoXYspSdV5n59teuwjuuWnUbp5GZh48dXP1vrbqXhMnsIWyZSa6WsfoRRQu16arpEjaX1f4m5XHaZr344UkpdFmq5XD8lNZYS00Vqr2GJ1YFNRGqr8puY7bRUyIKLfWApP5Swk+Hmcv/pzZdkp/Gae5JFt2yv8Z+YtaWMFV73B5gSkToMgRITYxl1W6/5A8M7AtWcGC4Qy2XKu65iFzk5cOHUWCpztqt/2onEGPqjXbvTabqmmYLSzAv1sxBDKTVXULdNluvcSxKoy1w/5dU9PtHkncRymTXfb31sVbLirEpTRY7aDdR00W9iYi5nt5zUAWcbgpt1Cb8lG0tZV1EXFlPcxXqFmgLUxFIps2bW/kTGSIp+zH/39vy3dJe/G8jmi8zveXW8ZLzIze3GLe7D54wRDy+TLub7bYXs0Hv3XllwB+y9xlImNIJXn6FEdpkDpjddInb91XFECZOhAOOO1c165arfexaTpVb/g9STuFLmnddEKvigtlWxjwtlUFPKmhlkUJvLr7meFXxQm3wHNVvxxVLplzbrG6yZvIol+KCmposyZ786qNk5Yyvrpf46JDGWyXb91Q4py7LIB/nE8Deog447/4PaT2+vHdScva6zy8xEXWZi9PMJ4D6/t2jUQwUDfnPqi5d8PCP0lzCSq6j9bcFImm4k1HJZPLGBXzOYW9zHPa/H1U/YOiNxz+7Er36fnN/J/kbKMvtwsVQIW6dwywdwy/vX/+VX/UvYOlV2mmojJbjFvJn8qn/VT+nZM4D/fhzVn2efd2xIc6TsoLB1aoDE/fkNI8SjK4i5giWWBGqpFPd8y2cP9JueX/kuv34YrTql6pF0YiP//Vi/ibnl/flV/yLn8tSlq8jlQmFXWuDEg4Rtn7F14ZQfkRcL1/BrP/Cbns8ewGUPZCvb1v1BlU7nCj9M8JtY2SkVZBH9OaVsarooHVsZJLGQO5kVrvxIgnR2B7/2w0BYuOyB0vE1V5tZWSTszQhSuHhwAa0+XVu4yyKd2cZmF2UHiP6aD8Uj2bWJZZnN9Fw/nF/xjv/ysweKB+fL9mrlTx21VUknc/i1H/pPvLy/8OM06VxebeG8g1w6zK1+P2BNVr8vHZzPvq97jCcyRvLT9yc/uq9yUht7xktsfpU6XyTjRTZf5Mhy6af1/Prh3LK3uKVv+G2FsOdbWnNG0cfa9m4Y4Tcl65AbR4oFS2r7DCWyrUrIncyupfobd9xydmKGuabH16m9WtjzLbd2SIDE/YUtn0ole6jnzxjlHKTyhLDlk0CJ+fXDxQPzqb2awWdiZBF3pPKr3wuQfgC/4SM2NJRBzTulU7nClkkBErNB7VkyTs8KJ5Jsqwo2qFe8y6//iOpL1D4mHlzIrx7sv/DsAdzq98mlw+zLg+engUG9+n3x0EJac5alpUS2V0vKXDq/wFe8LawbysZd3Vle6Vwev+VT/zXxlCCd2EBtV5Sa0OrT4sEFQRI3elCf3Kz6K7lwgN86lVvxdv3y3Vn/tMx65tL4B0u/7BK6gvikhJEoQQz0L4yk6UZCyo/yP05jazepClJvg1vajw1UZZVJl4VcOsyveCdg+tkvcsveojbPh5csU87BrR6sLKTmNwuX9U9Ssre2cM4mHl7GLR/gN6U7vQO38FUh70u29oksU95JKgr5TX7O69Rmn92Jm/sSubBfvYov5H3pzvT6XuvT0rndxGOr2GkYzw+7yWjth4Fq4p79onvhq6RkN0tLqey2Cbu/Do5RKt7CvoF5fsR9Ge75fwtYeHoH4YcJUuk+JTG5clLY/U2QxNx3vcTCNUpimXeIR7KD10TY+RXRn1fSSxf28zljgxTO54wm53Yqian5kpi/OEhid0YXIW9WbU1kmZzZzlYpTe8YKAvPVvs9WftHtOaMuHMmFzhA/KpB4rGVtTWxV0tFm9xec659DsHN6cxvnsDOwXj+YETGSI6uL5vwiCX1yWuONfclLuufrOcYSqTSfWxyqzr7yqeDpXcQvh9HLuazs5KyTJX2ftfrmtK8s8zrzm8aRZXbc0SO1pzjl70RbCit+YDa9bW6Yyrjsge4A9fkmkHttkglu4OMO/fcbvyaD6ipjFVb4qnlMrdqULCaLHxFOv2jMqip2yoWLAlSOOu9e75hZyjZ1wyeVP7U0KDuRi7/pPYxIXeKO6NzYIbdpKJN7JZAz0/wQc3N687nTiblR1haIrFxt+2zgCXP7sjN7cqeCVB3/5RYsJhb8PeA6dM7iAcyqaHWpci5nXzO6CCJ/Q/q2QGHkliwhLosSjPFwjVsBcvA404//U/lX3X28YzQX8JIFM6B/oWRhGEkFYXCzln8sje9b6i5ZpzM6cKvfFc8spwtoiDL7GRg+VF+40j3wlfZJfP6v4teEzZ8RB2ebzzsnIqT3zyeW/wPPylZ3lf5tR9KF/bXFs7ZpcI1/LqhARK/wq14W9w/t/bDS3CRikJ2QmVhb//pF/Xmlr7B5uHWnfoW92Vwy97wm9j93Svc0jek4i3s0oDnRzqVy+eM9ZuY7VzUm1vxtqScmaCUfeweXMBl9fWbnrFa2o+c3107C0eWxfzF3LI3/SZWdgrbZ5BLBUpNiL6EecCi3u7vevnNwmcPEItylMSUs0snNvBL/+k3Jftmv6i3sH8eqfuWScqPCNs+85/YE1xh6xSpZG9t4eZy8egKtgJp/bgre7L6igcylcTsU710L1vDJmBX6S3sSCV1J7Go/ry4L4Nf2i9Q4eyG86JNtTWx10jFW7ilb7DA+a3Mkj7CjlR2QcrzZLvIGMmx9RfGPaSf3t412+tP4Lzu3PIBbMZ35QnpdC7H6u+/Q7oXvsrae6VIuWFeaS/7Fuu3/gtf4bL6Clun1H7xFd1Ef55fPywg/MV9hNzJ1GlU2kvN5WwcLekTqHB+zeCrg5qzKYOa9Wq/lcnqy38/lprLGXx2bvKy8P1YbnGgwl/lV74rnc2rG9Q2dvpww3D/JS98hU2ZP5DJ7t1TjORKUbBBvdAzqNWTdrLMTmQGaObVQW2tVLpNA4M6q6+4O41WnmCJiUSqTgm7vw7EhPXqrH9Kp3PVQS0VruKWvxWwmYteE4+uqGUoy1LJXnam2S9tz84Ag9r/py6/9J/sBEzdZUqxKIf5qN/Cv3vZ8fXzVZMfvTQTRqJ0isj/CyNpupGwyZjmcukouyhwjYio39UWvybsSmOnPZXr/Z5LztJP64W8mcKP0+r/intnS2d+lAXPVRg2sAVyfqe4f279lGxP3pfi0RXsM7f2kjN7Doh0fJ3/xD9OE/fPJVeK1IEnE0k6vU3Y+ZXf9OKeb9koVd1Ilqn5klS0yW9iYfsXwv5MdmpHndHCO6Qz2/wn/nGauOsrcjHfe+VNeuWEWJDlP33eTOmndeoJWyZ2lsvsHg1/AJWdpPyYemqHTZerKhZ2fyNs+8xvFnZDR51IMeSGEunYSmHbDD+Jt00Xdn/DVrSrm73BZjSf3+UnZV3dpLJDVDn9zupNSM15Yfe3wvbP/WYRC7JIxVF1iDPgP60L1FWEXWnS+d3qNTVZEoipXNzzrd+S2SWb42uJsW7xdUqprVrYn8kCV1dV7w3x4Hfk4iG1JpExkqKtBe/+v1ND77bM9XN+i1/1L9blflon7krzrsnV7V1f+Wnv/nlXE1zbEPFoNvtKXRcpWXBKZ34U9872m148kCmV1oojC5TgJlWnxEPf+U0s/DiNFR7yoJbYDcxn2eRi5UcZ1Acy/Ree96WYv4RNJlOGkiRQQ4l4NNt/Yjao5xFb9dWJUMEH9a40n0FNLh4SDwZo5tVBXTeVO5RB7fnqxRpKJPZAokDRzJvJFmQye0TKg4VarwT8xNj2mbD7W1JzXo0m5Z1S2aFATIQfp/kd1OKOVD9Zts2Qjq0kdWdfWPTtNVLpPmGHn6HhzhlbPeOJ4iH/eToV80hqu3PE/4ORhGEklLKp2uxGmyJ2FXzzBM7nCs6cLvyaD0R2DrZuoUlKqUPPZtiZLvr5tVymLpNM6yafylR2e2a2+ktMzJdqZ7aqnYJIbPafv8Rsp9Uzw06d2SrL1GliU8/8prdcZjqiTsiVZSq62dQzv4nN5cRSefVj0fPXl02b9ZvYdJE1/9qZrez5rrYq/+nN5bJD772UHJvK5zT6T+w5Iru+o/4pYpeoPLMUzZf8Z3GZr6m56Ga3Z5v8JCami8RcocweqEWuzGwN1Ew21692aoKSnvIuarlM/BXO6sbuLrk6w46KbhbNgAGqYI+Mvvrj6YqWy/7b6JkEffWPoufLOrFUBizceqV25pOn/MgYyclth979j0P9f3Np0SBSskfY/Q07SaO6+7zu7Pv08v7swuKZbVRf4tsQi7/2Wit9k6mxYDN56ySAdUiJukxssqqawHvDWkm9YbJpwk7KZv76G6QsUtVXXZAVHnRQK3Nsr3ZIz6AOUHM2qNnMVvUeOirXdsgANbF6xp36TaCBQV3hM6jZQo6Bmtm0Qe05qVbbK9m02Qr/DD2DmvVw9Uf0PIXUP/BLLHDec9vZMjY2/yUrJfgd1P6HkudT1LsmkiC7rX6HhrvkQNHHDx7qr8O9NmrcIr4BIwnDSNRoUEJt1dKFg2L+Ys/E1aunTLjvXhY2fsxOfpz+kRhK2WeN18eHWgA2QKDZEoickdy+v99NpVnD2G1ZVafY0xXyZrLrI3VPeuIyXuRXvitsnyEdW0UuH5eZtqp23mzxoGJaIYD1SGIQaRhJJIxECRQ7ZcKT8qPC3gw+e6B7UW+OzUysfaget3aIdCSbVhXX3pcIL4lB78YhIkEgwkaydHhtpYhIjWXiT+vZCmlZfd3z/3p1sCzqzS5LleyjtTeKw0siEUiUER4BGEl4/ELKDSOJnJEowIko805qusQWb13xtvoh61YWXZjfs3YugvfpzZAihUQgcH0IRMtIPLMN2DU4l5mc2yXkTlIHC8du9erqzuzBJuSeylXvy70+7cdRQcBDAEYSg44AI4m0kXiuK7NJ9dZKcumIdHwt+6j1/v63pA+/doiQ9yV7kKn1Cs5Lx6CX4xDhEIiikSjV8qzrRapOs6nWnjVyVDVxz/8bu47z/Vjx2CpSXbsYSThtQV4QaDIBGEmT0YWeEUYSBSNR8VNCHQZSdkg8uEDYPIFb9qb6Ucst+DubX7J/HlsmyG3B5BKVGTaaG4GoG0ltgz3rk1afZjejbf+cX/OB9/Iq3MpBQt5MtoKFpUJdK6+5gUJ9EpsAjCQG8YWRRNNI1ACKPLl8Qjwwny0FuPgf6lQ+N1vO6xO2ygJm8KmssNHMCMTKSOqaTSR2L+jJ7/mcMex+nAV/d6trW33Xy7NEqaEuKf4HgdgRgJHEgDWMJCZG4rlPWPbcECsdW8Wv+UA9WcKvGyqd3nrNDagxCDsOAQIhE4i1kXjmlyhPlpHYci+fqQu5cvP/Jh5cQAx1C6uE3AQkBIHwCcBIwmfYYAkwkpgYiRIH5aFclsvsOs6RbPagjdXvs4muNee8189oMGZIAAKxJHAdjERpHpHYpNcrJ6WTP4i7vmJPvVk7RCrd7722Xiw54FgaJwAjiUEHgJHE0EjUeBKJPTG47JB4YqPnUR2c+g42QKC5EbhuRqKAYE8qFsiVYulUrlS0kT3wBZc4m1sX0UZ9YCQxiDOM5HoYSQwCi0OAQIQIXGcjiVArUAwIhEkARhImwFCyw0hgJKH0E6TRLgEYiXZjj5Z7EYCReMGI1iaMBEYSrb6FchODAIwkMeKIVoRJAEYSJsBQssNIYCSh9BOk0S4BGIl2Y4+WexGAkXjBiNYmjARGEq2+hXITgwCMJDHiiFaESQBGEibAULLDSGAkofQTpNEuARiJdmOPlnsRgJF4wYjWJowERhKtvoVyE4MAjCQx4ohWhEkARhImwFCyw0hgJKH0E6TRLgEYiXZjj5Z7EYCReMGI1iaMBEYSrb6FchODAIwkMeKIVoRJAEYSJsBQssNIYCSh9BOk0S4BGIl2Y4+WexGAkXjBiNYmjARGEq2+hXITgwCMJDHiiFaESQBGEibAULLDSGAkofQTpNEuARiJdmOPlnsRgJF4wYjWJowERhKtvoVyE4MAjCQx4ohWhEkARhImwFCyw0hgJKH0E6TRLgEYiXZjj5Z7EYCReMGI1iaMBEYSrb6FchODAIwkMeKIVoRJAEYSJsBQssNIYCSh9BOk0S4BGIl2Y4+WexGAkXjBiNYmjARGEq2+hXITgwCMJDHiiFaESQBGEibAULLDSGAkofQTpNEuARiJdmOPlnsRgJF4wYjWJowERhKtvoVyE4MAjCQx4ohWhEkARhImwFCyw0hgJKH0E6TRLgEYiXZjj5Z7EYCReMGI1iaMBEYSrb6FchODAIwkMeKIVoRJAEYSJsBQssNIYCSh9BOk0S4BGIl2Y4+WexGAkXjBiNYmjARGEq2+hXITgwCMJDHiiFaESQBGEibAULLDSGAkofQTpNEuARiJdmOPlnsRgJF4wYjWJowERhKtvoVyE4MAjCQx4ohWhEkARhImwFCyw0hgJKH0E6TRLgEYiXZjj5Z7EYCReMGI1iaMBEYSrb6FchODAIwkMeKIVoRJAEYSJsBQssNIYCSh9BOk0S4BGIl2Y4+WexGAkXjBiNYmjARGEq2+hXITgwCMJDHiiFaESQBGEibAULLDSGAkofQTpNEuARiJdmOPlnsRgJF4wYjWJowERhKtvoVyE4MAjCQx4ohWhEkARhImwFCyw0hgJKH0E6TRLgEYiXZjj5Z7EYCReMGI1iaMBEYSrb6FchODAIwkMeKIVoRJAEYSJsBQssNIYCSh9BOk0S4BGIl2Y4+WexGAkXjBiNYmjARGEq2+hXITgwCMxCeOly9fHjVqVEpKSpLnJyUl5a233iosLKSU+qSM8cv169d3qPfz6quvpqWlXbhwoQnVo5RWV1dLkhRiQ0pKSnr16pWWlqakT0tL69WrV0lJSYjZm3kyGEkMAgQjgZHEoJvhEHFMAEbiHbzi4uL27dsnJSW1bdt20KBBEydO7Nq1a3Jysk6nW7p0aRP+6nsXHuZ2VlaWIkn1/01OTl64cKEoiqEfwuVyjRs37p133nG5XCHmOn36dOvWrSdOnKiknzhxYuvWrU+fPh1i9maeDEYSgwBpwkg4w8Vjox8tmvLsufR/NPn3zNevHB7yuyvb58QgKjgECDQfAjASNRYOh6Nfv36tW7c+ePCgt3ycP3/+qaeeatWqVVFRkZo49huKkWRlZXkfWhTF3Nzc1q1b63S63Nxc77eCbxsMho4dO7799tuhG4koiiaTyW63KyXDSKjV9xuvcOV04ZhH9/e7qWhah+D8tfmuJoxEsBsvrZt0fsG75+YNaPpv5sCSxR9aTu3WZkdBqzVLAEaihv7cuXN//OMfR40aVf9CRmZmZlJS0qJFi9TEsd/wayRKNY4cOdKqVauePXuaTKYQK9YEI/EpGUYCI/HpEg2+1ISRNEgBCUAABAIRgJGoZBQjGTx4MMdx6k5lQ6/X5+XlFRcXq/svXLgwdOjQli1bKtdQ2rZtO23aNKPRKMtyRUVFnz59PvnkE59yDh482KFDh1WrVimFcBy3evXq559/PikpKSUlZciQISUlJd7nZtRjKRtBjESSpHHjxul0um3btqm5HA5Henq6chGqZcuW06ZNq6ysVN49fPjws88+m5ycnJKS8sILL6hTQ4I0SpZln3kkMBIYidrZQtyAkYQICslAQKMEYCRq4JWrNjqdbty4ccHnilZUVDz77LMtW7YcPXr09OnTp0yZ0rVr16SkpEmTJlFKeZ4fMmRI+/btS0tL1cIVaVB3OhyODz74ICkp6eWXX54+ffrEiRPbtWuXkpKybt06NYvPRhAjkWV5w4YNSUlJU6dOVXJVVVW9/PLLOp2uf//+06dPHz16dMuWLVu3bp2fny/L8tmzZydMmNCqVasnnnhi0qRJOTk5ikgFaZQsy5hHUl9BfPbgqo1Pp/V5CSNhQC5fvjx//vyxY8fOmjVr//79jZr/5QMUL0EgwQjASLwDevz48SeeeEI57dGyZctBgwbl5ORYrVbvNJTSWbNmtWjRYvv27ep+k8nUs2fPv//97xaLRZblbdu26XQ67zkfly9ffuaZZ4YMGcLzvCzL69ev1+l006dPVz+OjEZjv379nn322YqKCrVY743gRrJ3796kpCTlkpNSQ5/ZuBcuXOjYsWPfvn2V5vhctQmlUTASH/+o/xJG4t1j62/DSBiTgoKCJ5988uabb27ZsuXHH3/sdDrrk8IeENAmARiJT9w5jtu6devrr7+enJysqIlOp+vbt696A7AkSceOHVu/fr33nFBJkkaNGvX444+XlZXJsqzX6zt16tSvXz+Hw6GUv2HDBvWqis1me/3111944QX1MoqSZu/evTqdbsOGDT5VUl6GYiSDBg1yu92K/XgfXS2hRYsWhw8flmXZx0hCaRSMpL6C+OyBkfjtuupOGAlDsXPnzltuuUX5cGnTpo3yJUZlhA0Q0DIBGEmg6PM8f+LEic8++0yZipGcnLxx40afxC6Xq7y8PC8vb+bMme3atVPvhqWUpqamqrfncBw3ePDgTp066fV6WZaVCSs9evTIzc3N8/rJysq6//771dtrfY4VipEoeQ8cOKDT6QYMGOBVNttMT09PSkpSztz4GIn3sQI1Ckbi4x/1X8JIvDtS/W0YCWMCI6nfM7AHBBQCMJIGewIhJCcnJyUl5fXXX7fZbLIsOxyOzMxMZVKq8lXn+eeff+aZZ1QjkWW5qKioVatWGRkZ6gyM1NRUZeKq8qddyVj/36YZiTKPRDmccgWnfsnKnkBG0mCjYCT1FcRnD4wk+GiCkTA+MJLgvQTvapkAjESNflpaWs+ePf931qe6R91wOp39+/fv2LGjwWBwuVzvvfeeTqfr3bv32rVrS0tLlakhPveeKPNklZklmZmZ999///Hjx5UClT/tEyZMCHJnjXpodSPIORL1Xpu9e/fKsqwYSfB7lX3OkYTSKBiJj3/UfwkjUbur3w0YCcMCI/HbObATBGRZhpGo3SDIn3xl5odiJMofZp+1xZQE3udIZFles2ZNixYt8vLy+nl+1DklyiwT9YyLWgG9Xr93795Aa4oEqV5xcXHr1q3V9UiUGtZfWKWsrCw/P1+pho+RhNIoGEl9BfHZAyNRO7PfDRgJwwIj8ds5sBMEYCTefUD5i9u+ffv8/HzvsxeEkA0bNrRo0WLcuHGSJCnJfJYt2b59e4sWLXyMpKys7PHHHx84cGDr1q3XrFmjHkuSpKlTp+p0us2bN6sHEkVx0qRJOp1OuRdXTaxu+DUSQkhBQUGHDh10Ot3y5cuVxC6X6+23327VqtWRI0fU7A6HY8CAASkpKceOHVNntvbv31+Z6R9Ko2AkPv5R/yWMRO1vfjdgJAwLjMRv58BOEICRePcBSumaNWuUZ+w9/fTTY8aMUVYKUeaLdO/evaqqSpZlk8n08ssvp6SkzJ8/v6qqqry8PDMz88EHH3zssccefvjhU6dOqWUqF1OSkpLUZUjUt6qqqrp3756cnDxt2rRSz8/kyZN1Ot2gQYPUUylqYmVDMZK2bdt6P25PWaJNp9PNmDFDvZFYlmXlAT0tW7bMzMwsLy8/ceLEkCFDkpKS1PuNFWtJSUkZNWpUTk5OKI2CkdRXEJ89MBKfTuvzEkbCgMBIfLoFXoKASgBXbVQUsixTSo8cOaKsLabODE1OTh49enRNTY2a8uzZs8qSaEqap556avv27Vu3btXpdN7nQpQpHTqdrv4FFFmWL1269MYbb+h0OqUQ5SjKqq/qgbw3FCNRa6VsPPbYY2PHji0uLlbPtahZjh071rNnTzV9SkrKrFmzvO9YXrlypXKHs3IFqsFGwUh8/KP+SxiJ2v38bsBIGBYYid/OgZ0ggHMkgfoAz/MGz4/JZPI+96Cmp5RaLBaDwWCxWOrbgJqswY3/nVKqHEiZHttg+sYmsNvtBoMhUCuUh+eph45UoxpbyeaQHs/+jUEUYCQMMowkBl0Nh4hTAjhHEqeBQ7UjSwBGElmefkuDkTAsxcXF/fv3v+uuu7Bmq99egp1aJgAj0XL00XaVAIxERRG9DRgJY4Q30MoAACAASURBVGsymbZv3z5t2jQ81yZ6XQ0lxykBGEmcBg7VjiwBGElkefotDUbiFwt2ggAI1BKAkaArgIAsyzCSGHQDGEkMIOMQIBDHBGAkcRw8VD1yBGAkkWMZsCQYSUA0eAMEQAD32qAPxCsBIlKHQRbcMqURaQKMJCIYgxcCI2F8ampq1q5du3jx4uXLl+fl5fm9ly84R7wLAolKAOdIEjWyidwuwUmNpdKxlVLxZlJxjDr0MhHDbC+MJEyAoWSHkTBK+/bt+6//+q8bb7zx3//937t166Y8vTMUfEgDAglPAEaS8CFOvAYSc7n00zpuXjf3vO58zhjxVC41llG3lUpCkxsLI2kyutAzwkgYq507d956660/+9nPfv7zn7dr185isYROEClBILEJwEgSO74J2TpiuCAezXbP7eZO7+ie241b1Jtf+Y5YsITUnJOJ1LQmw0iaxq1RuWAkDBdWSGtUp0FiTRGAkWgq3InRWGIolY5mc8xIOrDf2R25uV25le8KP04XDy+llSeo09TY+SUwkhj0DRgJgwwjiUFXwyHilACMJE4Dp+Vq+xqJ4iXpHdwZnblFvcWds6SiTcxLHAY55Os4MJIY9CgYCYMMI4lBV8Mh4pQAjCROA6flagc0kjo14eZ149cNlU5vpdYrVHCHcikHRhKDHgUjYZBhJDHoajhEnBKAkcRp4LRc7QaNxD27EzevO5/Vl1/7gXh4Kak61aCUwEhi0KNgJAwyjCQGXQ2HiFMCMJI4DZyWq92wkdSdLHHP6cJlDxRyJ4kHF5CLBew6ToD1S2AkMehRMBIGGUYSg66GQ8QpARhJnAZOy9VuhJHUTn3txM3vKez4QjqVy86XOI3155fASGLQo2AkDDKMJAZdDYeIUwIwkjgNnJar3WgjqTtlws3rxq18Ryz+gdqqZUq8GcJIvGlEaRtGwsCePn160KBBd9999wMPPDB+/HiXyxUl3CgWBOKOQGSN5OKS98mZH/nN4/n1w/ELAtEisPo9Lquve3an2rt/64Sj4ZezO7nndeOWvclvGMHmlxhKZVK7qBqMJAafXTASBtlsNu/Zs+ebb77JzMwsKCjAKvIx6Hk4RLwQiKyRVCx6V9yV5s7s2fDfhtD/iiAlCESaADeni7DhI6n4B8o7lKEKI4nBRxaMJAaQcQgQiGMCkTeSfRn80n7cwlfwCwJRIuCe/1f33JfCsV5ufk9+/Ufi8XUyZ1dGL4wkBp9iMJIYQMYhQCCOCUTWSEqXDKH6EnHnLCF3En5BIEoE+PXDuaX9mnLVpu5cC7/2Q7FwNbFeoXWP6IORxOBTDEYSA8g4BAjEMYEIG0nWMCq4iKGE1pzFLwhEiYB0doew8yv3nC6NPU3CLekj/DBBOrGBlB9li6eJvHozMIwkBp9iMBIGWa/Xb9y4cc6cOdnZ2T/99JMkNfFRTDEIGA4BAjEmEGEjWTo8xvXH4TRIoNH32sx9ic1m3TJRLMiSSvfJLrNcd2pEpQcjUVFEbwNGwtgeOXLk+eefT05OfuSRRyZPnox7baLX4VBy3BGAkcRdyFDhUI1kdkd3Zg9ucR9+3TC2Qlr1aco7A9GDkQQiE8H9MBIGc9euXbfddtsNN9zwi1/8on379haLJYKIURQIxDUBGElch0+blQ/VSDI68xtHSsWbiblCFt2USDTAgq2yLMNIYtCXYCQMMlZIi0FXwyHilACMJE4Dp+VqN2gk3JLX+S2fisfXkIv51HaFilyDuGAkDSIKPwGMhDGEkYTfk1BCohKAkSRqZBO4XQGNZF53btlbwubx7BrNhQMyZ/NZmDUIExhJEDiRegtGwkjCSCLVn1BO4hGAkSReTBO+Rb5GMruTe+5L3He9+LVDxPxF1FRGhUYvzA0jiUG3gZEwyDCSGHQ1HCJOCcBI4jRwWq62r5Fk9hQ2fSydzGGrwnM2KgmyTBvLB0bSWGJNSA8jYdBgJE3oOsiiEQIwEo0EOqGaaa+WTm/lFr7KZw8Qtn0mFW1i64vYq+s/0Tf0VsNIQmfV5JQwEoYORtLkDoSMCU8ARpLwIU7ABnIOUlUs7pol5i8mF/PZSvDXPsi3CU2GkTQBWmOzwEgYsZ07d956660/+9nPbrjhhkcffRR3/za2GyF9AhOAkSRwcNG00AnASEJn1eSUMBKG7uDBg23atPnVr3518803d+3a1WazNRkoMoJAghGAkSRYQNGcphGAkTSNW6NywUgYrqqqquzs7PT09IyMjJycHEEQGgURiUEggQnASBI4uGha6ARgJKGzanJKGEmT0SEjCGiCAIxEE2FGIxsiACNpiFAE3oeRRAAiigCBBCYAI0ng4KJpoROAkYTOqskpYSRNRoeMIKAJAjASTYQZjWyIAIykIUIReB9GwiAq80g+//zzzMzMw4cPS5IUAbQoAgQSggCMJCHCiEaESwBGEi7BEPLDSBikw4cPP/PMM7fccsuDDz44YcIEl6vRCwyHgBpJQCAuCcBI4jJsqHSkCcBIIk3UT3kwEgZl165dt9122w033PCLX/yiffv2WI/ET0/BLq0SgJFoNfJo9zUEYCTX4IjOCxgJ44o1W6PTu1BqIhCAkSRCFNGGsAnASMJG2HABMBLGCEbScE9BCq0SgJFoNfJo9zUEYCTX4IjOCxgJ4wojiU7vQqmJQABGkghRRBvCJgAjCRthwwXASBgjGEnDPQUptEoARqLVyKPd1xCAkVyDIzovYCSMK4wkOr0LpSYCARhJIkQRbQibAIwkbIQNF5DgRkIJIbYaobyQuK2UBFxlpAlGQkVeMl4Ur5yikkApbZg0UoBAfBKAkcRn3FDrCBOAkUQYqL/iEtxIiMDxZ3fa1w7nz+8hDgMlxB+Exp0joZRSIok151z75jm2fibZqqkk+i0WO0EgAQjASBIgiGhC+ARgJOEzbLCEBDcSyXjJmTfLMPYu4+ft3EdWELfNL5FGnSOhkkAcBuvygcZJrcxfPccVfU/ser/FYicIJAABGEkCBBFNCJ8AjCR8hg2WkOBGQtw2oWSffc1Qw/h7zLM7O3enE7et/uWboqKiPn36/Pa3v/3d7343dOhQp9MZCBwV3EJFoW3le8ZJrUwz2jk2jpFqzlEBa7wGAob9cU9ANZJjIx8+l/6Ppv2e+qLrgbd+s7/fTaVLh8c9ETRAkwRgJDEIe4IbiSzLxGURSvZZF7xinPyA+duO3PH1xFbtIyU1NTVr16597733Ro4cmZubKwhCffTsYo3IC5cOO3Kn6kf/1jj5QfuqwfzZnVTk6yfGHhBIGAK2koKjo1ofHJi8v99NgX539/0/czr/8qsOv1zS/cZAafb3u+nwkPvKN81IGDJoiKYIwEhiEO7ENxJZlqnICeWF1u9660e3MEx5kDuVS1zmRk1H9cwdESVzuW3tUP3Yu/Qjku2rBgul+2MQIRwCBK4vAc5wqTzni8Kx7Q69e0eg3x1v3d7uzl/e9Zufv/Lw/w2U5tC7d5yb/4755I7r2xwcHQSaRgBG0jRujcqlDSOhhPJO/twu+7rh+hHJpi+fdBdkBZpT4hcfu7PGXG5dNtAwsaVxYkumI2WHKGf3mxg7QSCRCBCR5y1Vzopix8XCQL+XT+x59JEHb7zxl3/t2iFQGsfFQre+THT5n8uVSMTQloQkACOJQVg1YSQKR+I08+d221YNNkz8vTnjJdee2YSz+1y+8UuczR25dNi2dqhhYkvTjD95dCSfuK1+E2MnCGiQgMViadOmTVJSUo8ePTTYfDRZCwRgJDGIsoaMhM0pcVuFsnzr/F7GSX8wpz3HFf9Qf06JN3R2sUYShIpCNndk7F3K2RH+1FbvNNgGARCAkaAPJDwBGEkMQqwtI2FzSiRRqCi0Luqj/+gWw4R7ueIfKO8IBJoSiTgMtpXv6Uf/tnbuSFl+oMTYDwKaJQAj0WzotdNwGEkMYq09I6GUcHb+zA77uo/0H91iTnvOdWgRu3xTb91VKvJizTll3RHlzhqh7BAu1sSgU+IQcUcARhJ3IUOFG0sARtJYYk1IrzkjURgRp0k4v9eW/Y5x8gOWjJeYlDiNlFxdepXdnnMx375+pOGT+0wz2il31mAqaxN6GLJogQCMRAtR1ngbYSQx6AAaNRJ2+YZziJVF1iX92Dolac+5C9dIlsuUSOrcEXvOOP3Y/2RzR9aN4M/ujEEwcAgQiFMCMJI4DRyqHToBGEnorJqcUsNGwmatikJZvm3pW/qRt7F1So6vZ5dvJJE4DPZ1ww3j7zWM+a199YdCWT6WQWtyD0NGLRCAkWghyhpvI4wkBh1Au0aiwCVuK396m23l+/rRLczfdnTtnSOUFViXv2Oc1to4tbWy7ghxWWIQCRwCBOKXAIwkfmOHmodIAEYSIqhwkmndSNgtwU4Tf2aHbWl/45SHzV+/YFvxL8O4/zROb8t05PwePLMmnO6FvBohYLVan3766VtvvfX111/XSJPRTK0RgJHEIOIwEgaZPZCv/Jg5/UX9MJ1+6K/1w35tW9qfP5sXgwDgECCQAAScTuewYcP++te/fvbZZwnQHDQBBOoTgJHUZxLxPTAShpQtEm+rtn73mn7Erfphv9aPvI09JdhpjDhuFAgCiUrA6XTabDaXC8/BTtQIa71dMJIY9AAYiec5fBWF9nXDjVMeNk78gyn1Cf2IZHP6i64DCzzrlJAYhAGHAAEQAAEQaM4EYCQxiI7WjYSKPFt3JGecYfy9xqmtbcsGOvPS2DLzUx82z+7sPrKCOAyhPPsmBqHCIUAABEAABK4XARhJDMhr10jYuiNEEmvO2deP1I/9T3ajrzKVlXcK5YW2rDcN4+8xzvhv/tRWj5TgTEkMeiMOEa8EKKWVlZUXL17U6/Xx2gbUGwSCEoCRBMUTmTc1bCSSQBwG6/KBhk/uY8ugsXVHDlHBRSlhC7aW5dvXDNWPuNU447/ZmRI3HqEemQ6HUhKSgM1m69y5c6tWrYYMGZKQDUSjQABGEoM+oFEjoYJbqCi0rXzPOKkVWyR+3QihLN973RG2Tsm5XfY1Qw3j7zHP7swmurptuHwTgx6JQ8QjAWU9kl/84hcvv/xyPNYfdQaBBgnASBpEFH4CzRkJu1gj8sKlw47cqfrRv1Ueocef3Vl/VVbisggl+6wLXmHLzH/bka3oaquGlITf51BC4hHACmmJF1O0yIcAjMQHSDReastIPHNHRMlcbls7VD/2Lv2IZOUReoHIsss35YXW73rrR7dgy8yfyiUuc/2nBAfKjv0goBECMBKNBFrLzYSRxCD6GjMSkZfM5dZlAw0TW7K5I6sGs7kjnD0QaDanhHeyyzfrhutHJJu+fNJdkIU5JYFwYb9mCcBINBt67TQcRhKDWGvISNjckUuHbWuHGia2NM34k0dH8onb2iBl4jTz53bbVg02TPy9OeMl157ZbJ0SIjWYEQlAQCMEYCQaCbSWmwkjiUH0NWEktXNHLhy054zTj7nTOOVh+7oR/NmdofP1LDN/1Lqkn3HKw6aZf3EfXSVZLlMihl4CUoJAAhOAkSRwcNE0hQCMJAY9QRtGQiTiMNhWvqcf/dvauSNl+Y2FSyVRqCi0Luqj/+gWw4R7ueIfKO9obCFIDwIJSQBGkpBhRaO8CcBIvGlEaTvxjYSKvFhzzrp8oHFSK+XOGqHsUCgXa3yIswXVODt/Zod93Uf6j24xpz3nOrTIs8w89UmJlyCgNQIwEq1FXIPthZHEIOgJbiRUcLFF4tePNHxyH1t3ZNVgoXR/kKmsDRInTpNwfq8t+x3j5AcsGS8xKXEacfmmQW5IkNgELBbLY489dtNNN/Xq1SuxW4rWaZYAjCQGoU9wIyEus+vAAsOE/zJO+kNj544Eok85h1hZxOaUTH3Ykvk3UV9CRS5QYuwHAS0QcDgcH3zwQbdu3aZMmaKF9qKNGiQAI4lB0DVhJMYpD9nXDBXK8usvg9YExGyerCQKZfm2Ve/DSJoAEFkSkoDdbrdarU6nMyFbh0aBAIwkBn0gwY2ESrykL+VObhYri7wXiQ+fLHFbhYqf+NIDlHPgTuDweaIEEAABEGjOBGAkMYhOghuJLMuUSFTko7HQKls/jZBolByDwOMQIAACIAACoRNQjeTYqNaXN0xp2m/56nEFH9yzv99NRdM6hH5o7aRMfCPRTizRUhC4XgQIIefPny8uLq6oqLhedcBxQSCqBDhj+fFPnzw48Nb9/W4K8/fgO7ef/vqVqNY2TguHkcRp4FBtEGhGBGw2W7du3dq0aTNixIhmVC1UBQQiR0B0mCq+Tz3+yRNh6gg7QTKj85Wd8yNXtcQpCUaSOLFES0DgehGwWCzt27fX6XT/+Mc/rlcdcFwQiCoBIvLOy8Wmwh+q9ywO8vvlyLf+1bvz9KF9z26eHSiZuWibq+p8VGsbp4XDSOI0cKg2CDQjAlghrRkFA1W5rgRee+2122+/vVOnTuXl5de1InF5cBhJXIYNlQaBZkUARtKswoHKXEcCPXr0SEpKatOmTVlZ2XWsRpweGkYSp4FDtUGgGRGAkTSjYKAq15UAjCQc/DCScOghLwiAACMAI0E/AAGFAIwknJ4AIwmHHvKCAAgwAjAS9AMQUAjASMLpCTCScOghLwiAACMAI0E/AAGFAIwknJ4AIwmHHvKCAAgwAjAS9AMQUAjASMLpCTCScOghLwgkOAEq8pLxgrtgqWSppJQEam0TjESsLBIuHJQMpXgOQyCq2B+PBGAk4UQNRhIOPeQFgQQnIBlKXQcXmr/+H3d+lqgvYc9yorR+my0Wy5NPPnnzzTe/9tpr9d/12UMlQdKXOLen2tcMde5MCyI6PhnxEgSaPwEYSTgxgpGEQw95QSDBCXDH15nTO+uH/sqU+oRrTwaVRL9GYrPZevXq9cgjj3z44YcNEiEus2vXt6Yv/qwfcathwr14dHaDxJAgjgjASMIJFowkHHrICwIJTkCyVbuPrTWlPmGYcJ857XnnjlnEba8vJZIknTx5sqCg4Pz5BtbGFqtOuXZ9Y/riz4bx91jm9+KKf6hfWoIzRfMSmsA777xz3333de3aFU+dbEKcYSRNgIYsIKAVApRSyVLpPrTE/O2LxskPmr96zrUvUzJebNqlFrHypHN7qvmr5wxj77Iu/Ad3fB3lHTASrXQmbbRzy5Yts2fPXrVqlc1m00aLI9lKGEkkaaIsEEg8ApRZieTak2GZ090w/l7TF392HVwkmcrZfn9zSvwSYDNkTZc8OvKsfvQd5tmduaIcyjv9JsZOEAABbRKAkWgz7mg1CIRKQDEP4ra7C5aZvnxKPyLZPOsZ1/4FgeaU+C2X2KqVizX6UXcYP2/Pl+4jbmvoQuO3TOwEARBIMAIwkgQLKJoDAlEhwE6UmCvcR1aYZz1j/PT35vTOzryviMOoXL5xOp1Dhgzp1avXl19+Wf/wYvXZ2rkjE+61fNebK8ohThMmtNYHhT0goHECMBKNdwA0HwRCJcCkxFbt2r/AnN7ZOPkB88ynXfsXSIYLlBJlPZJ/+7d/69Wrl09xylRW89f/ox91B9ORwrWeuSMBlzbxyY6XIBBfBDZt2vT111+vWrXKbrfHV82bQ21hJM0hCqgDCMQHAXYFRxJde+aYv+loGHOXKfVx14GFkvWK2Wxu06ZNUlJSjx491JZQkSfWKjZ35Ov/0Y9uYUp7njuVi7kjKh9sJCSBHj163HjjjU8++eTFixcTsoFRbRSMJKp4UTgIJBSB2jklnMNdsMw86xn9x7ebUp9w7vzGbDTUNxJlKqtpelv9qDtMac8LFccJ5+fO4YQChMZonkCPHj1+9rOftW3btqysTPMwGg0ARtJoZMgAAhonQCmRDBfch7PNaS8YJ7WypHepzPm8zSMPeZ8jEavPXF13ZN7fuOPr2FRWImkcHZqf8ASwQlo4IYaRhEMPeUFAowQoJcRpcu2dZ0nvYpzUqmxy+9a/v1sxEkokSX/etesb8zcd9CNutczv5T68jHBYd0SjXUVrzYaRhBNxGEk49JAXBLRLoHZOyd555rQXSj687eHf/iopKal71xeJtYrpyFfP6UffYUp9nD+7k/IO7WJCyzVGAEYSTsBhJOHQQ14Q0C6B2jklTpP7cHbZtCcf/n//lpSU1PVP9zm2fW764jHD2LvMszsLFYWedUdwZ412+4nWWg4jCSfiMJJw6CEvCGidALv5xlRevXfZw3f9JikpqXOrX5s+/5Nh/D1skfiiHCq4KYGOaL2TaKr9MJJwwg0jCYce8oIACMiUElNV+WOt7tLdeMNf//Bz/TCd4ZPfObenEg7rMaB7aI4AjCSckMNIwqGHvCAAAjIlkrWmvHeHdv+donu/3S/1H/27cUY75545ylOCsVQ8uoimCPTs2fOGG27A3b9NCzqMpGnckAsEQKCWgFh91pH3deHotgffbXFi2L1sEsm4FPNXzzp3zGrUs28AFAQSgMBrr712yy23/OUvf7l06VICNCfGTYCRxBg4DgcCCUVArCxiq7LO/IthXIp1UR/X3rmu/CxLRjfj5AfNac+79mR4nhKMqSQJFXQ0JgiBLVu2ZGRkrF69GqvIB6EU6C0YSSAy2A8CIBCMAJUESV/CdCTtOf3Ht1vm9uR+2kA4B+EcroOLLHN7Gj+93/R5e9fBRaK+hFKCyzfBaOI9EAABWYaRoBeAAAg0hQBxmV27vjV98Wf9iFuNUx/mS/Yqz6zxrFMiuQ8tMaU+oR/6K1PqE649Gbh80xTEyAMCGiMAI9FYwNFcEIgEAeWJvqYv/mwYf49lfi/+9I/EYVQWiVfWKZEsle4jK02pTxgm3GdOe965Y5Yy0TUSB0cZIAACiUkARpKYcUWrQCB6BMTKk+xizVfPGcbexdYdOb6O8k6fdUfYOiWWSvehJeZvX2RzSr56zrUvUzJepBRzSqIXGZR8/QmsW7du1qxZK1eutNls17828VYDGEm8RQz1BYHrR4CKvPJEX/NXz+pH32Ge3Zktg8Y7/dZIuXzj2pNhmdPdMP5e0xd/dh1c5Jnoyt7xmwU7QSDeCfTp0+eOO+7o0qVLRUVFvLcl9vWHkcSeOY4IAvFKgFirnNtTTdPb6kfeZkp9XKgopII7eGOoJLmPrTXPelo//GY20RVzSoLzwrtxTgArpIUTQBhJOPSQFwQ0RECsPuva9Q2bOzLhXst3vbmiHOI0KXNHglBgl2/MFe4jK8yznjF++ntzemdn3lds0gku3wShhrfilgCMJJzQwUjCoYe8IKAVAspUVvPX/6MfdQfTkcK1lHeEaBVMSmzVrv0LzOmdjZMfMM982rV/gWS4EGJ2rSBGOxOCAIwknDDCSMKhh7wgkPgEqMgrF2uYjoxuYUp7njuVG2juSCAcnjklomvPHPM3HQ1j7jKlPu46sFCyXlFuzAmUC/tBIO4IwEjCCRmMJBx6yAsCiU9AmcrK5o6MusOU9rxQcZxw9sZOTVXMg3AOd8Ey86xn9B/fbkp9wrnzG6xTkvgdSGMthJGEE3AYSTj0kBcEEpyAWH2mdu7I+Hss8/7GHV9H3NYG544EgkIpkQwX3IezzWkvGCe1sqR3cW5LxbWbQLiwPx4JwEjCiRqMJBx6yAsCCU5AOL/blv2ufsStlvm93IeXEc7R2LMjPoAoJcRpcu2dZ0nvYkp93LrkDZ+FTHzS4yUIxBcBGEk48YKRhEMPeUEgwQkIZfmOnPGmL5/gz+6kvCMira2dU7J3nn3tR65d3+IcSUSoopBmQqBnz5433HDDo48+WlZW1kyqFEfVgJHEUbBQVRCINQEquImtRqw6Q9nckcgst1o7p8RpkqzVxGUO86RLrIngeCAQlEDv3r1/85vfPPXUU5cuXQqaEG/6IQAj8QMFu0AABFQCTCCIFHFvULxEPQo2QCAxCOzatWvZsmU//PCDwxGZc4qJgSXEVsBIQgSFZCAAAiAAAiAAAlEkACOJIlwUDQIgAAIgAAIgECIBGEmIoJAMBEAABEAABEAgigRgJFGEi6JBAARAAAQ0RWDZsmWTJk1auHCh1WrVVMMj0lgYSUQwohAQAAEQAAEQkPv06XPHHXd07ty5oqICOBpLAEbSWGJIDwIgAAIgAAL+CWCFNP9cQtsLIwmNE1KBAAiAAAiAQEMEYCQNEQr2PowkGB28BwIgAAIgAAKhE4CRhM6qfkoYSX0m2AMCIAACIAACTSEAI2kKtbo8MJI6EvgfBEAABEAABMIjACMJhx+MJBx6yAsCIAACIAACVwnASK6yaPwWjKTxzJADBEAABEBASwSoJBK3VbxSTOz64O1urJEQa5V4pVgyV1BJCF6yFt6FkWghymgjCIAACIBA0wkQWw1/docjdypfnEuc5iAFNcpIiNPI/bTRkTvNnZ9FnMYgxWrkLRiJRgKNZoIACIAACDSRAHfyB9OXTxpGt7AueJU7viFIKY0yEveRFZa5PfSjWxgmtxIrTwYpViNvwUg0Emg0EwRAAARAoIkERH2Jc9e3xskPGCc/YF38T/7kFuKy+C3rzTffvPPOOzt27FheXu43gbKTOAzciU3WBa8YJ/3BlPq4c3c6cRiCpNfIWzASjQQazQQBEAABEGgiASrykvGiPWecKfVx46Q/MCk5tdXvnJKsrKwxY8Z88803ZnPAizuS5bKiI4ZPfmea9bRzeyqxVVMiNbFyCZQNRpJAwURTQAAEQAAEokOAEok4TY6t041THtKPvM2W9SZ/aivl7I06GqWUuG3c0VXWRX30w3TGaa2du74mbiulpFHlJGpiGEmiRhbtAgEQAAEQiBgBymxCkszlrr1z9OPuNoy507r4n9zxdY06ABU595Fsy5wehjF36sfd7c7PkqyVlBBKaaPKSdTEMJJEjSzaBQIgAAIgEGECVBLEmnPO3enG6W3ZnJIFr3AnNoU4BYRYr3BHVzEdmfh7U+rjrgMLJONFKokRrmI8Fwcjiefooe4gAAIgAAKxJUAlQbJeR33E0AAABrRJREFUsW8cbfzsj4ZP76+dU9LQvFRiq2ZzRxa+Zhh/j2nmU44tk4nLAh3xCR2MxAcIXoIACIAACIBAMAKUEuI0OzZ/Yvj0fv3QX9uy3mBzSkTe78UXdrlH5BQd0Q//jWFiS9eejEC36gQ7qgbeg5FoIMhoIgiAAAiAQOQIeOaUiKL+vGvfXP3Yuwzj72FzSoq+pyJX/yDEbXMfybYueMUw/h7DxJbugizJVI47a+qDkmUZRuIXC3aCAAiAAAiAQDACVOJF/XnnzjTT538yTnmIScmJTcRW7Z2H3ejrmTtinNTKNPMp154MpiNYMN6bkdc2jMQLBjZBAARAAARAIGQC7Hk3Lotjy2TTF4+xOSULX/OWEmUqq3X+y4Yxd5pmPsXWHXFbcXYkCF0YSRA4eAsEQAAEQAAEGiBAXGZH7hT9mDv1Q3+tTHRVMijLoOmH6fTj7nbuTMPckQY44qpNg4CQAARAAARAAASCEKCSKFafdubNMnx6v3L3jTs/y52fxeaOfPI747TW7vwsUX8ed9YEYai8hXMkDSJCAhAAARAAARAIRoDNKak+7dz+hemLx4xTHrJ828nybSf2zJpZTzt3fc2WQcPckWD8at+DkYQACUlAAARAAARAICgBZU6Jbc2Hhk9+px/6K/3QXxkm/t6+aaxn7ggWiQ/Kru5NGEkdCfwPAiAAAiAAAuERcOdnWdI7K0ZimduTO7Y6vPK0lRtGoq14o7UgAAIgAALRIEBsNdzxDdbMl9myaaNb6Ee3MH76e+ui17mizZRzROOIiVcmjCTxYooWgQAIgAAIxJSAZK5gT/Rd8IpxYkvTrGfsGz62b/jYlPo4e/bN4n/yp7YS65WYVig+DwYjic+4odYgAAIgAALNgwBxGpmOzO+lH/kfxhntnDtmEqeROI2OLVOM09saxtxpy3qTrVPiNDeP+jbfWsBImm9sUDMQAAEQAIHmT8B9ZIVlTg/9x/+hH3e369BiYtdTStizb2zVzt3p+nF360fexp4SfHxD82/L9a0hjOT68sfRQQAEQAAE4pUAmzviWSTe8On9ppl/cR1aLBnL1HVHqCSINedce+cYpzxknNhSkRKcKQkSbBhJEDh4CwRAAARAAAT8E2DPrDmxSVkGja07sj2V2Kp91h2hkiAZL9pzxrE5JZP+UDunxK73X6Lm98JINN8FAAAEQAAEQKAxBCilxG1jc0cW9dEP0xmntXbu+pqtO0L9rDtCiUScJsfW6cYpD+lH3mbLepM/tZVy9sYcUCtpYSRaiTTaCQIgAAIgEBECVOTcR7Itc3oYxtypH3e3Oz+LrcpKCKW0fvmU+Yskmctde+fox91tGHMne0rw8XX1U2IPjAR9AARAAARAAARCJaA80ZfpyMTfm1Ifdx1YIBkvqnNHApWizClx7k43Tm/Lbgle8Aq7+8ZhCJRem/thJNqMO1oNAiAAAiDQaALEVs3mjix8zTD+HtPMpxxbJhOXpUEdUQ7D5pRYr9g3jjZ+9kflgXxsnRJIiVcQYCReMLAJAiAAAiAAAv4IsIsvIqfoiH74bwwTW7r2ZBCXxV/agPvYLcFOs2PzJ2xd16G/tmW9weaUiLzfyz0BS0ncN2AkiRtbtAwEQAAEQCBCBIjb5j6Sze6sGX+PYWJLd0GWZCqnRGpU8Z45JaKoP+/aN1c/9i7D+HvYnJKi76nINaqcRE0MI0nUyKJdIAACIAACkSGgLBJvmdPDOKmVaeZTrj0ZTEckoWmlU4kX9eedO9NMn//JOOUhJiUnNhG3tWmlJVIuGEkiRRNtAQEQAAEQiDwBseK4ff1IZe4IW3fEbW3s2RGfOlFJJC6LY8tk0xePGac+4sgZjwffyLIMI/HpJ3gJAiAAAiAAAtcQYEayYZRx6sPOnWmNnTtyTUHXviAusyN3iin1ccf3E2AkMJJrewdegQAIgAAIgEA9AoSzS/rz/Pk93ovE10vV6B1UEqWa80LpAclQiqkkMJJGdyBkAAEQAAEQ0CAB9vA8kadS46ayNgiKSiIVBdxro4DCVZsGOwwSgAAIgAAIgAAIRJ0AjCTqiHEAEAABEAABEACBBgnASBpEhAQgAAIgAAIgAAJRJwAjiTpiHAAEQAAEQAAEQKBBAjCSBhEhAQiAAAiAAAiAQNQJwEiijhgHAAEQAAEQAAEQaJAAjKRBREgAAiAAAiAAAiAQdQIwkqgjxgFAAARAAARAAAQaJAAjaRAREoAACIAACIAACESdAIwk6ohxABAAARAAARAAgQYJwEgaRIQEIAACIAACIAACUSfw/wEoAcZH5r2lsAAAAABJRU5ErkJggg==;" vertex="1" parent="1">
          <mxGeometry x="215" y="45.15" width="466" height="499.14" as="geometry" />
        </mxCell>
        <mxCell id="1vvXg_mtmP3wP4naVzJM-2" value="User" style="rounded=0;whiteSpace=wrap;html=1;" vertex="1" parent="1">
          <mxGeometry x="215" y="54" width="120" height="27" as="geometry" />
        </mxCell>
        <mxCell id="1vvXg_mtmP3wP4naVzJM-3" value="Admin" style="rounded=0;whiteSpace=wrap;html=1;" vertex="1" parent="1">
          <mxGeometry x="391" y="51" width="120" height="27" as="geometry" />
        </mxCell>
        <mxCell id="1vvXg_mtmP3wP4naVzJM-4" value="Seller" style="rounded=0;whiteSpace=wrap;html=1;" vertex="1" parent="1">
          <mxGeometry x="555" y="53" width="120" height="28" as="geometry" />
        </mxCell>
      </root>
    </mxGraphModel>
  </diagram>
</mxfile>
